<?xml version="1.0" encoding="iso-8859-1"?>
<!-- Uploaded to: SVG Repo, www.svgrepo.com, Generator: SVG Repo Mixer Tools -->
<svg version="1.1" id="Layer_1" xmlns="http://www.w3.org/2000/svg" xmlns:xlink="http://www.w3.org/1999/xlink" 
	 viewBox="0 0 500 500" xml:space="preserve">
<g>
	<rect x="318" y="335" style="fill:#3C8E51;" width="180" height="96"/>
	<rect x="6" y="335" style="fill:#3C8E51;" width="176" height="96"/>
</g>
<g>
	<rect x="314" y="71" style="fill:#54B265;" width="180" height="268"/>
	<rect x="6" y="67" style="fill:#54B265;" width="176" height="268"/>
</g>
<g>
	<path style="fill:#61C2AB;" d="M38,136.2v124c20,0,36.4,18.8,36.4,38.8H182V99H74.4C74.4,119,58,136.2,38,136.2z"/>
	<path style="fill:#61C2AB;" d="M426.8,99H318v200h108.8c0-20,15.2-38.8,39.2-38.8v-124C442,136.2,426.8,119,426.8,99z"/>
</g>
<rect x="182" y="331" style="fill:#AEB1B4;" width="136" height="96"/>
<g>
	<rect x="182" y="63" style="fill:#E8E3E3;" width="136" height="268"/>
	<circle style="fill:#E8E3E3;" cx="116.4" cy="194.2" r="22.4"/>
	<circle style="fill:#E8E3E3;" cx="393.2" cy="194.2" r="22.4"/>
</g>
<path d="M496,341H4c-2.4,0-4-1.6-4-4V69c0-2.4,1.6-4,4-4h492c2.4,0,4,1.6,4,4v268C500,339.4,498.4,341,496,341z M8,333h484V73H8V333
	z"/>
<path d="M178,305H78.4c-2.4,0-4-1.6-4-4c0-18.4-21.2-40.8-38.4-40.8c-2.4,0-4-1.6-4-4v-124c0-2.4,1.6-4,4-4
	c18.4,0,38.4-10.4,38.4-27.2c0-2.4,1.6-4,4-4H178c2.4,0,4,1.6,4,4s-1.6,4-4,4H82c-2.4,18.4-22,30-42,31.2v116.4
	c19.2,2.8,39.6,24,42,44.4h96c2.4,0,4,1.6,4,4S180.4,305,178,305z"/>
<path d="M430.8,305H322c-2.4,0-4-1.6-4-4s1.6-4,4-4h104.8c1.2-21.2,11.6-42.4,33.2-44.4V136.2c-20.8-1.2-32-11.6-33.2-31.2H322
	c-2.4,0-4-1.6-4-4s1.6-4,4-4h108.8c2.4,0,4,1.6,4,4c0,19.2,8.8,27.2,29.2,27.2c2.4,0,4,1.6,4,4v124c0,2.4-1.6,4-4,4
	c-23.2,0-29.2,26.8-29.2,40.8C434.8,303.4,432.8,305,430.8,305z"/>
<path d="M116.4,222.6c-15.6,0-28-12.4-28-28s12.4-28,28-28c2.4,0,4,1.6,4,4s-1.6,4-4,4c-11.2,0-20,8.8-20,20s8.8,20,20,20
	s20-8.8,20-20c0-2.4,1.6-4,4-4s4,1.6,4,4C144.4,209.8,131.6,222.6,116.4,222.6z"/>
<path d="M393.2,222.6c-15.6,0-28-12.4-28-28s12.4-28,28-28c2.4,0,4,1.6,4,4s-1.6,4-4,4c-11.2,0-20,8.8-20,20s8.8,20,20,20
	s20-8.8,20-20c0-2.4,1.6-4,4-4s4,1.6,4,4C421.2,209.8,408.8,222.6,393.2,222.6z"/>
<path d="M496,437H4c-2.4,0-4-1.6-4-4V151c0-2.4,1.6-4,4-4s4,1.6,4,4v278h484V151c0-2.4,1.6-4,4-4s4,1.6,4,4v282
	C500,435.4,498.4,437,496,437z"/>
<path d="M478,361H322c-2.4,0-4-1.6-4-4s1.6-4,4-4h156c2.4,0,4,1.6,4,4S480.4,361,478,361z"/>
<path d="M478,381H322c-2.4,0-4-1.6-4-4s1.6-4,4-4h156c2.4,0,4,1.6,4,4S480.4,381,478,381z"/>
<path d="M478,401H322c-2.4,0-4-1.6-4-4s1.6-4,4-4h156c2.4,0,4,1.6,4,4S480.4,401,478,401z"/>
<path d="M478,421H322c-2.4,0-4-1.6-4-4s1.6-4,4-4h156c2.4,0,4,1.6,4,4S480.4,421,478,421z"/>
<path d="M178,361H10c-2.4,0-4-1.6-4-4s1.6-4,4-4h168c2.4,0,4,1.6,4,4S180.4,361,178,361z"/>
<path d="M178,381H10c-2.4,0-4-1.6-4-4s1.6-4,4-4h168c2.4,0,4,1.6,4,4S180.4,381,178,381z"/>
<path d="M178,401H10c-2.4,0-4-1.6-4-4s1.6-4,4-4h168c2.4,0,4,1.6,4,4S180.4,401,178,401z"/>
<path d="M178,421H10c-2.4,0-4-1.6-4-4s1.6-4,4-4h168c2.4,0,4,1.6,4,4S180.4,421,178,421z"/>
<path d="M316,431c-2.4,0-4-1.6-4-4V73H184v354c0,2.4-1.6,4-4,4s-4-1.6-4-4V69c0-2.4,1.6-4,4-4h136c2.4,0,4,1.6,4,4v358
	C320,429.4,318.4,431,316,431z"/>
</svg>