<?xml version="1.0" encoding="iso-8859-1"?>
<!-- Uploaded to: SVG Repo, www.svgrepo.com, Generator: SVG Repo Mixer Tools -->
<svg version="1.1" id="Layer_1" xmlns="http://www.w3.org/2000/svg" xmlns:xlink="http://www.w3.org/1999/xlink" 
	 viewBox="0 0 512.003 512.003" xml:space="preserve">
<path style="fill:#00A8E1;" d="M512,117.086c0-15.784-12.914-28.7-28.698-28.7H28.699C12.914,88.387,0,101.302,0,117.086v277.831
	c0,15.784,12.914,28.7,28.699,28.7H483.3c15.784,0,28.699-12.915,28.699-28.7V117.086H512z"/>
<rect y="236.529" style="fill:#0071CE;" width="512.003" height="65.706"/>
<path style="fill:#FF9E16;" d="M462.255,229.602c0-9.471-7.748-17.219-17.219-17.219h-65.052c-9.471,0-17.219,7.748-17.219,17.219
	v31.08c0,9.471,7.748,17.22,17.219,17.22h65.052c9.471,0,17.219-7.748,17.219-17.22V229.602z"/>
<g>
	<path style="fill:#FFFFFF;" d="M376.108,212.842c-7.617,1.772-13.343,8.623-13.343,16.76v31.08c0,8.138,5.726,14.988,13.343,16.76
		c12.191-5.645,20.65-17.981,20.65-32.3C396.759,230.825,388.299,218.489,376.108,212.842z"/>
	<path style="fill:#FFFFFF;" d="M448.912,212.842c7.618,1.772,13.343,8.623,13.343,16.76v31.08c0,8.138-5.726,14.988-13.343,16.76
		c-12.19-5.645-20.651-17.981-20.651-32.3C428.26,230.825,436.72,218.489,448.912,212.842z"/>
	<path style="fill:#FFFFFF;" d="M145.222,359.323c0-6.315-5.166-11.481-11.479-11.481H75.195c-6.315,0-11.479,5.166-11.479,11.481
		v9.183c0,6.315,5.166,11.479,11.479,11.479h58.547c6.313,0,11.479-5.166,11.479-11.479V359.323z"/>
	<path style="fill:#FFFFFF;" d="M246.242,359.323c0-6.315-5.166-11.481-11.481-11.481h-58.546c-6.315,0-11.481,5.166-11.481,11.481
		v9.183c0,6.315,5.166,11.479,11.481,11.479h58.546c6.313,0,11.481-5.166,11.481-11.479V359.323z"/>
	<path style="fill:#FFFFFF;" d="M347.263,359.323c0-6.315-5.166-11.481-11.479-11.481h-58.546c-6.313,0-11.479,5.166-11.479,11.481
		v9.183c0,6.315,5.166,11.479,11.479,11.479h58.546c6.315,0,11.479-5.166,11.479-11.479V359.323z"/>
	<path style="fill:#FFFFFF;" d="M448.284,359.323c0-6.315-5.166-11.481-11.479-11.481h-58.547c-6.313,0-11.479,5.166-11.479,11.481
		v9.183c0,6.315,5.166,11.479,11.479,11.479h58.547c6.315,0,11.479-5.166,11.479-11.479V359.323z"/>
</g>
<path style="fill:#333E48;" d="M265.761,174.802c0,9.471-7.748,17.219-17.219,17.219H80.935c-9.471,0-17.219-7.748-17.219-17.219
	v-17.22c0-9.471,7.748-17.219,17.219-17.219h167.607c9.471,0,17.219,7.748,17.219,17.219V174.802L265.761,174.802z"/>
</svg>