<?xml version="1.0" encoding="iso-8859-1"?>
<!-- Uploaded to: SVG Repo, www.svgrepo.com, Generator: SVG Repo Mixer Tools -->
<svg height="800px" width="800px" version="1.1" id="Layer_1" xmlns="http://www.w3.org/2000/svg" xmlns:xlink="http://www.w3.org/1999/xlink" 
	 viewBox="0 0 480 480" xml:space="preserve">
<g>
	<path style="fill:#F1998A;" d="M96,400v32h0.376c2.544,16,17.552,31.2,35.872,31.2S165.584,448,168.12,432H168v-32H96z"/>
	<path style="fill:#F1998A;" d="M168.128,400L168,416h0.376c2.544,16,17.552,31.2,35.872,31.2s33.336-15.2,35.88-31.2H240l-7.872-16
		H168.128z"/>
</g>
<path style="fill:#34B095;" d="M265.264,400H64c-8.84,0-16-7.16-16-16V24c0-8.84,7.16-16,16-16h201.264c8.832,0,16,7.16,16,16v360
	C281.264,392.84,274.096,400,265.264,400z"/>
<g>
	<circle style="fill:#ECF8F6;" cx="167.144" cy="203.696" r="54.032"/>
	<circle style="fill:#ECF8F6;" cx="68.288" cy="28.288" r="20.288"/>
	<circle style="fill:#ECF8F6;" cx="67.712" cy="379.68" r="20.288"/>
	<circle style="fill:#ECF8F6;" cx="259.712" cy="28.288" r="20.288"/>
</g>
<path d="M265.264,0H64C50.768,0,40,10.768,40,24v350.008c-0.376,1.84-0.576,3.752-0.576,5.704c0,2.2,0.312,4.32,0.792,6.384
	C41.288,398.336,51.48,408,64,408h201.264C278.496,408,288,397.232,288,384V24C288,10.768,278.496,0,265.264,0z M259.712,16
	C266.488,16,272,21.512,272,28.288s-5.512,12.288-12.288,12.288s-12.288-5.512-12.288-12.288S252.936,16,259.712,16z M80.576,28.288
	c0,6.776-5.512,12.288-12.288,12.288S56,35.064,56,28.288S61.512,16,68.288,16S80.576,21.512,80.576,28.288z M67.712,392
	c-5.544,0-10.184-3.712-11.712-8.76v-7.056c1.528-5.048,6.168-8.76,11.712-8.76c6.776,0,12.288,5.512,12.288,12.288
	S74.488,392,67.712,392z M265.264,392H93.072c1.816-3.728,2.928-7.864,2.928-12.288c0-15.6-12.688-28.288-28.288-28.288
	c-4.184,0-8.128,0.976-11.712,2.616V53.648c3.728,1.816,7.864,2.928,12.288,2.928c15.6,0,28.288-12.688,28.288-28.288
	c0-4.424-1.112-8.56-2.928-12.288h140.696c-1.816,3.728-2.928,7.864-2.928,12.288c0,15.6,12.064,28.288,27.656,28.288
	c4.944,0,12.928-1.384,12.928-3.608V384C272,388.408,269.672,392,265.264,392z"/>
<path d="M167.144,141.664c-34.2,0-62.032,27.832-62.032,62.032s27.832,62.032,62.032,62.032s62.032-27.832,62.032-62.032
	S201.344,141.664,167.144,141.664z M167.144,249.728c-25.384,0-46.032-20.648-46.032-46.032s20.648-46.032,46.032-46.032
	s46.032,20.648,46.032,46.032S192.528,249.728,167.144,249.728z"/>
<circle cx="165.888" cy="108.624" r="12.624"/>
<circle cx="165.888" cy="60.624" r="12.624"/>
<path style="fill:#F1998A;" d="M352.52,160h-70.904L280,336l-122.728-70.144l-0.264,0.408c-16.528-6.608-35.8-0.424-44.96,15.448
	c-9.16,15.864-4.904,35.648,9.08,46.656l-0.264,0.448l116.032,77.424L254.4,472H440l-25.408-255.552
	C411.304,184.64,384.496,160,352.52,160z"/>
<path d="M422.544,215.624C418.8,179.352,388.688,152,352.52,152h-70.904c-4.392,0-7.96,3.536-8,7.928l-1.496,162.36l-110.888-63.376
	c-1.136-0.656-2.392-0.952-3.664-0.96c-19.768-6.584-41.976,1.6-52.464,19.752c-10.408,18.032-6.56,41.136,8.76,54.992
	c0.6,1.08,1.456,2.032,2.552,2.768L201.16,392h-33.032c-0.024,0-0.04,0.016-0.064,0.016S168.024,392,168,392H96
	c-4.416,0-8,3.584-8,8v32c0,1.288,0.336,2.496,0.92,3.576c3.96,17.896,20.688,35.624,43.336,35.624
	c19.928,0,35.168-13.752,41.256-29.248c7.736,7.8,18.288,13.248,30.744,13.248c13.816,0,25.312-6.68,33.168-15.888l9.24,34.744
	C247.6,477.56,250.776,480,254.4,480H440c2.256,0,4.416-0.96,5.928-2.632c1.512-1.672,2.256-3.912,2.032-6.168L422.544,215.624z
	 M160,431.976c-2.424,11.4-13.384,23.224-27.744,23.224c-14.88,0-26.104-12.696-27.976-24.456c-0.064-0.392-0.16-0.776-0.28-1.152
	V408h56V431.976z M204.256,439.2c-14.88,0-26.104-12.696-27.976-24.456c-0.064-0.376-0.152-0.736-0.264-1.088l0.048-5.656h49.072
	l6.248,8.616l0.224,0.856C228.592,428.384,217.984,439.2,204.256,439.2z M260.544,464l-15.912-59.824
	c-0.496-1.88-1.672-3.512-3.288-4.6l-113.696-75.864c-0.432-0.608-0.952-1.16-1.56-1.64c-11.016-8.672-14.072-24.312-7.112-36.368
	c6.968-12.056,22.048-17.224,35.064-12.016c0.504,0.2,1.024,0.336,1.552,0.424l120.44,68.832c2.464,1.408,5.488,1.4,7.952-0.008
	c2.464-1.416,3.992-4.024,4.016-6.864L289.544,168h62.976c27.944,0,51.2,21.176,54.104,49.24L431.168,464H260.544z"/>
<path d="M30.336,480C13.608,480,0,466.392,0,449.664s13.608-30.336,30.336-30.336c4.416,0,8,3.584,8,8s-3.584,8-8,8
	C22.432,435.336,16,441.76,16,449.664S22.432,464,30.336,464s14.336-6.432,14.336-14.336c0-4.416,3.584-8,8-8s8,3.584,8,8
	C60.664,466.392,47.056,480,30.336,480z"/>
<path d="M416,38.4c-4.416,0-8-3.584-8-8V8c0-4.416,3.584-8,8-8s8,3.584,8,8v22.4C424,34.816,420.416,38.4,416,38.4z"/>
<path d="M416,128c-4.416,0-8-3.584-8-8V97.6c0-4.416,3.584-8,8-8s8,3.584,8,8V120C424,124.416,420.416,128,416,128z"/>
<path d="M472,72h-22.4c-4.416,0-8-3.584-8-8s3.584-8,8-8H472c4.416,0,8,3.584,8,8S476.416,72,472,72z"/>
<path d="M382.4,72H360c-4.416,0-8-3.584-8-8s3.584-8,8-8h22.4c4.416,0,8,3.584,8,8S386.816,72,382.4,72z"/>
<path d="M455.6,111.6c-2.048,0-4.096-0.784-5.656-2.344l-15.84-15.84c-3.128-3.128-3.128-8.184,0-11.312s8.184-3.128,11.312,0
	l15.84,15.84c3.128,3.128,3.128,8.184,0,11.312C459.688,110.816,457.648,111.6,455.6,111.6z"/>
<path d="M392.24,48.24c-2.048,0-4.096-0.784-5.656-2.344l-15.84-15.84c-3.128-3.128-3.128-8.184,0-11.312s8.184-3.128,11.312,0
	l15.84,15.84c3.128,3.128,3.128,8.184,0,11.312C396.336,47.464,394.288,48.24,392.24,48.24z"/>
<path d="M376.4,111.6c-2.048,0-4.096-0.784-5.656-2.344c-3.128-3.128-3.128-8.184,0-11.312l15.84-15.84
	c3.128-3.128,8.184-3.128,11.312,0s3.128,8.184,0,11.312l-15.84,15.84C380.496,110.816,378.448,111.6,376.4,111.6z"/>
<path d="M439.76,48.24c-2.048,0-4.096-0.784-5.656-2.344c-3.128-3.128-3.128-8.184,0-11.312l15.84-15.84
	c3.128-3.128,8.184-3.128,11.312,0s3.128,8.184,0,11.312l-15.84,15.84C443.848,47.464,441.808,48.24,439.76,48.24z"/>
</svg>