<?xml version="1.0" encoding="iso-8859-1"?>
<!-- Uploaded to: SVG Repo, www.svgrepo.com, Generator: SVG Repo Mixer Tools -->
<svg height="800px" width="800px" version="1.1" id="Layer_1" xmlns="http://www.w3.org/2000/svg" xmlns:xlink="http://www.w3.org/1999/xlink" 
	 viewBox="0 0 480 480" xml:space="preserve">
<path style="fill:#F5B945;" d="M304,472H24c-8.84,0-16-7.16-16-16V24c0-8.84,7.16-16,16-16h280c8.84,0,16,7.16,16,16v432
	C320,464.84,312.84,472,304,472z"/>
<g>
	<path style="fill:#4D4D4D;" d="M304,0H88H56H24C10.768,0,0,10.768,0,24v432c0,13.232,10.768,24,24,24h280c13.232,0,24-10.768,24-24
		V24C328,10.768,317.232,0,304,0z M312,456c0,4.408-3.592,8-8,8H24c-4.408,0-8-3.592-8-8V24c0-4.408,3.592-8,8-8h16v112
		c0,8.824,7.176,16,16,16h8c8.824,0,16-7.176,16-16V40c0-4.416-3.584-8-8-8s-8,3.584-8,8v88h-8V16h32v104c0,4.416,3.584,8,8,8
		s8-3.584,8-8V16h200c4.408,0,8,3.592,8,8V456z"/>
	<path style="fill:#4D4D4D;" d="M48,192h64c4.416,0,8-3.584,8-8s-3.584-8-8-8H48c-4.416,0-8,3.584-8,8S43.584,192,48,192z"/>
	<path style="fill:#4D4D4D;" d="M144,224H48c-4.416,0-8,3.584-8,8s3.584,8,8,8h96c4.416,0,8-3.584,8-8S148.416,224,144,224z"/>
	<path style="fill:#4D4D4D;" d="M48,288h64c4.416,0,8-3.584,8-8s-3.584-8-8-8H48c-4.416,0-8,3.584-8,8S43.584,288,48,288z"/>
	<path style="fill:#4D4D4D;" d="M144,320H48c-4.416,0-8,3.584-8,8s3.584,8,8,8h96c4.416,0,8-3.584,8-8S148.416,320,144,320z"/>
	<path style="fill:#4D4D4D;" d="M48,384h64c4.416,0,8-3.584,8-8s-3.584-8-8-8H48c-4.416,0-8,3.584-8,8S43.584,384,48,384z"/>
	<path style="fill:#4D4D4D;" d="M144,416H48c-4.416,0-8,3.584-8,8s3.584,8,8,8h96c4.416,0,8-3.584,8-8S148.416,416,144,416z"/>
</g>
<g>
	<path style="fill:#FFFFFF;" d="M384,472H200c-8.84,0-16-7.16-16-16V88c0-8.84,7.16-16,16-16h256c8.84,0,16,7.16,16,16v296L384,472z
		"/>
	<path style="fill:#FFFFFF;" d="M384,472v-72c0-8.84,7.16-16,16-16h72L384,472z"/>
</g>
<g>
	<path style="fill:#4D4D4D;" d="M232,144h192c4.416,0,8-3.584,8-8s-3.584-8-8-8H232c-4.416,0-8,3.584-8,8S227.584,144,232,144z"/>
	<path style="fill:#4D4D4D;" d="M336,416H232c-4.416,0-8,3.584-8,8s3.584,8,8,8h104c4.416,0,8-3.584,8-8S340.416,416,336,416z"/>
	<path style="fill:#4D4D4D;" d="M424,224h-64c-4.416,0-8,3.584-8,8s3.584,8,8,8h64c4.416,0,8-3.584,8-8S428.416,224,424,224z"/>
	<path style="fill:#4D4D4D;" d="M232,240h96c4.416,0,8-3.584,8-8s-3.584-8-8-8h-96c-4.416,0-8,3.584-8,8S227.584,240,232,240z"/>
	<path style="fill:#4D4D4D;" d="M232,288h64c4.416,0,8-3.584,8-8s-3.584-8-8-8h-64c-4.416,0-8,3.584-8,8S227.584,288,232,288z"/>
	<path style="fill:#4D4D4D;" d="M424,272h-96c-4.416,0-8,3.584-8,8s3.584,8,8,8h96c4.416,0,8-3.584,8-8S428.416,272,424,272z"/>
	<path style="fill:#4D4D4D;" d="M352,368H232c-4.416,0-8,3.584-8,8s3.584,8,8,8h120c4.416,0,8-3.584,8-8S356.416,368,352,368z"/>
	<path style="fill:#4D4D4D;" d="M232,192h64c4.416,0,8-3.584,8-8s-3.584-8-8-8h-64c-4.416,0-8,3.584-8,8S227.584,192,232,192z"/>
	<path style="fill:#4D4D4D;" d="M424,176h-96c-4.416,0-8,3.584-8,8s3.584,8,8,8h96c4.416,0,8-3.584,8-8S428.416,176,424,176z"/>
	<path style="fill:#4D4D4D;" d="M424,320h-64c-4.416,0-8,3.584-8,8s3.584,8,8,8h64c4.416,0,8-3.584,8-8S428.416,320,424,320z"/>
	<path style="fill:#4D4D4D;" d="M232,336h96c4.416,0,8-3.584,8-8s-3.584-8-8-8h-96c-4.416,0-8,3.584-8,8S227.584,336,232,336z"/>
	<path style="fill:#4D4D4D;" d="M479.896,384.504c0.016-0.176,0.104-0.328,0.104-0.504V88c0-13.232-10.768-24-24-24H200
		c-13.232,0-24,10.768-24,24v368c0,13.232,10.768,24,24,24h184c1.048,0,2.08-0.208,3.048-0.608c0.968-0.4,1.856-0.984,2.608-1.736
		l88-88c0.688-0.688,1.176-1.496,1.568-2.344c0.112-0.248,0.184-0.496,0.272-0.752C479.72,385.888,479.856,385.208,479.896,384.504z
		 M192,456V88c0-4.408,3.592-8,8-8h256c4.408,0,8,3.592,8,8v288h-64c-13.232,0-24,10.768-24,24v64H200
		C195.592,464,192,460.408,192,456z M392,452.688V400c0-4.408,3.592-8,8-8h52.688L392,452.688z"/>
</g>
</svg>