<?xml version="1.0" encoding="iso-8859-1"?>
<!-- Uploaded to: SVG Repo, www.svgrepo.com, Generator: SVG Repo Mixer Tools -->
<svg height="800px" width="800px" version="1.1" id="Layer_1" xmlns="http://www.w3.org/2000/svg" xmlns:xlink="http://www.w3.org/1999/xlink" 
	 viewBox="0 0 512 512" xml:space="preserve">
<polyline style="fill:#65B4BB;" points="294.836,163.097 294.836,74.733 89.266,74.733 89.266,37.043 0,126.297 89.266,215.551 
	89.266,177.861 192.539,177.861 "/>
<path style="fill:#FED159;" d="M356.67,255.999c0,55.597-45.069,100.666-100.666,100.666c-11.628,0-22.787-1.97-33.177-5.602
	c-39.295-13.713-67.489-51.095-67.489-95.064c0-55.597,45.069-100.666,100.666-100.666c12.361,0,24.196,2.234,35.136,6.312
	C329.416,175.897,356.67,212.763,356.67,255.999z"/>
<path style="fill:#FFE4A9;" d="M356.67,255.999c0,55.597-45.069,100.666-100.666,100.666c-11.628,0-22.787-1.97-33.177-5.602
	l68.314-189.418C329.416,175.897,356.67,212.763,356.67,255.999z"/>
<polygon style="fill:#F64B4A;" points="512,385.7 422.743,296.443 422.743,334.14 217.171,334.14 217.171,437.26 422.743,437.26 
	422.743,474.957 "/>
<polygon style="fill:#F6C454;" points="232.802,225.62 232.802,245.455 300.293,245.455 300.293,307.464 266.552,307.464 
	266.552,330.855 245.465,330.855 245.465,307.464 211.714,307.464 211.714,286.378 279.206,286.378 279.206,266.543 
	211.714,266.543 211.714,204.533 245.465,204.533 245.465,181.143 266.552,181.143 266.552,204.533 300.293,204.533 300.293,225.62 
	"/>
</svg>