<?xml version="1.0" encoding="iso-8859-1"?>
<!-- Uploaded to: SVG Repo, www.svgrepo.com, Generator: SVG Repo Mixer Tools -->
<svg height="800px" width="800px" version="1.1" id="Layer_1" xmlns="http://www.w3.org/2000/svg" xmlns:xlink="http://www.w3.org/1999/xlink" 
	 viewBox="0 0 512 512" xml:space="preserve">
<circle style="fill:#83CF8F;" cx="256" cy="256" r="256"/>
<path style="fill:#6B7F9E;" d="M256,67.375c104.168,0,188.625,84.457,188.625,188.625S360.168,444.625,256,444.625
	S67.375,360.168,67.375,256S151.832,67.375,256,67.375z"/>
<path style="fill:#8597B1;" d="M256,67.375c74.662,0,139.289,43.483,169.751,106.438c4.539,17.083,7.048,35.121,7.048,53.637
	c0,113.844-92.222,206.066-206.066,206.066c-16.963,0-33.448-2.031-49.098-5.853c-65.105-29.745-110.26-95.448-110.26-171.543
	c0-104.168,84.457-188.625,188.625-188.625V67.375z"/>
<path style="fill:#E4E7ED;" d="M373.786,108.707c35.121,28.073,59.849,68.45,67.972,114.561c-0.597-0.836-1.195-2.031-1.792-3.703
	c-3.703,1.195-3.823,1.314-8.123,2.031l-0.239,0.239c-1.672,2.509,0.119,1.434-2.986,3.942c-3.584,3.106-5.973,7.168-10.035,9.676
	c-0.478,4.301,0.358,5.256-0.717,10.393c-0.478,1.911-2.509,6.929-5.017,6.57c-0.836-0.119-4.062-8.362-4.898-10.632
	c-1.314-3.823-2.867-6.69-3.823-11.11c-0.597-2.389-0.956-6.929-1.434-8.482c-2.628,0.358-2.509,2.031-4.898,0.239
	c-1.792-1.314-0.956-2.031-1.911-3.942c-2.031-1.911-4.181-3.823-6.331-5.853c-1.672-0.478-7.884,0.358-10.512,0.119
	c-4.778-0.478-5.137-0.119-8.004-3.942c-5.017,0.239-4.539,2.15-9.437-2.031c-3.225-2.748-2.628-7.048-7.287-4.539
	c-0.119,3.942,1.792,4.898,3.464,6.69c1.314,1.434,2.867,2.389,3.464,4.301c0.119,0,0.358,1.792,0.478,2.031
	c4.539,0.239,5.615-1.911,8.123-3.703c2.389,2.27,0.119,2.628,3.584,4.42c2.748,1.434,2.27,0.597,4.062,2.867
	c0.956,3.106-6.212,11.349-8.601,12.782c-1.792,1.195-2.748,0.478-4.42,1.792c-2.389,2.031,0.358,1.792-3.942,3.345
	c-4.539,1.672-8.959,5.137-13.738,5.376c-1.075-2.867-2.031-5.615-3.106-8.482c-2.986-9.676-2.867-5.973-5.973-10.99
	c-1.434-2.15-0.836-3.584-1.792-5.495c-0.717-1.434-1.672-2.031-2.628-3.823c-1.434-2.748-2.986-7.048-6.212-6.57
	c-0.717,2.15,2.986,9.557,3.823,11.349c0.956,1.792,2.389,2.509,2.748,5.137c0.597,3.584-0.119,3.106,1.792,5.495
	c4.062,4.898-0.239,4.062,6.092,8.84c4.659,3.584,3.464,4.659,5.495,9.437c3.106,0.836,12.304-3.225,13.857-2.031
	c1.911,3.345-2.15,8.601-3.225,11.587c-3.345,9.676-9.318,9.557-13.857,16.963c-2.509,4.062-3.584,4.539-5.973,9.437
	c-2.628,5.495,5.256,20.547,0.597,26.878c-1.075,1.434-4.301,2.27-8.482,6.69c-4.42,4.778,0.119,3.942-1.553,11.946
	c-1.314,1.792-2.986,1.911-4.539,3.225c-0.597,1.911-0.119,3.345-1.195,5.734c-1.075,2.748-1.314,1.314-2.867,3.584
	c-1.195,1.792-1.075,2.509-2.389,4.181c-1.195,1.553-1.792,1.911-2.867,2.867c-5.256,4.778-16.605,5.017-17.56,4.301
	c-2.628-2.27-0.836-2.867-1.553-6.092c-0.597-2.748-2.15-5.137-3.345-7.287l-0.119-0.239c-0.597-1.075-1.195-2.031-1.434-2.986
	c-2.15-6.809-1.434-12.065-5.137-18.994c-4.778-8.959,2.628-13.738,2.389-18.755c-0.119-1.314-0.597-2.15-0.717-3.225
	c-0.956-5.615-1.434-10.632-5.137-15.052c-4.062-4.778-3.584-3.106-2.27-10.99c1.672-9.079-2.15-6.69-7.645-6.929
	c-2.628-8.243-7.884-4.181-13.021-1.792c-3.225,1.553-4.42-0.478-8.123,0.119c-8.243,1.075-1.792,4.659-12.782-4.062
	c-4.539-3.584-1.553-1.792-4.181-6.331c-0.956-1.672-3.703-3.823-4.898-5.495c-4.181-5.256,0.836-10.512,0.119-16.485
	c-1.314-11.11-3.106-1.434,3.106-14.932c3.225-7.168,8.243-7.168,9.437-10.393c1.075-2.867,0.358-4.898,2.389-7.526
	c1.792-2.15,4.42-1.672,5.376-5.017c1.434-4.062-1.314-4.659-4.301-4.778c-1.314-4.301-1.314-3.225-0.358-7.168
	c0.597-2.27,0.119-3.345,0.597-5.495c1.195-5.615,10.632,0,13.379-2.27c1.314-2.389,1.434-4.659,0-6.929
	c-1.553-2.27-3.464-2.031-4.539-4.181c2.27-1.553,0.597-0.239,2.628-0.597c2.389-0.478,2.031-1.195,4.778-1.792
	c2.509-0.478,4.062-2.748,6.451-4.301c3.464-2.27,1.792-4.181,5.973-4.898c6.69-1.195,2.389-0.956,3.106-7.168
	c1.075-0.358,2.031-0.836,2.986-1.314c2.15,2.748-0.597,1.672,2.031,3.464c0.717-0.358,1.434-0.717,2.15-1.195
	c-0.358-2.986-1.792-2.389-2.628-6.092c-3.345,0.478-4.539,3.345-7.168,2.27c-2.628-0.956-2.748-4.659-2.628-7.765
	c0.956-2.27,5.734-3.584,7.645-4.181c2.986-0.956,2.628-2.986,5.376-5.853c3.584-3.584,0.956,0,2.748-4.659
	c3.942-0.119,2.15-0.239,4.42-1.553h0.119l0.239-0.119c1.434-0.597,3.225-0.717,5.017-1.434c6.69-2.27,9.318-1.075,14.216,0.836
	c3.703,1.553,15.052,1.553,15.888,6.331c-2.748,2.867-5.256,0.717-9.198,0.956c0.717,3.703,1.075,3.703,4.301,4.659
	c0.597-1.792-0.239-1.075,0.717-2.15c1.075,0.239,2.15,0.478,3.225,0.597c1.075-3.703,2.389-3.225,6.092-3.584
	c-0.597-2.509-1.314-1.792,0.119-3.823c3.823,0.358,0.717,0,2.628,3.106c2.628-0.358,5.256-3.345,8.959-3.703
	c2.27-0.239,2.15,0.597,5.376,0.239c2.628-0.239,2.509-1.314,5.256-0.119c0.956-1.792,0-1.792,2.389-2.15
	c3.584-0.597,6.809,1.553,10.273,2.031c-2.628-3.225-5.017-2.509-1.911-7.884c4.062-0.836,4.42-0.239,6.212,2.748
	c0.956-0.597,1.434-1.075,1.911-1.434L373.786,108.707z M71.795,215.265c8.482-38.705,28.79-72.87,57.101-98.673
	c2.15,0.717,5.137,0.239,7.287,0.119c0.836-1.434,1.314-2.748,2.628-3.225c0.597-0.239,1.195-0.239,2.15-0.239
	c0.119,0.717,0.358,1.434,0.478,2.15l0.119,0.478c0.119-0.119,0.119,0.239,0.119,0.478c3.823-2.27,0.597-2.27,2.628-6.331
	c-3.225-0.597-2.748-0.239-4.778-2.27c1.911-2.15,5.734-2.867,8.482-2.628c-0.239,1.911-1.075,1.911-0.358,3.584
	c2.15-1.314,3.703-5.017,7.168-4.301c0.717,0.478,1.434,0.956,2.15,1.314c-1.792,1.672-4.539,1.792-6.929,2.748
	c-1.075,10.512,3.345,1.672,1.911,8.84c2.628-0.239,5.137-2.031,6.092-4.062c-0.956-1.314-2.389-1.314-3.106-2.748
	c0.597-1.911,1.911-3.345,3.703-4.301c1.195-0.597,2.748-0.956,4.42-0.956c19.233,0.119,10.035,0.956,16.007,3.703
	c1.314,0.597,3.703,0.836,4.42,2.031c1.195,1.792,0.119,3.584,2.031,5.017c1.672,1.314,1.911,0,4.181,2.748
	c-0.478,1.553-1.672,3.225-3.942,3.345c-3.225,0-1.314-2.15-4.778-1.792c0.119,3.225,3.345,4.539,0.358,6.331
	c-2.628,1.553-0.956-0.597-2.986,0.478c-0.119,0-0.239,0.119-0.358,0.239s-0.239,0.239-0.358,0.358
	c-0.358,0.358-0.717,0.717-0.956,1.075c-4.778-1.314-3.942-0.717-6.809-3.942c-1.075-1.195-1.314-1.553-3.225-1.314
	c-1.195,0-2.748,0.597-3.942-0.478c2.389-2.986,3.464-0.119,6.929-1.792c0.597-0.239,4.42-3.225,5.017-3.942
	c-1.075-2.27-0.119-0.358-1.672-1.911c-3.345-3.464-4.301-2.509-8.959-2.509c-2.15,2.509-3.703,5.495-6.092,6.929
	c-1.434,0.836-3.106,0.956-5.376,0c1.075,4.181,3.703,0.956,3.942,5.973c-1.792-0.358-2.628-1.195-4.42-0.597
	c-3.823,1.434-0.478,1.314-0.119,2.031c0,0,1.792,0.239,0,0.956c-2.031,0.717-0.358-0.358-4.181-2.628
	c0.597-0.956,1.075-2.031,1.672-2.986c-3.106,0.956-7.048,2.509-10.751,4.301c-4.181,2.031-8.123,4.42-10.393,6.57
	c-0.119,3.584,0.597,1.195,0.956,5.495c5.615,0.358,3.823,2.031,9.437,3.584c1.075,0.239,2.509,0.597,4.181,0.836
	c0,2.748-2.389,4.778-0.717,7.526c3.942,2.748,4.062-2.628,5.017-6.092c13.26-2.748,6.929-6.69,10.273-13.977
	c0.478-1.075,1.195-2.27,2.27-3.464c1.075,0,5.137,0.478,6.092,0.717c2.986,0.478,1.434,1.314,4.659,2.748
	c-0.119,2.628-1.434,5.973,2.509,5.376c2.986-0.478,2.27-2.867,5.973-3.464c1.672,3.823,1.195,5.495,1.911,10.035
	c8.72,3.345,4.778,6.092,3.106,12.424c1.075,0.478,2.27,0.956,3.345,1.553c-0.119,1.792-0.119,3.584-0.239,5.376
	c-0.239,0-9.318-2.031-9.915-2.15c1.434-3.942,3.942-4.062,5.615-8.123c-3.225,0.597-2.986,1.553-5.376,2.27
	c-2.15,0.597-3.703,0.239-5.973,0.478c-0.836,2.628-0.119-2.27,0.239,1.075c0.119,1.314,0.717,0-0.119,1.434
	c-2.986-1.434-2.031-4.659-7.645-1.672c1.314,0.597,2.509,1.075,3.823,1.672c-0.239,3.703-0.478,0.956-1.314,3.345
	c-1.911,6.331,5.256,2.389,7.168,2.031c-0.478,3.345-2.509,3.345-5.495,4.301c-3.225,0.956-4.181,2.27-6.69,2.867
	c0-3.942-0.597-0.597,1.195-3.345c-2.509,0.239-4.42,1.434-6.809,2.389l-0.239,0.119c-3.106,1.314-3.584,1.434-3.942,5.376
	c-2.628,0.836-5.734,1.792-7.645,3.703c-1.911,1.792-3.703,3.584-5.615,5.256c-0.239,0.119-0.358,0.239-0.358,0.358
	c0.717,5.017,0,5.137-2.986,7.048c-2.509,1.672-3.345,1.553-5.734,3.703c-7.526,6.809-3.942,3.584-3.464,15.291
	c-1.553-0.478-3.106-0.956-4.539-1.553c-1.195-7.765,0.478-5.137-5.853-6.929c-6.69-1.911-5.853,1.314-8.601,1.911
	c-3.106,0.717-4.539-2.748-9.079,0.119c-2.509,1.672-4.778,2.748-5.376,5.853c-0.717,3.584-2.389,6.331-2.15,10.273
	c0.478,10.871,10.273,11.468,12.902,6.451c1.672-3.345,1.314-5.256,6.809-4.301c0.597,2.867-0.358,5.017-1.075,7.287
	c-0.478,1.314-1.792,3.703-1.195,5.495c3.942,1.553,4.062-1.434,9.198,1.672c0.358,5.137-2.389,10.99,1.672,13.977
	c3.106,2.27,3.225,0.239,5.973-0.239c2.986-0.478,2.509,1.314,5.256,1.792c1.553-1.911,0.956-0.717,1.911-3.106
	c1.792-4.062,2.27-2.15,6.57-4.659c0.358-0.239,0.836-0.478,1.195-0.717c0.478,0.956,1.075,2.031,1.553,2.986
	c3.106-3.703,3.464-0.119,7.168,0.956c1.553,0.478,2.628,0.597,3.464,0.597c2.628,0,2.867-1.195,6.451,0
	c0.478,0.239,0.956,0.358,1.434,0.478c0.119,0,0.239,0.119,0.239,0.239c0.119,0,0.239,0.239,0.358,0.239
	c0.597,0.717,0.717,1.314,1.195,2.031c2.509,2.389,4.898,4.778,7.406,7.048c4.778,1.911,4.778-1.672,10.154,3.584
	c2.27,2.15,1.314,2.15,2.509,4.898c0.239,0.478,0.597,0.836,0.836,1.434c0.478,1.314,1.075,2.509,1.553,3.823
	c2.509,3.225,5.853,1.195,9.318,4.539c2.031,1.911,0.478,1.314,4.898,2.15c6.809,1.075,4.181,0.478,9.318,4.42
	c2.031,1.434,2.509,0.597,4.301,1.911c2.628,3.584,1.911,7.526-0.239,10.751c-6.69,9.796-4.42,8.123-4.659,15.888
	c-0.239,4.42-1.553,13.618-5.734,14.693c-15.171,4.301-6.331,7.168-10.273,14.693c-1.195,2.15-2.031,2.628-2.748,4.301
	c-2.986,7.048-0.956,9.437-9.796,7.884c0.836,1.553,0.358,0.478,1.195,1.792c2.628,4.062,3.106,7.168-2.389,8.243
	c-4.539,0.836-2.628,0-2.986,5.017c-1.792,0.717-2.509,0-3.703,1.195c1.553,2.867,0.119,0.478,2.748,2.15
	c-0.478,1.553-0.836,3.106-1.314,4.659c-1.075,3.823-1.314,0.239-1.672,4.659c1.553,0.717,2.628,0.597,4.062,2.509
	c-0.239,1.434-1.672,5.376-2.031,7.645c2.27,3.345,4.062,6.929,8.84,7.287c-0.119,2.748,0.597,2.509-1.792,3.106
	c-2.031,0.478-6.451-1.434-8.243-2.389c-3.106-1.672-6.092-3.942-8.123-7.048c-1.195-1.792-0.717-0.956-2.031-2.628
	c-2.27-2.986-1.434-4.301-2.031-6.331c-0.358-1.195-2.27-2.389-1.434-6.212c0.239-1.075,1.911-6.092-0.239-5.256
	c-2.031,0.836,1.553,0.478-1.314,1.792c-0.717-1.792-1.195-4.539-1.553-6.809c-0.717-3.823-1.672-3.942-2.031-6.331
	c-0.956-5.376,1.434-5.973-1.195-14.932c-1.672-5.973-0.956-19.95-2.748-27.117c-0.239-1.195-0.597-2.15-1.075-2.867
	c-1.672-2.748-5.615-3.942-8.84-6.092c-0.239,0-0.358-0.119-0.358-0.239c-4.42-3.106-8.601-15.171-12.065-19.83
	c-1.672-2.15-2.628-1.195-3.345-4.659c-0.836-3.106,0.478-2.628,1.434-5.256c-5.376-9.915,6.929-9.676,4.42-21.622
	c-0.597-2.15-2.15-5.256-3.464-6.212c-2.509,1.075-1.314,1.792-2.628,3.823c-2.031-1.195-4.062-2.27-6.092-3.464
	c-6.212-5.973-2.867-1.672-4.659-5.615c-3.703-8.243-7.287-3.584-11.826-7.645c-2.031-1.672-2.389-4.301-5.734-3.823
	c-5.017,0.717-2.27,1.434-7.406-0.956c-4.42-2.031-8.959-4.539-12.065-7.287c-0.119-5.853,1.672-5.256-2.867-10.751L71.795,215.265z
	 M130.927,114.8c1.195-0.956,2.27-2.031,3.464-2.986l0.119,0.239c0.239,0.358,0.478,0.358,0.717,1.434
	c-3.106,0.717-3.106,1.195-4.181,1.434L130.927,114.8z M292.315,170.826c1.672,1.075,3.703,1.911,4.898,2.986
	c1.553,4.301-0.478,2.27,2.628,6.69c1.792,2.389,1.434,4.181,3.225,5.495c3.345-0.478,0.478,0.478,2.509-1.553
	c0.358-0.358,1.434-1.553,1.672-2.031c-1.075-1.672-1.792-1.792-2.748-3.464c3.703-5.017,5.376-2.15,6.331,1.195
	c2.389,9.079,5.973,6.451,8.959,6.092c3.106-0.478,0.478,0.119,3.225,0.836c2.628,0.717,1.434,0,3.225-0.478
	c6.331-1.553,1.434,10.751,0.836,12.065c-3.464,0.478-2.748-0.358-5.256-0.597c-5.017-0.478,0.358,2.986-11.587-0.836
	c-11.349-3.584-8.959-4.42-11.349,3.464c-2.628-0.239-2.509-0.717-4.898-1.553c-0.956-0.358-1.434-0.597-1.792-0.597h-0.119
	c-0.956-0.358,0,0-2.031-1.911c-1.792-1.672-6.092-2.031-9.079-3.584c0-2.628,2.27-4.778-0.478-7.884
	c-0.956-0.239-13.738,0.239-15.769,0.717c-4.181,0.836-4.898,4.42-10.632,3.584c-3.106-0.478-2.031-0.119-2.867-2.031
	c1.075-0.956,0-0.478,1.792-1.075c0.717-0.239,0.956-0.119,1.553-0.239c9.318-1.434,4.539-6.092,10.273-10.632
	c4.778-3.823,1.075,0,3.703-4.659c3.225-0.239,2.867,1.314,5.615,0c2.27-1.195,1.553-2.15,4.778-2.27
	c2.867,2.867,2.27,4.659,7.048,6.809c1.911,0.836,2.986,1.314,4.181,2.986c2.15,3.106,0.358,2.031,1.195,4.181
	c0.239-0.119,0.478-0.239,0.717-0.239h0.119c2.509-1.195-1.314-1.553,2.867-5.256c-1.195-0.836-2.031-1.434-2.867-1.911
	l-0.119-0.119c-3.225-1.911-1.911-0.119-6.092-5.256c-1.075-1.434-1.434-1.553-1.314-3.823c2.986-0.478,3.464,1.553,6.212,3.942
	c0.358,0.358,0.836,0.597,1.195,0.956l0.119,0.119L292.315,170.826z M356.823,301.036c-2.628,1.314-2.986,4.42-5.017,6.212
	c-2.15,2.031-5.017,1.075-5.973,4.778c-1.075,4.539,1.792,3.225-1.434,9.198c-1.195,2.27-1.195,7.765,0.597,9.437
	c5.256,5.017,8.123-7.765,9.318-11.707c0.956-2.867,1.792-6.092,2.748-8.72c0.956-2.867,2.389-5.376-0.239-9.079V301.036z
	 M348.103,166.167c0.478,5.853,3.942,8.123,6.451,10.871c-0.358,2.867-0.956,2.031-0.956,5.973c2.986,2.15,5.137,3.464,8.959,2.389
	c0.597-4.778-0.956-4.539-2.389-7.765c0.239-0.358,0.956-0.836,1.075-0.956c1.075-1.434,0.597,0.597,1.075-1.911
	c-2.867-0.956-7.406-3.823-7.765-7.645c1.434-1.075,0.956-0.478,2.031-1.075c2.27-1.434,0.597,0.717,1.911-1.672
	c-1.195-2.27-2.389-2.628-5.137-1.553c-1.195,0.478-4.42,2.748-5.017,3.225L348.103,166.167z M323.375,167.72
	c-1.911-2.628-1.792-3.942-5.376-4.062c-1.434,1.553-3.106,3.823-3.942,6.212c-1.195,3.584-0.358,1.075-0.239,5.017
	c-0.119,0.119,0,0.358,0,0.478c-0.119,2.27-0.597-0.478-0.239,1.672c2.867-0.597,0.717-0.478,2.748-1.195s8.123-2.509,9.796-2.031
	c4.181,0.956,7.645,4.301,12.424,0.956c-0.239-4.181-5.376-5.853-8.84-7.645c0.239-3.823,1.195-0.836,0.956-4.539
	c-1.195,0-1.911-0.239-3.106,0.239c-2.748,1.195-1.195,1.553-1.195,2.031c0.119,2.031,2.748-0.478,0,2.15
	C325.525,167.72,324.33,167.72,323.375,167.72z M252.894,138.453c-0.119,6.809,2.27,4.539,4.42,7.884
	c-1.075,2.867-1.195,0.597-2.389,3.584c-1.075,2.509,0.239,0.239-0.478,4.539c1.792,0.119,4.301-0.478,6.69-0.717
	c3.225-0.239,3.225-0.597,4.301-3.942c-1.792-2.27-3.584-4.42-5.495-6.69c-2.389-3.584,0-1.075-0.717-4.062
	c-0.597-1.075-1.075-2.15-1.553-3.225c-3.106,1.075-2.867,0.717-4.898,2.628H252.894z"/>
<path style="fill:#424242;" d="M250.624,390.391v0.119v0.239v0.239v0.239v0.239v0.239v0.119v0.119v0.119v0.119v0.119v0.119v0.119
	v0.119v0.119v0.119l0,0l0,0l0,0l0,0l0,0l2.509,0.478l0,0l0,0l0,0l0,0v-0.119l0,0v-0.119v-0.119V392.9v-0.119v-0.119v-0.119v-0.119
	v-0.119v-0.119v-0.119v-0.239v-0.239v-0.239v-0.239v-0.119l-2.389-0.597H250.624z M235.931,408.31v-0.119l-0.597-1.434l-0.358-0.836
	l-2.27,0.956l0.358,0.836l0.597,1.434v0.119l2.389-0.956H235.931z M234.02,403.651l-0.478-1.075l-0.478-1.195l-2.27,0.956
	l0.478,1.195l0.478,1.075L234.02,403.651z M231.989,398.992l-0.239-0.478l-0.597-1.314l-0.239-0.478l-2.27,1.075l0.239,0.478
	l0.597,1.314l0.239,0.478L231.989,398.992z M229.958,394.333l-0.597-1.195l-0.478-1.075l-2.27,1.075l0.478,1.075l0.597,1.195
	L229.958,394.333z M227.808,389.794l-0.239-0.478l-0.597-1.314l-0.239-0.597l-2.27,1.075l0.239,0.597l0.597,1.195l0.239,0.478
	l2.27-1.075V389.794z M225.538,385.254l-0.478-0.836l-0.597-1.195l-0.119-0.119l-2.27,1.195l0.119,0.119l0.597,1.195l0.478,0.836
	L225.538,385.254z M223.149,380.715l-0.597-1.195l-0.597-1.075l-2.15,1.195l0.597,1.075l0.597,1.195l2.27-1.195H223.149z
	 M220.76,376.295l-0.119-0.119l-0.597-1.075l-0.478-0.956l-2.15,1.195l0.478,0.956l0.597,1.075l0.119,0.119L220.76,376.295z
	 M218.251,371.875l-0.119-0.239l-0.597-1.075l-0.478-0.836l-2.15,1.314l0.478,0.836l0.597,1.075l0.119,0.239L218.251,371.875z
	 M215.623,367.574l-0.119-0.119l-0.597-1.075l-0.597-0.956l-2.15,1.314l0.597,0.956l0.597,1.075l0.119,0.119L215.623,367.574z
	 M212.875,363.274L212.875,363.274l-0.597-0.956l-0.597-0.956l-0.119-0.119l-2.031,1.434l0.119,0.119l0.597,0.956l0.597,0.956l0,0
	l2.15-1.314L212.875,363.274z M210.008,359.093l-0.478-0.717l-0.717-0.956l-0.358-0.478l-2.031,1.434l0.358,0.478l0.597,0.956
	l0.478,0.717l2.031-1.434H210.008z M207.141,354.912l-0.239-0.239l-0.717-0.956l-0.597-0.836l-2.031,1.553l0.597,0.836l0.717,0.836
	l0.239,0.239L207.141,354.912z M204.155,350.85l-0.478-0.717l-0.717-0.836l-0.358-0.478l-1.911,1.553l0.358,0.478l0.717,0.836
	l0.478,0.717l2.031-1.553H204.155z M201.049,346.908l-0.119-0.119l-0.717-0.836l-0.717-0.836l-0.239-0.239l-1.911,1.672l0.239,0.239
	l0.717,0.836l0.717,0.836l0.119,0.119l1.911-1.553V346.908z M197.824,342.966l-0.119-0.239l-0.717-0.717l-0.717-0.717l-0.119-0.119
	l-1.911,1.672l0.119,0.119l0.717,0.717l0.717,0.717l0.119,0.239L197.824,342.966z M194.479,339.143l-0.239-0.239l-0.717-0.717
	l-0.717-0.717l-0.239-0.239l-1.792,1.792l0.239,0.239l0.717,0.717l0.717,0.717l0.239,0.239l1.911-1.672L194.479,339.143z
	 M191.014,335.44l-0.119-0.119l-0.717-0.717l-0.717-0.717l-0.358-0.358l-1.792,1.792l0.358,0.358l0.717,0.717l0.717,0.717
	l0.119,0.119L191.014,335.44z M187.431,331.856l-0.478-0.478l-0.717-0.597l-0.597-0.597l-1.672,1.792l0.597,0.597l0.717,0.597
	l0.478,0.478L187.431,331.856z M183.727,328.392l-0.119-0.119l-0.717-0.597l-0.717-0.597l-0.358-0.358l-1.672,1.911l0.358,0.358
	l0.717,0.597l0.717,0.597l0.119,0.119L183.727,328.392z M179.905,325.047l-0.358-0.239l-0.717-0.597l-0.717-0.478l-0.239-0.239
	l-1.553,2.031l0.239,0.239l0.717,0.478l0.717,0.478l0.358,0.239L179.905,325.047z M175.963,321.941l-0.358-0.358l-0.717-0.478
	l-0.717-0.478l-0.358-0.239l-1.434,2.031l0.239,0.239l0.597,0.478l0.597,0.478l0.358,0.358l1.553-2.031H175.963z M171.901,318.955
	l-0.239-0.239l-0.717-0.478l-0.717-0.478l-0.478-0.358l-1.434,2.15l0.478,0.358l0.597,0.478l0.597,0.478l0.239,0.239l1.434-2.031
	L171.901,318.955z M167.72,316.088L167.72,316.088l-0.597-0.358l-0.597-0.358l-0.597-0.358l-0.239-0.119l-1.314,2.15l0.119,0.119
	l0.597,0.358l0.597,0.358l0.597,0.358l0,0l1.314-2.15H167.72z M163.42,313.46l-0.239-0.119l-0.597-0.358l-0.597-0.358l-0.597-0.358
	h-0.119l-1.195,2.15h0.119l0.597,0.358l0.597,0.358l0.597,0.358l0.239,0.119l1.314-2.15H163.42z M159,310.951l-0.239-0.119
	l-0.597-0.358l-0.597-0.358l-0.597-0.358l-0.119-0.119l-1.075,2.27l0.119,0.119l0.597,0.358l0.597,0.358l0.597,0.358l0.239,0.119
	l1.195-2.27H159z M154.46,308.681L154.46,308.681l-0.597-0.239l-0.597-0.239l-0.597-0.239l-0.478-0.239l-0.956,2.27l0.478,0.239
	l0.597,0.239l0.597,0.239l0.597,0.239l0,0l1.075-2.27H154.46z M149.801,306.65l-0.239-0.119l-0.597-0.239l-0.597-0.239l-0.597-0.239
	l-0.358-0.119l-0.836,2.389l0.358,0.119l0.597,0.239l0.597,0.239l0.597,0.239l0.239,0.119l0.956-2.389H149.801z M145.023,304.859
	l-0.119-0.119l-0.597-0.239l-0.597-0.239l-0.597-0.239l-0.478-0.119l-0.717,2.389l0.478,0.119l0.597,0.239l0.597,0.239l0.597,0.239
	l0.119,0.119l0.836-2.389H145.023z M140.125,303.306l-0.358-0.119l-0.597-0.119l-0.597-0.119l-0.597-0.119l-0.358-0.119
	l-0.597,2.389l0.358,0.119l0.478,0.119l0.478,0.119l0.478,0.119l0.358,0.119l0.717-2.389H140.125z M135.227,301.992l-0.239-0.119
	l-0.478-0.119l-0.478-0.119l-0.478-0.119l-0.478-0.119h-0.119l-0.478,2.509h0.119l0.478,0.119l0.478,0.119l0.478,0.119l0.478,0.119
	l0.239,0.119l0.597-2.509H135.227z M130.21,300.916l-0.358-0.119l-0.478-0.119l-0.478-0.119l-0.478-0.119l-0.478-0.119h-0.358
	l-0.358,2.509h0.239l0.478,0.119l0.478,0.119l0.478,0.119l0.478,0.119h0.358l0.478-2.509V300.916z M125.193,300.08h-0.358h-0.478
	h-0.478h-0.478h-0.478h-0.478h-0.119l-0.239,2.509h0.119h0.358h0.358h0.358h0.358h0.478h0.358l0.358-2.509H125.193z
	 M120.056,299.602h-0.119h-0.358h-0.358h-0.358h-0.358h-0.358h-0.358h-0.239l-0.119,2.509h0.239h0.358h0.358h0.358h0.358h0.358
	h0.358h0.119L120.056,299.602z M114.919,299.364h-0.239h-0.358h-0.239h-0.239h-0.239h-0.239h-0.239h-0.239h-0.239h-0.119
	l0.119,2.509h0.119h0.239h0.239h0.239h0.239h0.239h0.239h0.239h0.239h0.239V299.364z M109.783,299.602h-0.119h-0.119l0,0
	l-1.075-1.075l0,0l-0.478,0.478l-0.478,0.478l-0.478,0.478l-0.478,0.358l0.836,0.956l0.239,1.195l0,0l0,0l0,0l0,0l0,0l0,0l0,0l0,0
	h0.119h0.119h0.119h0.119h0.119h0.119h0.119h0.119h0.119h0.119h0.119h0.119h0.119h0.119h0.119h0.119h0.119h0.119h0.119l-0.119-1.553
	l0.119-0.119l0,0l-0.239-0.239v-0.478L109.783,299.602z M371.397,306.412L371.397,306.412L371.397,306.412l-0.956-0.358l-0.956,2.27
	l0.956,0.478l1.075,0.478l0.119,0.119l1.075-2.27l-0.119-0.119l-1.075-0.478l0,0L371.397,306.412z M369.366,304.859l-0.717-0.478
	l-1.314-0.956l-0.717,0.956l-0.597-0.239l-0.239-0.119l-0.836,2.389l0.119,0.119l1.075,0.478l1.075,0.478l0.239-0.717l0.358,0.239
	l1.553-2.031V304.859z M365.305,301.872l-0.956-0.597l-1.195-0.836l-1.434,2.031l0.358,0.239l-0.597-0.239l-0.597-0.239
	l-0.836,2.389l0.597,0.239l1.075,0.358l0.717,0.239l0.717-2.031l0.597,0.358l1.434-2.031L365.305,301.872z M361.243,299.005
	l-1.075-0.717l-0.956-0.717l-1.434,2.031l0.956,0.717l1.075,0.717L361.243,299.005z M357.062,296.138l-1.195-0.836l-0.956-0.597
	l-1.434,2.15l0.956,0.597l1.195,0.836L357.062,296.138z M352.881,293.391l-1.195-0.717l-0.956-0.597l-1.314,2.15l0.956,0.597
	l1.195,0.717L352.881,293.391z M348.581,290.643l-1.195-0.717l-0.956-0.597l-1.314,2.15l0.956,0.597l1.195,0.717L348.581,290.643z
	 M344.28,288.015l-1.075-0.597l-1.075-0.597l-1.314,2.15l1.075,0.597l1.075,0.597L344.28,288.015z M339.979,285.387l-0.956-0.478
	l-1.314-0.717l-1.195,2.15l1.314,0.717l0.956,0.478L339.979,285.387z M335.56,282.878l-0.717-0.358l-1.434-0.717l-0.119-0.119
	l-1.195,2.27l0.119,0.119l1.434,0.717l0.717,0.358l1.195-2.15V282.878z M331.14,280.489l-0.358-0.239l-1.434-0.717l-0.478-0.239
	l-1.195,2.27l0.478,0.239l1.314,0.717l0.358,0.239l1.195-2.27H331.14z M326.6,278.219h-0.119l-1.434-0.717l-0.836-0.358l-1.075,2.27
	l0.836,0.358l1.314,0.717h0.119l1.075-2.27H326.6z M322.061,275.95l-1.075-0.478l-1.314-0.597l-1.075,2.27l1.195,0.597l1.075,0.478
	l1.075-2.27H322.061z M317.521,273.799l-0.478-0.239l-1.314-0.597l-0.358-0.239l-0.956,2.27l0.358,0.119l1.314,0.597l0.597,0.239
	l1.075-2.27L317.521,273.799z M312.862,271.769l-1.314-0.597l-0.956-0.358l-0.956,2.27l0.956,0.358l1.314,0.597L312.862,271.769z
	 M308.203,269.857l-0.717-0.239l-1.314-0.478l-0.239-0.119l-0.956,2.389l0.239,0.119l1.314,0.478l0.717,0.239L308.203,269.857z
	 M303.545,267.946L303.545,267.946l-1.314-0.478l-0.956-0.358l-0.836,2.389l0.956,0.358l1.314,0.478l0,0l0.956-2.389H303.545z
	 M298.766,266.154l-0.597-0.239l-1.314-0.478l-0.478-0.119l-0.836,2.389l0.478,0.119l1.314,0.478l0.597,0.239L298.766,266.154z
	 M293.988,264.482l-1.075-0.358l-1.314-0.358l-0.717,2.389l1.314,0.358l1.075,0.358l0.836-2.389H293.988z M289.21,262.929
	l-0.239-0.119l-1.314-0.358l-0.836-0.239l-0.717,2.389l0.836,0.239l1.314,0.358l0.239,0.119L289.21,262.929z M284.312,261.495
	l-0.597-0.119l-1.314-0.358l-0.478-0.119l-0.597,2.389l0.478,0.119l1.314,0.358l0.597,0.119l0.717-2.389H284.312z M279.414,260.181
	l-0.836-0.239l-1.314-0.358l-0.239-0.119l-0.597,2.389l0.239,0.119l1.314,0.358l0.836,0.239L279.414,260.181z M274.516,258.986
	l-1.075-0.239l-1.314-0.239h-0.119l-0.478,2.509h0.119l1.314,0.239l1.075,0.239l0.597-2.509H274.516z M269.618,257.911l-1.195-0.239
	l-1.195-0.239l-0.478,2.509l1.195,0.239l1.195,0.239L269.618,257.911z M264.601,256.956L264.601,256.956l-1.195-0.239l-1.195-0.239
	l-0.358,2.509l1.195,0.239l1.195,0.239l0,0l0.478-2.509H264.601z M259.584,256.119L259.584,256.119l-1.195-0.239l-1.195-0.239
	l-0.358,2.509l1.195,0.119l1.195,0.239l0,0l0.358-2.509V256.119z M254.566,255.403l-1.195-0.119l-1.195-0.119h-0.119l-0.239,2.509
	h0.119l1.195,0.119l1.195,0.119l0.358-2.509H254.566z M249.549,254.805l-1.075-0.119l-1.195-0.119h-0.239l-0.239,2.509h0.239
	l1.195,0.119l1.075,0.119L249.549,254.805z M244.532,254.328l-0.836-0.119l-1.195-0.119h-0.478l-0.119,2.509h0.478l1.195,0.119
	l0.836,0.119l0.239-2.509H244.532z M239.515,253.969h-0.597h-1.195h-0.836l-0.119,2.509h0.717h1.195h0.597l0.119-2.509H239.515z
	 M234.497,253.73h-0.239h-1.195h-1.195v2.509h1.075h1.195h0.239v-2.509H234.497z M229.48,253.73h-0.956h-1.195h-0.358v2.509h0.358
	h1.195h0.956V253.73z M224.463,253.85h-0.478h-1.195h-0.836l0.119,2.509h0.836h1.075h0.478l-0.119-2.509H224.463z M219.446,254.089
	l-1.075,0.119l-1.075,0.119h-0.358l0.239,2.509h0.239l1.075-0.119l1.075-0.119L219.446,254.089z M214.428,254.447h-0.478
	l-1.075,0.119l-0.956,0.119l0.239,2.509l0.836-0.119l1.075-0.119h0.478l-0.239-2.509H214.428z M209.411,254.925l-0.956,0.119
	l-1.075,0.119l-0.478,0.119l0.358,2.509h0.478l1.075-0.119l0.956-0.119l-0.239-2.509L209.411,254.925z M204.394,255.522h-0.239
	l-1.075,0.119l-1.075,0.119h-0.119l0.358,2.509h0.119l1.075-0.119l1.075-0.119h0.239L204.394,255.522z M199.377,256.239
	l-0.597,0.119l-1.075,0.119l-0.836,0.119l0.478,2.509l0.836-0.119l1.075-0.119l0.597-0.119l-0.358-2.509H199.377z M194.359,257.075
	l-0.717,0.119l-1.075,0.239l-0.717,0.119l0.478,2.509l0.717-0.119l0.956-0.239l0.717-0.119l-0.478-2.509H194.359z M189.342,258.15
	l-0.956,0.239l-0.956,0.239l-0.478,0.119l0.597,2.509l0.478-0.119l0.956-0.239l0.956-0.239L189.342,258.15z M184.444,259.345
	L184.444,259.345l-0.956,0.239l-0.956,0.239l-0.478,0.119l0.597,2.389l0.478-0.119l0.956-0.239l0.956-0.239l0,0L184.444,259.345z
	 M179.546,260.659L179.546,260.659l-0.956,0.239l-0.956,0.239l-0.478,0.119l0.717,2.389l0.478-0.119l0.956-0.239l0.956-0.239l0,0
	L179.546,260.659z M174.649,262.092l-0.956,0.239l-0.956,0.239l-0.597,0.239l0.717,2.389l0.597-0.239l0.956-0.239l0.956-0.239
	L174.649,262.092z M169.87,263.645l-0.717,0.239l-0.956,0.358l-0.717,0.239l0.836,2.389l0.717-0.239l0.956-0.358l0.717-0.239
	L169.87,263.645z M165.092,265.318l-0.478,0.239l-0.836,0.358l-0.836,0.358h-0.119l0.956,2.389l0,0l0.836-0.358l0.836-0.358
	l0.478-0.239L165.092,265.318z M160.314,267.11l-0.239,0.119l-0.836,0.358l-0.836,0.358l-0.358,0.119l0.956,2.27l0.358-0.119
	l0.836-0.358l0.836-0.358l0.239-0.119l-0.956-2.389V267.11z M155.655,269.021l-0.717,0.358l-0.836,0.358l-0.717,0.358l1.075,2.27
	l0.717-0.358l0.836-0.358l0.717-0.358l-0.956-2.27H155.655z M150.996,271.052l-0.239,0.119l-0.836,0.358l-0.836,0.358l-0.358,0.239
	l1.075,2.27l0.358-0.239l0.836-0.358l0.836-0.358l0.239-0.119L150.996,271.052z M146.456,273.202l-0.478,0.239l-0.836,0.358
	l-0.836,0.358l-0.119,0.119l1.195,2.27l0.119-0.119l0.717-0.358l0.836-0.358l0.478-0.239L146.456,273.202z M141.917,275.472
	l-0.717,0.358l-0.717,0.358l-0.717,0.358l0,0l1.195,2.15l0,0l0.717-0.358l0.717-0.358l0.717-0.358l-1.195-2.27V275.472z
	 M137.497,277.861l-0.717,0.358l-0.717,0.358l-0.717,0.358l0,0l1.314,2.15l0,0l0.717-0.358l0.717-0.358l0.717-0.358l-1.195-2.15
	H137.497z M133.077,280.37l-0.597,0.358l-0.717,0.478l-0.717,0.478l-0.119,0.119l1.314,2.15l0.119-0.119l0.717-0.478l0.717-0.358
	l0.597-0.358l-1.314-2.15V280.37z M128.776,282.998l-0.358,0.239l-0.717,0.478l-0.717,0.478l-0.358,0.239l1.434,2.15l0.358-0.239
	l0.597-0.478l0.597-0.478l0.358-0.239l-1.314-2.15H128.776z M124.595,285.745h-0.119l-0.597,0.478l-0.597,0.478l-0.597,0.478
	l-0.119,0.119l1.434,2.031l0.119-0.119l0.597-0.478l0.597-0.478l0.597-0.478h0.119L124.595,285.745z M120.414,288.612l-0.239,0.119
	l-0.597,0.478l-0.597,0.478l-0.597,0.478h-0.119l1.553,2.031l0,0l0.597-0.478l0.597-0.478l0.597-0.478l0.239-0.119L120.414,288.612z
	 M116.353,291.718l-0.239,0.119l-0.597,0.478l-0.597,0.478l-0.597,0.478l-0.119,0.119l1.553,1.911l0.119-0.119l0.478-0.478
	l0.478-0.478l0.597-0.478l0.239-0.119l-1.553-2.031L116.353,291.718z M112.411,294.944l-0.478,0.358l-0.478,0.478l-0.478,0.478
	l-0.478,0.358l1.672,1.911l0.478-0.358l0.478-0.478l0.478-0.478l0.478-0.358L112.411,294.944z M379.998,309.279l-0.358-1.314
	l-0.119-0.239l-2.389,0.717l0.119,0.239l0.119,0.358l-0.956-0.478l-0.956-0.478l-1.075,2.27l0.956,0.478l1.075,0.597l0.119,0.119
	l0.956-1.911l0.119,0.478l2.389-0.717V309.279z M378.804,305.217l-0.358-1.314l-0.358-1.195l-2.389,0.717l0.358,1.195l0.358,1.314
	L378.804,305.217z M377.251,300.439l-0.119-0.358l-0.478-1.314l-0.239-0.836l-2.389,0.836l0.239,0.836l0.478,1.314l0.119,0.358
	L377.251,300.439z M375.578,295.66l-0.239-0.478l-0.478-1.195l-0.239-0.597l-2.389,0.836l0.239,0.597l0.478,1.195l0.239,0.597
	l2.389-0.836V295.66z M373.786,290.882l-0.239-0.717l-0.478-1.195l-0.239-0.478l-2.389,0.956l0.239,0.478l0.478,1.195l0.239,0.717
	L373.786,290.882z M371.875,286.223l-0.239-0.717l-0.478-1.195l-0.239-0.478l-2.27,0.956l0.239,0.478l0.478,1.195l0.239,0.717
	L371.875,286.223z M369.844,281.564l-0.239-0.597l-0.478-1.075l-0.239-0.478l-2.27,1.075l0.239,0.478l0.478,1.075l0.239,0.597
	L369.844,281.564z M367.694,276.905l-0.239-0.478l-0.478-1.075l-0.358-0.717l-2.27,1.075l0.358,0.717l0.478,1.075l0.239,0.478
	L367.694,276.905z M365.424,272.366l-0.119-0.239l-0.597-1.075l-0.478-0.956l-2.27,1.195l0.478,0.836l0.478,1.075l0.119,0.239
	l2.27-1.075H365.424z M363.035,267.826l-0.597-0.956l-0.597-1.075l-0.119-0.239l-2.15,1.195l0.119,0.119l0.597,0.956l0.597,0.956
	l2.15-1.195V267.826z M360.526,263.406l-0.358-0.597l-0.597-0.956l-0.358-0.597l-2.15,1.314l0.358,0.597l0.597,0.956l0.358,0.597
	L360.526,263.406z M357.898,259.106l-0.119-0.119l-0.597-0.956l-0.597-0.956l-0.119-0.119l-2.15,1.314v0.119l0.597,0.956
	l0.597,0.956l0.119,0.119l2.15-1.314H357.898z M355.151,254.805l-0.358-0.597l-0.597-0.956l-0.478-0.597l-2.031,1.434l0.478,0.597
	l0.597,0.956l0.358,0.597L355.151,254.805z M352.284,250.624l-0.597-0.836l-0.597-0.836l-0.239-0.358l-2.031,1.553l0.239,0.358
	l0.597,0.836l0.597,0.836l2.031-1.434V250.624z M349.297,246.563l-0.119-0.239l-0.597-0.836l-0.597-0.836l-0.119-0.119l-1.911,1.553
	l0.119,0.119l0.597,0.836l0.597,0.836l0.119,0.239l2.031-1.553H349.297z M346.191,242.621l-0.239-0.358l-0.597-0.836l-0.717-0.836
	l0,0l-1.911,1.672l0,0l0.597,0.717l0.597,0.836l0.239,0.358l1.911-1.553H346.191z M342.966,238.798l-0.358-0.358l-0.717-0.717
	l-0.717-0.717l0,0l-1.911,1.672l0,0l0.717,0.717l0.717,0.717l0.358,0.358L342.966,238.798z M339.502,235.095l-0.239-0.358
	l-0.717-0.717l-0.717-0.717l-0.119-0.119l-1.792,1.792l0.119,0.119l0.717,0.717l0.717,0.717l0.239,0.358l1.792-1.672V235.095z
	 M335.918,231.511l-0.239-0.239l-0.717-0.717l-0.717-0.717l-0.239-0.239l-1.672,1.792l0.239,0.239l0.717,0.717l0.717,0.717
	l0.239,0.239l1.792-1.792H335.918z M332.215,228.047L332.215,228.047l-0.717-0.597l-0.717-0.597l-0.478-0.358l-1.672,1.911
	l0.478,0.358l0.717,0.597l0.717,0.597l0,0L332.215,228.047z M328.392,224.702l-0.478-0.478l-0.717-0.597l-0.717-0.597l-1.553,1.911
	l0.717,0.597l0.717,0.597l0.478,0.478l1.672-1.911H328.392z M324.45,221.476l-0.239-0.119l-0.717-0.597l-0.717-0.597l-0.358-0.239
	l-1.434,2.031l0.358,0.239l0.717,0.597l0.717,0.597l0.239,0.119l1.553-2.031H324.45z M320.388,218.49l-0.478-0.358l-0.717-0.478
	l-0.717-0.478l-0.119-0.119l-1.434,2.031h0.119l0.717,0.478l0.717,0.478l0.478,0.358l1.434-2.031V218.49z M316.207,215.623
	L316.207,215.623l-0.717-0.478l-0.717-0.478l-0.597-0.358l-1.314,2.15l0.597,0.358l0.717,0.478l0.717,0.478l0,0L316.207,215.623z
	 M311.907,212.995l-0.239-0.119l-0.717-0.478l-0.717-0.478l-0.478-0.239l-1.195,2.15l0.478,0.239l0.717,0.478l0.717,0.478
	l0.239,0.119l1.314-2.15H311.907z M307.487,210.486l-0.239-0.119l-0.717-0.358l-0.717-0.358l-0.478-0.239l-1.075,2.27l0.478,0.239
	l0.717,0.358l0.717,0.358l0.239,0.119l1.195-2.27H307.487z M302.947,208.217l-0.239-0.119l-0.717-0.358l-0.717-0.358l-0.478-0.239
	l-0.956,2.27l0.478,0.239l0.717,0.358l0.717,0.358l0.239,0.119l1.075-2.27H302.947z M298.288,206.186l-0.239-0.119l-0.717-0.358
	l-0.717-0.358l-0.597-0.239l-0.956,2.389l0.597,0.239l0.717,0.239l0.717,0.358l0.239,0.119L298.288,206.186z M293.51,204.394
	L293.51,204.394l-0.717-0.239l-0.717-0.239l-0.717-0.239h-0.119l-0.717,2.389h0.119l0.717,0.239l0.717,0.239l0.717,0.239l0,0
	l0.836-2.389H293.51z M288.612,202.841l-0.478-0.119l-0.717-0.239l-0.717-0.239l-0.358-0.119l-0.717,2.389l0.358,0.119l0.717,0.239
	l0.717,0.239l0.478,0.119L288.612,202.841z M283.714,201.527h-0.239l-0.717-0.239l-0.717-0.239l-0.717-0.119l0,0l-0.478,2.509l0,0
	l0.717,0.119l0.717,0.119l0.717,0.239h0.239l0.597-2.389H283.714z M278.697,200.452l-0.478-0.119l-0.717-0.119l-0.717-0.119
	l-0.478-0.119l-0.358,2.509l0.478,0.119l0.717,0.119l0.717,0.119l0.478,0.119l0.478-2.509H278.697z M273.68,199.615l-0.717-0.119
	l-0.717-0.119l-0.717-0.119h-0.358l-0.239,2.509h0.358l0.717,0.119l0.717,0.119l0.717,0.119l0.358-2.509H273.68z M268.663,199.018
	h-0.119h-0.717h-0.717h-0.717h-0.239l-0.119,2.509h0.239h0.717h0.717h0.717h0.119l0.239-2.509H268.663z M263.526,198.779h-0.119
	h-0.717h-0.717h-0.717h-0.239v2.509h0.239h0.717h0.717h0.717h0.119V198.779z M258.389,198.779h-0.119h-0.717h-0.717h-0.717h-0.358
	l0.119,2.509h0.358h0.717h0.717h0.717h0.119L258.389,198.779z M253.252,199.138l-0.597,0.119l-0.717,0.119l-0.717,0.119
	l-0.478,0.119l0.358,2.509l0.478-0.119l0.717-0.119l0.717-0.119l0.597-0.119l-0.239-2.509H253.252z M248.235,199.735l-0.358,0.119
	l-0.717,0.119l-0.717,0.119l-0.717,0.119h-0.119l0.478,2.509h0.119l0.597-0.119l0.597-0.119l0.597-0.119l0.358-0.119l-0.358-2.509
	H248.235z M243.218,200.691L243.218,200.691l-0.597,0.119l-0.597,0.119l-0.597,0.119l-0.478,0.119l0.597,2.389l0.478-0.119
	l0.597-0.119l0.597-0.119l0.597-0.119l0,0l-0.597-2.509V200.691z M238.32,202.005l-0.239,0.119l-0.597,0.239l-0.597,0.239
	l-0.597,0.239l-0.239,0.119l0.836,2.389l0.239-0.119l0.597-0.239l0.597-0.239l0.597-0.239l0.239-0.119l-0.717-2.389H238.32z
	 M233.422,203.677l-0.358,0.119l-0.597,0.239l-0.597,0.239l-0.597,0.239l-0.239,0.119l1.075,2.27l0.119-0.119l0.597-0.239
	l0.597-0.239l0.597-0.239l0.358-0.119l-0.956-2.389V203.677z M228.763,205.708l-0.358,0.239l-0.597,0.239l-0.597,0.239l-0.597,0.239
	l-0.119,0.119l1.195,2.27l0.119-0.119l0.597-0.239l0.597-0.239l0.597-0.239l0.358-0.239l-1.075-2.27H228.763z M224.224,208.097
	l-0.358,0.239l-0.597,0.358l-0.597,0.358l-0.478,0.358l-0.239,0.119l1.434,2.15l0.239-0.119l0.478-0.358l0.478-0.358l0.478-0.358
	l0.358-0.239l-1.314-2.15H224.224z M219.923,210.845l-0.239,0.119l-0.478,0.358l-0.478,0.358l-0.478,0.358l-0.358,0.239l1.553,2.031
	l0.358-0.239l0.478-0.358l0.478-0.358l0.478-0.358l0.239-0.119l-1.434-2.031H219.923z M215.862,214.07l-0.119,0.119l-0.478,0.358
	l-0.478,0.358l-0.478,0.358l-0.239,0.239l0.239-0.597l-0.119-0.119l-1.195-0.597l-0.956-0.478l-1.075,2.27l0.956,0.478l1.075,0.597
	l0.119,0.119l0.717-1.434l1.672,1.792l0.478-0.358l0.478-0.358l0.478-0.358l0.478-0.358l0.119-0.119L215.862,214.07z
	 M209.889,212.875l-0.119-0.119l-1.075-0.478l-1.075-0.478l-0.956,2.27l0.956,0.358v0.119v0.119v0.119v0.119v0.119v0.119v0.119
	v0.119v0.119v0.119l0,0l0,0l0,0l0,0l0,0l2.509,0.478l0,0l0,0l0,0l0,0v-0.119l0,0v-0.119v-0.119v-0.119v-0.119v-0.119v-0.119v-0.119
	v-0.119v-0.119v-0.119v-0.239v-0.239v-0.239v-0.239v-0.119l-0.717-0.239l0.358-0.836L209.889,212.875z M205.23,210.845l-1.075-0.478
	l-1.075-0.478l-0.239-0.119l-0.836,2.389l0.119,0.119l1.075,0.478l1.075,0.478L205.23,210.845z M200.452,209.053l-0.717-0.239
	l-1.075-0.358l-0.597-0.239l-0.836,2.389l0.597,0.239l1.075,0.358l0.717,0.239L200.452,209.053z M195.673,207.5h-0.119l-1.075-0.358
	l-1.075-0.239l-0.239-0.119l-0.597,2.389l0.239,0.119l0.956,0.239l1.075,0.358h0.119L195.673,207.5z M190.776,206.186l-0.358-0.119
	l-1.075-0.239l-0.956-0.239h-0.119l-0.478,2.509l0,0l0.956,0.239l0.956,0.239l0.358,0.119l0.597-2.389L190.776,206.186z
	 M185.758,205.111l-0.478-0.119l-0.956-0.119l-0.956-0.119h-0.119l-0.358,2.509h0.119l0.956,0.119l0.956,0.119l0.478,0.119
	l0.478-2.509H185.758z M180.741,204.394h-0.239l-0.956-0.119l-0.956-0.119h-0.358l-0.119,2.509h0.358l0.956,0.119l0.956,0.119h0.239
	l0.239-2.509H180.741z M175.604,204.035h-0.836h-0.956h-0.836v2.509h0.717h0.836h0.836l0.119-2.509H175.604z M170.468,204.035
	h-0.239h-0.956h-0.836h-0.478l0.239,2.509h0.478h0.836h0.836h0.239L170.468,204.035z M165.331,204.394h-0.478l-0.836,0.119
	l-0.836,0.119h-0.358l0.358,2.509h0.358l0.836-0.119l0.836-0.119h0.478L165.331,204.394z M160.314,205.23l-0.478,0.119L159,205.469
	l-0.836,0.239l-0.358,0.119l0.597,2.389l0.358-0.119l0.836-0.239l0.836-0.119l0.478-0.119l-0.478-2.509L160.314,205.23z
	 M155.296,206.425l-0.358,0.119l-0.836,0.239l-0.836,0.239l-0.478,0.119l0.836,2.389l0.478-0.119l0.717-0.239l0.717-0.239
	l0.358-0.119l-0.717-2.389H155.296z M150.399,207.978l-0.239,0.119l-0.717,0.239l-0.717,0.358l-0.717,0.239l0.956,2.27l0.597-0.239
	l0.717-0.239l0.717-0.239l0.239-0.119L150.399,207.978z M145.62,210.008l-0.717,0.358l-0.717,0.358l-0.717,0.358l-0.119,0.119
	l1.195,2.27l0.119-0.119l0.717-0.358l0.717-0.358l0.717-0.358l-1.075-2.27H145.62z M141.081,212.398l-0.358,0.239l-0.717,0.358
	l-0.717,0.358l-0.478,0.239l1.314,2.15l0.358-0.239l0.717-0.358l0.717-0.358l0.358-0.239l-1.314-2.15H141.081z M136.78,215.145
	l-0.119,0.119l-0.717,0.478l-0.597,0.478l-0.597,0.478l0,0l1.553,2.031l0,0l0.597-0.478l0.597-0.478l0.597-0.478l0.119-0.119
	L136.78,215.145z M132.599,218.132l-0.478,0.358l-0.597,0.478l-0.597,0.478l-0.358,0.239l1.672,1.911l0.239-0.239l0.597-0.478
	l0.597-0.478l0.478-0.358l-1.553-2.031V218.132z M128.657,221.357l-0.119,0.119l-0.597,0.478l-0.597,0.478l-0.597,0.478l1.672,1.792
	l0.478-0.478l0.597-0.478l0.597-0.478l0.119-0.119l-1.672-1.911L128.657,221.357z M124.954,224.821l-0.478,0.478l-0.597,0.597
	l-0.597,0.597l-0.239,0.239l1.792,1.672l0.239-0.239l0.478-0.597l0.597-0.597l0.478-0.478l-1.792-1.792L124.954,224.821z
	 M121.49,228.525l-0.239,0.239l-0.478,0.597l-0.478,0.597l-0.478,0.478l1.911,1.672l0.358-0.478l0.478-0.597l0.478-0.597
	l0.239-0.239l-1.911-1.672H121.49z M118.145,232.347l-0.478,0.597l-0.478,0.597l-0.478,0.597l-0.119,0.119l2.031,1.553l0.119-0.119
	l0.478-0.597l0.478-0.597l0.478-0.597l-1.911-1.553H118.145z M115.039,236.409l-0.239,0.358l-0.478,0.597l-0.478,0.597l-0.358,0.478
	l2.031,1.434l0.358-0.478l0.478-0.597l0.478-0.597l0.239-0.358L115.039,236.409z M112.052,240.59l-0.478,0.597l-0.478,0.597
	l-0.478,0.597l-0.119,0.239l2.15,1.314l0.119-0.119l0.478-0.597l0.478-0.597l0.478-0.597l-2.031-1.434H112.052z M109.305,244.89
	l-0.239,0.239l-0.358,0.597l-0.358,0.597l-0.358,0.597l2.15,1.314l0.358-0.597l0.358-0.597l0.358-0.597l0.239-0.239L109.305,244.89z
	 M106.677,249.191l-0.358,0.478l-0.358,0.717l-0.358,0.717l-0.239,0.358l2.15,1.195l0.239-0.358l0.358-0.597l0.358-0.597
	l0.358-0.478l-2.15-1.195V249.191z M104.168,253.611L104.168,253.611l-0.358,0.717l-0.358,0.597l-0.358,0.717l-0.119,0.239
	l2.27,1.195l0.119-0.239l0.358-0.597l0.358-0.597l0.358-0.597l0,0l-2.27-1.195V253.611z M101.898,258.15l-0.119,0.119l-0.358,0.597
	l-0.358,0.597l-0.358,0.597l-0.119,0.239l2.27,1.075l0.119-0.239l0.358-0.597l0.358-0.597l0.358-0.597l0.119-0.119L101.898,258.15z
	 M99.748,262.69v0.119l-0.239,0.597l-0.239,0.597l-0.239,0.597l-0.119,0.358l2.27,0.956l0.119-0.239l0.239-0.597l0.239-0.597
	l0.239-0.597v-0.119L99.748,262.69z M97.717,267.349l-0.239,0.478l-0.239,0.597L97,269.021l-0.239,0.597l2.27,0.956l0.239-0.597
	l0.239-0.597l0.239-0.597l0.239-0.478L97.717,267.349z M95.806,272.007v0.119l-0.239,0.597l-0.239,0.597l-0.239,0.597l-0.239,0.478
	l2.389,0.836l0.239-0.478l0.239-0.597l0.239-0.597l0.239-0.597v-0.119l-2.389-0.956V272.007z M94.014,276.786L94.014,276.786
	l-0.239,0.597l-0.239,0.597l-0.239,0.597l-0.239,0.597v0.119l2.389,0.836v-0.119l0.239-0.597l0.239-0.597l0.239-0.597l0.239-0.597
	l0,0L94.014,276.786z M92.342,281.564v0.119l-0.119,0.478l-0.119,0.478l-0.119,0.478l-0.119,0.478l-0.119,0.239l2.389,0.717
	l0.119-0.239l0.119-0.478l0.119-0.478l0.119-0.478l0.119-0.478v-0.119l-2.389-0.836V281.564z M90.789,286.343l-0.119,0.239
	l-0.119,0.478l-0.119,0.478l-0.119,0.478l-0.119,0.478l-0.119,0.478l0,0l2.389,0.717l0,0l0.119-0.478l0.119-0.478l0.119-0.478
	l0.119-0.478l0.119-0.478l0.119-0.239L90.789,286.343z M89.355,291.24l-0.119,0.358l-0.119,0.358l-0.119,0.358l-0.119,0.358
	l-0.119,0.358l-0.119,0.358l-0.119,0.358v0.119l2.389,0.597v-0.119l0.119-0.358l0.119-0.358l0.119-0.358l0.119-0.358l0.119-0.358
	l0.119-0.358l0.119-0.358l-2.389-0.717V291.24z M88.041,296.138v0.119v0.239v0.239v0.239v0.239v0.239v0.119v0.119v0.119v0.119v0.119
	v0.119v0.119v0.119v0.119v0.119l0,0l0,0l0,0l0,0l0,0l2.509,0.478l0,0l0,0l0,0l0,0v-0.119l0,0v-0.119v-0.119v-0.119v-0.119v-0.119
	v-0.119v-0.119v-0.119v-0.119v-0.119v-0.239v-0.239v-0.239v-0.239v-0.119l-2.389-0.597H88.041z M334.007,132.719l0.478-2.389h-0.239
	l-1.314-0.239l-0.358,1.911l-0.597-0.358l-1.075,2.27l0.956,0.478l1.075,0.597l0.119,0.119l1.195-2.27l-0.119-0.119H334.007z
	 M336.396,133.196l1.075,0.239l1.195,0.239h0.119l0.597-2.509h-0.239l-1.195-0.239l-1.075-0.239L336.396,133.196z M341.294,134.272
	l0.956,0.239l1.195,0.239l0.358,0.119l0.717-2.389l-0.358-0.119l-1.195-0.358l-0.956-0.239l-0.597,2.389L341.294,134.272z
	 M346.072,135.586l0.597,0.239l1.075,0.358l0.597,0.239l0.836-2.389l-0.717-0.239l-1.075-0.358l-0.597-0.239L346.072,135.586z
	 M350.85,137.139h0.119l1.075,0.358l1.075,0.358h0.119l0.956-2.389h-0.119L353,135.108l-1.075-0.358h-0.119l-0.836,2.389H350.85z
	 M355.509,138.93l0.597,0.239l0.956,0.478l0.717,0.358l1.075-2.27l-0.717-0.358l-0.956-0.478l-0.597-0.239l-0.956,2.27H355.509z
	 M360.049,140.961l0.836,0.358l0.956,0.478l0.478,0.239l1.195-2.15l-0.597-0.239l-0.956-0.478l-0.836-0.358l-1.195,2.27
	L360.049,140.961z M364.349,143.35l0.836,0.478l0.836,0.478l0.478,0.239l1.434-2.15l-0.478-0.358l-0.836-0.597l-0.836-0.478
	l-1.314,2.15L364.349,143.35z M368.53,145.979l0.717,0.478l0.836,0.597l0.478,0.358l1.553-2.031l-0.478-0.358l-0.836-0.597
	l-0.717-0.478l-1.434,2.031H368.53z M372.472,148.965l0.478,0.478l0.717,0.597l0.597,0.597l1.672-1.911l-0.717-0.597l-0.717-0.597
	l-0.478-0.478L372.472,148.965z M376.175,152.19l0.239,0.239l0.717,0.597l0.597,0.597l0.119,0.119l1.792-1.792l-0.239-0.239
	l-0.717-0.717l-0.717-0.717l-0.239-0.239l-1.792,1.792L376.175,152.19z M379.64,155.655L379.64,155.655l0.597,0.717l0.597,0.717
	l0.358,0.478l1.911-1.672l-0.478-0.478l-0.597-0.717l-0.597-0.717l0,0l-1.911,1.672H379.64z M382.865,159.358l0.358,0.358
	l0.597,0.717l0.478,0.717l0.119,0.119l2.031-1.434l-0.119-0.119L385.732,159l-0.597-0.717l-0.358-0.358l-2.031,1.553
	L382.865,159.358z M385.732,163.3L385.732,163.3l0.478,0.717l0.478,0.717l0.358,0.597l2.15-1.314l-0.358-0.597l-0.478-0.717
	l-0.478-0.717l0,0l-2.031,1.434L385.732,163.3z M388.36,167.481l0.239,0.358l0.478,0.717l0.478,0.836l0.119,0.239l2.27-1.195
	l-0.119-0.239l-0.478-0.836l-0.478-0.836l-0.239-0.358l-2.15,1.195L388.36,167.481z M390.749,171.782l0.358,0.717l0.358,0.836
	l0.358,0.717l2.27-1.075l-0.358-0.717l-0.358-0.836l-0.358-0.717L390.749,171.782z M392.78,176.321l0.119,0.358l0.358,0.836
	l0.358,0.836l0.119,0.358l2.389-0.836l-0.119-0.358l-0.358-0.836l-0.358-0.836l-0.119-0.358l-2.27,0.956L392.78,176.321z
	 M394.572,180.98l0.239,0.717l0.239,0.836l0.239,0.717l2.389-0.717l-0.239-0.836l-0.358-0.836l-0.239-0.717l-2.389,0.836H394.572z
	 M396.125,185.758l0.119,0.358l0.239,0.836l0.239,0.836l0.119,0.358l2.389-0.597l-0.119-0.358l-0.239-0.836l-0.239-0.836
	l-0.119-0.358l-2.389,0.717V185.758z M397.439,190.537l0.239,0.717l0.239,0.836l0.119,0.717l2.509-0.478l-0.239-0.836l-0.239-0.956
	l-0.239-0.717l-2.509,0.597L397.439,190.537z M398.514,195.434l0.119,0.358l0.119,0.836l0.119,0.956v0.239l2.509-0.358v-0.358
	l-0.119-0.956l-0.119-0.956l-0.119-0.358l-2.509,0.478V195.434z M399.35,200.332l0.119,0.836l0.119,0.956l0.119,0.717l2.509-0.358
	l-0.119-0.717l-0.119-0.956l-0.119-0.836L399.35,200.332z M399.948,205.23v0.478l0.119,0.956l0.119,0.956v0.239l2.509-0.239v-0.239
	l-0.119-0.956l-0.119-0.956v-0.478L399.948,205.23z M400.426,210.247v0.119l0.119,0.956l0.119,0.956v0.597l2.509-0.119v-0.597
	l-0.119-0.956l-0.119-0.956v-0.119l-2.509,0.239V210.247z M400.784,215.265v0.597v0.956v0.956v0.119h2.509v-0.119v-0.956v-0.956
	v-0.597l-2.509,0.119V215.265z M400.903,220.282v0.119v0.956v0.956v0.478h2.509v-0.478v-0.956v-0.956v-0.119H400.903z
	 M400.903,225.299v0.597v0.956v0.956l0,0l2.509,0.119l0,0v-0.956v-0.956v-0.597h-2.509V225.299z M400.784,230.316v0.119v0.956v0.956
	v0.478l2.509,0.119v-0.597v-0.956v-0.956v-0.119l-2.509-0.119V230.316z M400.545,235.334v0.597l-0.119,0.836l-0.119,0.836v0.239
	l2.509,0.239v-0.239l0.119-0.836l0.119-0.956v-0.597L400.545,235.334z M400.187,240.351l-0.119,0.836l-0.119,0.836l-0.119,0.836
	l2.509,0.239l0.119-0.836l0.119-0.836l0.119-0.836L400.187,240.351z M399.709,245.368v0.119l-0.119,0.836l-0.119,0.836l-0.119,0.597
	l2.509,0.358l0.119-0.597l0.119-0.836l0.119-0.836v-0.119l-2.509-0.239V245.368z M399.112,250.385v0.239l-0.119,0.836l-0.119,0.836
	l-0.119,0.597l2.509,0.358l0.119-0.597l0.119-0.836l0.119-0.836v-0.239L399.112,250.385z M398.395,255.283v0.239l-0.119,0.836
	l-0.119,0.836l-0.119,0.597l2.509,0.358l0.119-0.597l0.119-0.836l0.119-0.836v-0.239L398.395,255.283z M397.559,260.181
	L397.559,260.181l-0.119,0.717l-0.119,0.717l-0.119,0.717v0.119l2.509,0.478v-0.119l0.119-0.717l0.119-0.717l0.119-0.836l0,0
	l-2.509-0.478V260.181z M396.603,265.079l-0.119,0.358l-0.119,0.717l-0.119,0.717l-0.119,0.597l2.509,0.478l0.119-0.597l0.119-0.717
	l0.119-0.717l0.119-0.358L396.603,265.079z M395.647,269.977l-0.119,0.478l-0.119,0.717l-0.119,0.717l-0.119,0.597l2.509,0.597
	l0.119-0.597l0.119-0.717l0.119-0.717l0.119-0.478l-2.509-0.478V269.977z M394.572,274.874l-0.119,0.239l-0.119,0.597l-0.119,0.597
	l-0.119,0.597l-0.119,0.239l2.389,0.597l0.119-0.239l0.119-0.597l0.119-0.597l0.119-0.597l0.119-0.239l-2.509-0.597H394.572z
	 M393.378,279.772l-0.119,0.239l-0.119,0.597l-0.119,0.597l-0.119,0.597l-0.119,0.478l2.389,0.597l0.119-0.478l0.119-0.597
	l0.119-0.597l0.119-0.597l0.119-0.239L393.378,279.772z M392.063,284.67l-0.119,0.239l-0.119,0.478l-0.119,0.478l-0.119,0.478
	l-0.119,0.478l-0.119,0.239l2.389,0.717v-0.239l0.119-0.478l0.119-0.478l0.119-0.478l0.119-0.478l0.119-0.239l-2.389-0.717H392.063z
	 M390.749,289.448l-0.119,0.358l-0.119,0.358l-0.119,0.358l-0.119,0.358l-0.119,0.358l-0.119,0.358v0.239l2.389,0.717v-0.239
	l0.119-0.358l0.119-0.358l0.119-0.358l0.119-0.358l0.119-0.358l0.119-0.358L390.749,289.448z M389.316,294.227L389.316,294.227
	l-0.119,0.239l-0.119,0.239l-0.119,0.239l-0.119,0.239l-0.119,0.239v0.119v0.119v0.119v0.119v0.119v0.119v0.119v0.119v0.119l0,0
	v0.119l0,0l0,0l0,0l2.389,0.836l0,0l0,0l0,0l0,0v-0.119v-0.119v-0.119v-0.119v-0.119v-0.119v-0.119v-0.119v-0.119l0.119-0.119
	l0.119-0.239l0.119-0.239l0.119-0.239l0.119-0.239l0.119-0.239l0,0l-2.389-0.836H389.316z M330.184,130.688l-0.119-0.119
	l-1.075-0.478l-1.075-0.478l-0.956,2.27l0.956,0.478l1.075,0.478l0.119,0.119L330.184,130.688z M325.525,128.657l-1.075-0.478
	l-1.075-0.478l-0.239-0.119l-0.836,2.389l0.119,0.119l1.075,0.478l1.075,0.478L325.525,128.657z M320.747,126.865l-0.717-0.239
	l-1.075-0.358l-0.597-0.239l-0.836,2.389l0.597,0.239l1.075,0.358l0.717,0.239L320.747,126.865z M315.968,125.312h-0.119
	l-1.075-0.358l-1.075-0.239l-0.239-0.119l-0.597,2.389l0.239,0.119l0.956,0.239l1.075,0.358h0.119L315.968,125.312z M311.07,123.998
	l-0.358-0.119l-1.075-0.239l-0.956-0.239h-0.119l-0.478,2.509l0,0l0.956,0.239l0.956,0.239l0.358,0.119l0.597-2.389L311.07,123.998z
	 M306.053,122.923l-0.478-0.119l-0.956-0.119l-0.956-0.119h-0.119l-0.358,2.509h0.119l0.956,0.119l0.956,0.119l0.478,0.119
	l0.478-2.509H306.053z M301.036,122.206h-0.239l-0.956-0.119l-0.956-0.119h-0.358l-0.119,2.509h0.358l0.956,0.119l0.956,0.119h0.239
	l0.239-2.509H301.036z M295.899,121.848h-0.836h-0.956h-0.836v2.509h0.717h0.836h0.836l0.119-2.509H295.899z M290.762,121.848
	h-0.239h-0.956h-0.836h-0.478l0.239,2.509h0.478h0.836h0.836h0.239L290.762,121.848z M285.626,122.206h-0.478l-0.836,0.119
	l-0.836,0.119h-0.358l0.358,2.509h0.358l0.836-0.119l0.836-0.119h0.478L285.626,122.206z M280.608,123.042l-0.478,0.119
	l-0.836,0.119l-0.836,0.239l-0.358,0.119l0.597,2.389l0.358-0.119l0.836-0.119l0.836-0.119l0.478-0.119l-0.478-2.509H280.608z
	 M275.591,124.237l-0.358,0.119l-0.836,0.239l-0.836,0.239l-0.478,0.119l0.836,2.389l0.478-0.119l0.717-0.239l0.717-0.239
	l0.358-0.119l-0.717-2.389H275.591z M270.693,125.79l-0.239,0.119l-0.717,0.239l-0.717,0.358l-0.717,0.239l0.956,2.27l0.597-0.239
	l0.717-0.239l0.717-0.239l0.239-0.119L270.693,125.79z M265.915,127.821l-0.717,0.358l-0.717,0.358l-0.717,0.358l-0.119,0.119
	l1.195,2.27l0.119-0.119l0.717-0.358l0.717-0.358l0.717-0.358l-1.075-2.27H265.915z M261.376,130.21l-0.358,0.239l-0.717,0.358
	l-0.717,0.358l-0.478,0.239l1.314,2.15l0.358-0.239l0.597-0.358l0.717-0.358l0.358-0.239l-1.314-2.15H261.376z M257.075,132.958
	l-0.119,0.119l-0.597,0.478l-0.597,0.478l-0.597,0.478l0,0l1.553,2.031l0,0l0.597-0.478l0.597-0.478l0.597-0.478l0.119-0.119
	l-1.434-2.031H257.075z M252.894,135.944l-0.478,0.358l-0.597,0.478l-0.597,0.478l-0.358,0.239l1.672,1.911l0.239-0.239l0.597-0.478
	l0.597-0.478l0.478-0.358l-1.553-2.031V135.944z M248.952,139.169l-0.119,0.119l-0.597,0.478l-0.597,0.478l-0.597,0.478l1.672,1.792
	l0.478-0.478l0.597-0.478l0.597-0.478l0.119-0.119l-1.672-1.911L248.952,139.169z M245.249,142.634l-0.478,0.478l-0.597,0.597
	l-0.597,0.597l-0.239,0.239l1.792,1.672l0.239-0.239l0.478-0.597l0.597-0.597l0.478-0.478l-1.792-1.792L245.249,142.634z
	 M241.784,146.337l-0.239,0.239l-0.478,0.597l-0.478,0.597l-0.478,0.478l1.911,1.672l0.358-0.478l0.478-0.597l0.478-0.597
	l0.239-0.239l-1.911-1.672H241.784z M238.44,150.16l-0.478,0.597l-0.478,0.597l-0.478,0.597l-0.119,0.119l2.031,1.553l0.119-0.119
	l0.478-0.597l0.478-0.597l0.478-0.597l-1.911-1.553H238.44z M235.334,154.221l-0.239,0.358l-0.478,0.597l-0.478,0.597l-0.358,0.478
	l2.031,1.434l0.358-0.478l0.478-0.597l0.478-0.597l0.239-0.358L235.334,154.221z M232.347,158.402L231.869,159l-0.478,0.597
	l-0.478,0.597l-0.119,0.239l2.15,1.314l0.119-0.119l0.478-0.597l0.478-0.597l0.478-0.597l-2.031-1.434H232.347z M229.6,162.703
	l-0.239,0.239l-0.358,0.597l-0.358,0.717l-0.358,0.597l2.15,1.314l0.358-0.597l0.358-0.597l0.358-0.597l0.239-0.239l-2.15-1.314
	V162.703z M226.972,167.003l-0.358,0.478l-0.358,0.597l-0.358,0.717l-0.239,0.358l2.15,1.195l0.239-0.358l0.358-0.597l0.358-0.597
	l0.358-0.478l-2.15-1.195V167.003z M224.463,171.423L224.463,171.423l-0.358,0.597l-0.358,0.717l-0.358,0.597l-0.119,0.239
	l2.27,1.195l0.119-0.239l0.358-0.597l0.358-0.597l0.358-0.597l0,0l-2.27-1.195V171.423z M222.193,175.963l-0.119,0.119l-0.358,0.597
	l-0.358,0.597l-0.358,0.597l-0.119,0.239l2.27,1.075l0.119-0.239l0.358-0.597l0.358-0.597l0.358-0.597l0.119-0.119L222.193,175.963z
	 M220.043,180.502v0.119l-0.239,0.597l-0.239,0.597l-0.239,0.597l-0.119,0.358l2.27,0.956l0.119-0.239l0.239-0.597l0.239-0.597
	l0.239-0.597v-0.119L220.043,180.502z M218.012,185.161l-0.239,0.478l-0.239,0.597l-0.239,0.597l-0.239,0.597l2.27,0.956
	l0.239-0.597l0.239-0.597l0.239-0.597l0.239-0.478L218.012,185.161z M216.101,189.82v0.119l-0.239,0.597l-0.239,0.597l-0.239,0.597
	l-0.239,0.478l2.389,0.836l0.239-0.478l0.239-0.597l0.239-0.597l0.239-0.597v-0.119l-2.389-0.956V189.82z M214.309,194.598
	L214.309,194.598l-0.239,0.597l-0.239,0.597l-0.239,0.597l-0.239,0.597v0.119l2.389,0.836v-0.119l0.239-0.597l0.239-0.597
	l0.239-0.597l0.239-0.597l0,0L214.309,194.598z M212.636,199.377v0.119l-0.119,0.478l-0.119,0.478l-0.119,0.478l-0.119,0.478
	l-0.119,0.239l2.389,0.717l0.119-0.239l0.119-0.478l0.119-0.478l0.119-0.478l0.119-0.478v-0.119l-2.389-0.836V199.377z
	 M211.084,204.155l-0.119,0.239l-0.119,0.478l-0.119,0.478l-0.119,0.478l-0.119,0.478l-0.119,0.478l0,0l2.389,0.717l0,0l0.119-0.358
	l0.119-0.478l0.119-0.478l0.119-0.478l0.119-0.478l0.119-0.239l-2.389-0.717V204.155z M209.65,209.053l-0.119,0.358l-0.119,0.358
	l-0.119,0.358l-0.119,0.358l-0.119,0.358l-0.119,0.358l-0.119,0.358v0.119l2.389,0.597v-0.119l0.119-0.358l0.119-0.358l0.119-0.358
	l0.119-0.358l0.119-0.358l0.119-0.358l0.119-0.358l-2.389-0.717V209.053z M358.854,302.35h-0.119l-1.075-0.358l-1.075-0.239
	l-0.239-0.119l-0.597,2.389l0.239,0.119l0.956,0.239l1.075,0.358h0.119L358.854,302.35z M353.956,301.036l-0.358-0.119l-1.075-0.239
	l-0.956-0.239h-0.119l-0.478,2.509l0,0l0.956,0.239l0.956,0.239l0.358,0.119l0.597-2.389L353.956,301.036z M348.939,299.961
	l-0.478-0.119l-0.956-0.119l-0.956-0.119h-0.119l-0.358,2.509h0.119l0.956,0.119l0.956,0.119l0.478,0.119l0.478-2.509H348.939z
	 M343.922,299.244h-0.239l-0.956-0.119l-0.956-0.119h-0.358l-0.119,2.509h0.358l0.956,0.119l0.956,0.119h0.239l0.239-2.509H343.922z
	 M338.785,298.886h-0.836h-0.956h-0.836v2.509h0.717h0.836h0.836l0.119-2.509H338.785z M333.648,298.886h-0.239h-0.956h-0.836
	h-0.478l0.239,2.509h0.478h0.836h0.836h0.239L333.648,298.886z M328.511,299.244h-0.478l-0.836,0.119l-0.836,0.119h-0.358
	l0.358,2.509h0.358l0.836-0.119l0.836-0.119h0.478L328.511,299.244z M323.494,300.08l-0.478,0.119l-0.836,0.119l-0.836,0.239
	l-0.358,0.119l0.597,2.389l0.358-0.119l0.836-0.119l0.836-0.119l0.478-0.119l-0.478-2.509H323.494z M318.477,301.275l-0.358,0.119
	l-0.836,0.239l-0.836,0.239l-0.478,0.119l0.836,2.389l0.478-0.119l0.717-0.239l0.717-0.239l0.358-0.119l-0.717-2.389H318.477z
	 M313.579,302.828l-0.239,0.119l-0.717,0.239l-0.717,0.358l-0.717,0.239l0.956,2.27l0.597-0.239l0.717-0.239l0.717-0.239
	l0.239-0.119L313.579,302.828z M308.801,304.859l-0.717,0.358l-0.717,0.358l-0.717,0.358l-0.119,0.119l1.195,2.27l0.119-0.119
	l0.717-0.358l0.717-0.358l0.717-0.358l-1.075-2.27H308.801z M304.261,307.248l-0.358,0.239l-0.717,0.358l-0.717,0.358l-0.478,0.239
	l1.314,2.15l0.358-0.239l0.717-0.358l0.717-0.358l0.358-0.239l-1.314-2.15H304.261z M299.961,309.995l-0.119,0.119l-0.717,0.478
	l-0.597,0.478l-0.597,0.478l0,0l1.553,2.031l0,0l0.597-0.478l0.597-0.478l0.597-0.478l0.119-0.119L299.961,309.995z M295.78,312.982
	l-0.478,0.358l-0.597,0.478l-0.597,0.478l-0.358,0.239l1.672,1.911l0.239-0.239l0.597-0.478l0.597-0.478l0.478-0.358l-1.553-2.031
	V312.982z M291.838,316.207l-0.119,0.119l-0.597,0.478l-0.597,0.478l-0.597,0.478l1.672,1.792l0.478-0.478l0.597-0.478l0.597-0.478
	l0.119-0.119l-1.672-1.911L291.838,316.207z M288.134,319.672l-0.478,0.478l-0.597,0.597l-0.597,0.597l-0.239,0.239l1.792,1.672
	l0.239-0.239l0.478-0.597l0.597-0.597l0.478-0.478l-1.792-1.792L288.134,319.672z M284.67,323.375l-0.239,0.239l-0.478,0.597
	l-0.478,0.597l-0.478,0.478l1.911,1.672l0.358-0.478l0.478-0.597l0.478-0.597l0.239-0.239l-1.911-1.672H284.67z M281.325,327.197
	l-0.478,0.597l-0.478,0.597l-0.478,0.597l-0.119,0.119l2.031,1.553l0.119-0.119l0.478-0.597l0.478-0.597l0.478-0.597l-1.911-1.553
	H281.325z M278.219,331.259l-0.239,0.358l-0.478,0.597l-0.478,0.597l-0.358,0.478l2.031,1.434l0.358-0.478l0.478-0.597l0.478-0.597
	l0.239-0.358L278.219,331.259z M275.233,335.44l-0.478,0.597l-0.478,0.597l-0.478,0.597l-0.119,0.239l2.15,1.314l0.119-0.119
	l0.478-0.597l0.478-0.597l0.478-0.597l-2.031-1.434H275.233z M272.485,339.741l-0.239,0.239l-0.358,0.597l-0.358,0.717l-0.358,0.597
	l2.15,1.314l0.358-0.597l0.358-0.597l0.358-0.597l0.239-0.239l-2.15-1.314V339.741z M269.857,344.041l-0.358,0.478l-0.358,0.597
	l-0.358,0.717l-0.239,0.358l2.15,1.195l0.239-0.358l0.358-0.597l0.358-0.597l0.358-0.478l-2.15-1.195V344.041z M267.349,348.461
	L267.349,348.461l-0.358,0.597l-0.358,0.717l-0.358,0.597l-0.119,0.239l2.27,1.195l0.119-0.239l0.358-0.597l0.358-0.597l0.358-0.597
	l0,0l-2.27-1.195V348.461z M265.079,353l-0.119,0.119l-0.358,0.597l-0.358,0.597l-0.358,0.597l-0.119,0.239l2.27,1.075l0.119-0.239
	l0.358-0.597l0.358-0.597l0.358-0.597l0.119-0.119L265.079,353z M262.929,357.54v0.119l-0.239,0.597l-0.239,0.597l-0.239,0.597
	l-0.119,0.358l2.27,0.956l0.119-0.239l0.239-0.597l0.239-0.597l0.239-0.597v-0.119L262.929,357.54z M260.898,362.199l-0.239,0.478
	l-0.239,0.597l-0.239,0.597l-0.239,0.597l2.27,0.956l0.239-0.597l0.239-0.597l0.239-0.597l0.239-0.478L260.898,362.199z
	 M258.986,366.858v0.119l-0.239,0.597l-0.239,0.597l-0.239,0.597l-0.239,0.478l2.389,0.836l0.239-0.478l0.239-0.597l0.239-0.597
	l0.239-0.597v-0.119l-2.389-0.956V366.858z M257.195,371.636L257.195,371.636l-0.239,0.597l-0.239,0.597l-0.239,0.597l-0.239,0.597
	v0.119l2.389,0.836v-0.119l0.239-0.597l0.239-0.597l0.239-0.597l0.239-0.597l0,0L257.195,371.636z M255.522,376.414v0.119
	l-0.119,0.478l-0.119,0.478l-0.119,0.478l-0.119,0.478l-0.119,0.239l2.389,0.717l0.119-0.239l0.119-0.478l0.119-0.478l0.119-0.478
	l0.119-0.478v-0.119l-2.389-0.836V376.414z M253.969,381.193l-0.119,0.239l-0.119,0.478l-0.119,0.478l-0.119,0.478l-0.119,0.478
	l-0.119,0.478l0,0l2.389,0.717l0,0l0.119-0.358l0.119-0.478l0.119-0.478l0.119-0.478l0.119-0.478l0.119-0.239l-2.389-0.717V381.193z
	 M252.536,386.091l-0.119,0.358l-0.119,0.358l-0.119,0.358l-0.119,0.358l-0.119,0.358l-0.119,0.358l-0.119,0.358v0.119l2.389,0.597
	v-0.119l0.119-0.358l0.119-0.358l0.119-0.358l0.119-0.358l0.119-0.358l0.119-0.358l0.119-0.358l-2.389-0.717V386.091z"/>
<g>
	<path style="fill:#FFE356;" d="M95.328,288.851h0.836l5.017-2.748l0.836-3.225c-1.195-1.195-2.389-3.225-3.584-5.734
		c-0.119,0-0.239,0-0.239,0c-1.314,0-2.628-1.434-2.867-3.225c-0.239-1.434,0.239-2.509,1.075-2.986
		c-1.075-5.734-1.911-14.454,7.884-16.605c5.853-1.314,8.004,3.225,8.243,3.703c3.584-2.031,5.853,0.956,6.451,2.628
		c1.075,2.867,0.717,8.243,0.119,10.512c0.597,0.597,0.836,1.553,0.717,2.748c-0.239,1.792-1.553,3.106-2.867,3.225
		c-1.075,2.27-2.509,4.301-3.823,5.734l0.836,3.225h0.119l4.898,2.748h0.956c6.451,0,11.587,5.017,11.587,11.229v9.079H83.86v-9.079
		c0-6.092,5.256-11.229,11.587-11.229H95.328z"/>
	<path style="fill:#FFE356;" d="M228.763,389.794h0.836l5.017-2.748l0.836-3.225c-1.195-1.195-2.389-3.225-3.584-5.734
		c-0.119,0-0.239,0-0.239,0c-1.314,0-2.628-1.434-2.867-3.225c-0.239-1.434,0.239-2.509,1.075-2.986
		c-1.075-5.734-1.911-14.454,7.884-16.605c5.853-1.314,8.004,3.225,8.243,3.703c3.584-2.031,5.853,0.956,6.451,2.628
		c1.075,2.867,0.717,8.243,0.119,10.512c0.597,0.597,0.836,1.553,0.717,2.748c-0.239,1.792-1.553,3.106-2.867,3.225
		c-1.075,2.27-2.509,4.301-3.823,5.734l0.836,3.225h0.119l4.898,2.748h0.956c6.451,0,11.587,5.017,11.587,11.229v9.079h-47.664
		v-9.079c0-6.092,5.256-11.229,11.587-11.229H228.763z"/>
	<path style="fill:#FFE356;" d="M365.783,296.735h0.836l5.017-2.748l0.836-3.225c-1.195-1.195-2.389-3.225-3.584-5.734
		c-0.119,0-0.239,0-0.239,0c-1.314,0-2.628-1.434-2.867-3.225c-0.239-1.434,0.239-2.509,1.075-2.986
		c-1.075-5.734-1.911-14.454,7.884-16.605c5.853-1.314,8.004,3.225,8.243,3.703c3.584-2.031,5.853,0.956,6.451,2.628
		c1.075,2.867,0.717,8.243,0.119,10.512c0.597,0.597,0.836,1.553,0.717,2.748c-0.239,1.792-1.553,3.106-2.867,3.225
		c-1.075,2.27-2.509,4.301-3.823,5.734l0.836,3.225h0.119l4.898,2.748h0.956c6.451,0,11.587,5.017,11.587,11.229v9.079h-47.664
		v-9.079c0-6.092,5.256-11.229,11.587-11.229H365.783z"/>
	<path style="fill:#FFE356;" d="M203.558,211.322h0.836l5.017-2.748l0.836-3.225c-1.195-1.195-2.389-3.225-3.584-5.734
		c-0.119,0-0.239,0-0.239,0c-1.314,0-2.628-1.434-2.867-3.225c-0.239-1.434,0.239-2.509,1.075-2.986
		c-1.075-5.734-1.911-14.454,7.884-16.605c5.853-1.314,8.004,3.225,8.243,3.703c3.584-2.031,5.853,0.956,6.451,2.628
		c1.075,2.867,0.717,8.243,0.119,10.512c0.597,0.597,0.836,1.553,0.717,2.748c-0.239,1.792-1.553,3.106-2.867,3.225
		c-1.075,2.27-2.509,4.301-3.823,5.734l0.836,3.225h0.119l4.898,2.748h0.956c6.451,0,11.587,5.017,11.587,11.229v9.079H192.09
		v-9.079c0-6.092,5.256-11.229,11.587-11.229H203.558z"/>
	<path style="fill:#FFE356;" d="M301.872,115.994h0.836l5.017-2.748l0.836-3.225c-1.195-1.195-2.389-3.225-3.584-5.734
		c-0.119,0-0.239,0-0.239,0c-1.314,0-2.628-1.434-2.867-3.225c-0.239-1.434,0.239-2.509,1.075-2.986
		c-1.075-5.734-1.911-14.455,7.884-16.605c5.853-1.314,8.004,3.225,8.243,3.703c3.584-2.031,5.853,0.956,6.451,2.628
		c1.075,2.867,0.717,8.243,0.119,10.512c0.597,0.597,0.836,1.553,0.717,2.748c-0.239,1.792-1.553,3.106-2.867,3.225
		c-1.075,2.27-2.509,4.301-3.823,5.734l0.836,3.225h0.119l4.898,2.748h0.956c6.451,0,11.587,5.017,11.587,11.229v9.079h-47.664
		v-9.079c0-6.092,5.256-11.229,11.587-11.229H301.872z"/>
</g>
<path style="fill:#FFFFFF;" d="M386.449,155.655c6.57,0,11.826,5.256,11.826,11.826c0,6.57-5.256,11.826-11.826,11.826
	s-11.826-5.256-11.826-11.826C374.622,160.911,379.879,155.655,386.449,155.655z"/>
<path style="fill:#FF7069;" d="M386.449,160.911c3.703,0,6.69,2.986,6.69,6.69c0,3.703-2.986,6.69-6.69,6.69s-6.69-2.986-6.69-6.69
	C379.759,163.897,382.746,160.911,386.449,160.911z"/>
<path style="fill:#FFFFFF;" d="M301.514,200.691c6.57,0,11.826,5.256,11.826,11.826c0,6.57-5.256,11.826-11.826,11.826
	c-6.57,0-11.826-5.256-11.826-11.826C289.687,205.947,294.944,200.691,301.514,200.691z"/>
<path style="fill:#FF7069;" d="M301.514,205.947c3.703,0,6.69,2.986,6.69,6.69c0,3.703-2.986,6.69-6.69,6.69s-6.69-2.986-6.69-6.69
	C294.824,208.933,297.811,205.947,301.514,205.947z"/>
<path style="fill:#FFFFFF;" d="M250.624,126.626c6.57,0,11.826,5.256,11.826,11.826c0,6.57-5.256,11.826-11.826,11.826
	s-11.826-5.256-11.826-11.826C238.798,131.882,244.054,126.626,250.624,126.626z"/>
<path style="fill:#FF7069;" d="M250.624,131.882c3.703,0,6.69,2.986,6.69,6.69s-2.986,6.69-6.69,6.69c-3.703,0-6.69-2.986-6.69-6.69
	S246.921,131.882,250.624,131.882z"/>
<path style="fill:#FFFFFF;" d="M137.139,208.336c6.57,0,11.826,5.256,11.826,11.826c0,6.57-5.256,11.826-11.826,11.826
	c-6.57,0-11.826-5.256-11.826-11.826C125.312,213.592,130.568,208.336,137.139,208.336z"/>
<path style="fill:#FF7069;" d="M137.139,213.592c3.703,0,6.69,2.986,6.69,6.69c0,3.703-2.986,6.69-6.69,6.69s-6.69-2.986-6.69-6.69
	C130.449,216.579,133.435,213.592,137.139,213.592z"/>
<path style="fill:#FFFFFF;" d="M223.388,243.696c6.57,0,11.826,5.256,11.826,11.826s-5.256,11.826-11.826,11.826
	c-6.57,0-11.826-5.256-11.826-11.826S216.818,243.696,223.388,243.696z"/>
<path style="fill:#FF7069;" d="M223.388,248.832c3.703,0,6.69,2.986,6.69,6.69c0,3.703-2.986,6.69-6.69,6.69
	c-3.703,0-6.69-2.986-6.69-6.69C216.698,251.819,219.685,248.832,223.388,248.832z"/>
<path style="fill:#FFFFFF;" d="M183.13,317.76c6.57,0,11.826,5.256,11.826,11.826c0,6.57-5.256,11.826-11.826,11.826
	c-6.57,0-11.826-5.256-11.826-11.826C171.304,323.016,176.56,317.76,183.13,317.76z"/>
<path style="fill:#FF7069;" d="M183.13,322.897c3.703,0,6.69,2.986,6.69,6.69s-2.986,6.69-6.69,6.69c-3.703,0-6.69-2.986-6.69-6.69
	S179.427,322.897,183.13,322.897z"/>
<path style="fill:#FFFFFF;" d="M282.281,320.03c6.57,0,11.826,5.256,11.826,11.826c0,6.57-5.256,11.826-11.826,11.826
	s-11.826-5.256-11.826-11.826C270.454,325.286,275.711,320.03,282.281,320.03z"/>
<path style="fill:#FF7069;" d="M282.281,325.286c3.703,0,6.69,2.986,6.69,6.69s-2.986,6.69-6.69,6.69s-6.69-2.986-6.69-6.69
	S278.578,325.286,282.281,325.286z"/>
</svg>