<?xml version="1.0" encoding="utf-8"?>
<!-- Uploaded to: SVG Repo, www.svgrepo.com, Generator: SVG Repo Mixer Tools -->
<svg width="800px" height="800px" viewBox="0 -63.12 384.758 384.758" xmlns="http://www.w3.org/2000/svg"><defs><style>.a{fill:#ffffff;}.b{fill:#3d8dcc;}.c{fill:#7a7473;}.d{fill:#211715;}.e{fill:#febe69;}.f{fill:#d9d9d9;}.g{fill:#85807f;}</style></defs><path class="a" d="M131.907,60.955a5.622,5.622,0,0,1,4.064-1.488,5.214,5.214,0,0,1,4.687,2.6c1.593,2.762,1.525,7.851.456,11-.757,2.23-2,5.641-4.987,8.088a6.017,6.017,0,0,1-5.312,1.25,40.576,40.576,0,0,1-8.244,14.816,34.6,34.6,0,0,1-26.683,12.316,55.47,55.47,0,0,1-8.279-1.106A32.239,32.239,0,0,1,69.036,97.459,40.586,40.586,0,0,1,60.985,82.43a6.039,6.039,0,0,1-5.233-1.271c-2.99-2.447-4.23-5.858-4.987-8.088-1.069-3.149-1.136-8.238.456-11a5.217,5.217,0,0,1,4.687-2.6,5.624,5.624,0,0,1,4.065,1.488S53.819,30.724,95.94,30.724,131.907,60.955,131.907,60.955Z"/><path class="a" d="M308.822,171.42c4.688-13.382,10.27-30.569,13.837-42.44a22.345,22.345,0,0,1-2.17,1.611c-5.567,3.635-12.478,4.726-18.1,4.726-7.413,0-13.118-1.9-16.274-4.242-1.753-1.3-2.839-3.818-3.217-7.446h-4.717c5.022,17.53,17.888,56.438,22.362,65.947h1.368C303.444,186.308,305.967,179.57,308.822,171.42Z"/><path class="a" d="M82.924,145.447c-5.874-17.3-11.815-36.041-14.033-44.507,0,0,0-1.609-.006-3.657l.151.176a32.239,32.239,0,0,0,18.573,10.976,55.47,55.47,0,0,0,8.279,1.106,34.6,34.6,0,0,0,26.683-12.316q.476-.55.921-1.1c0,2.49,0,4.832,0,4.832-4.1,15.706-20.963,66.775-26.478,78.393H95.473C92.922,173.991,87.948,160.246,82.924,145.447Z"/><path class="b" d="M90.728,132.878c.318-2.344.507-3.833.5-4.062-.024-1.441-3.453-9.11-4.109-10.488,1.714-2.367,3.695-5.028,5.229-6.753,0,0,.89-1,1.9-2.129.543.046,1.089.079,1.641.095q.487-.013.983-.032c.307-2.079,4.46,3.265,7.849,7.924-.614,2.352-3.1,10.468-3.1,11.246,0,.453,1.994,15.828,3.5,28.737l.069.595c-3.373,9.577-6.376,17.553-8.173,21.339H95.473c-1.815-3.811-4.855-11.866-8.267-21.524C88.561,148.271,89.991,138.293,90.728,132.878Z"/><path class="c" d="M237.635,229.21c-1.974-1.153-3.911-2.313-5.784-3.454-4.518-2.734-9.037-8.379-10.328-12.974a27.966,27.966,0,0,1,0-15.91c4.607-16.67,15.806-47.688,17.023-50.382a45.732,45.732,0,0,1,7.71-12.387,32.129,32.129,0,0,1,6.635-5.122c6.868-4.084,18.308-8.99,23.941-10.307,3.431,13.553,18.741,60.345,23.709,70.9h1.368c4.968-10.578,20.3-57.534,23.691-70.982,5.5,1.2,17.263,6.222,24.267,10.387A32.129,32.129,0,0,1,356.5,134.1a45.756,45.756,0,0,1,7.711,12.387c1.216,2.694,12.415,33.712,17.022,50.382a27.966,27.966,0,0,1,0,15.91c-1.291,4.595-5.809,10.24-10.328,12.974-6.089,3.709-12.848,7.62-19.4,10.835a2.649,2.649,0,0,1-.279.127c-5.708,2.772-11.113,5.266-15.442,7.265a1.077,1.077,0,0,1-1.418-.557c-1.723-3.657-4.742-9.49-7.639-15l-50.69,0c-2.9,5.508-5.918,11.342-7.641,15a1.077,1.077,0,0,1-1.418.557c-4.329-2-9.733-4.493-15.442-7.265a2.546,2.546,0,0,1-.278-.127C246.716,234.365,242.079,231.806,237.635,229.21Z"/><path class="d" d="M351.5,198.733c.165-10.793.694-21.57.7-32.366,0-3.089-4.8-3.094-4.8,0,0,10.8-.531,21.573-.7,32.366-.047,3.089,4.753,3.09,4.8,0Z"/><path class="d" d="M250.211,166.937c.028,10.714,1.214,21.363,1.569,32.061.1,3.081,4.9,3.095,4.8,0-.355-10.7-1.541-21.347-1.569-32.061-.009-3.089-4.809-3.094-4.8,0Z"/><path class="d" d="M323.149,118.491c-2.357,9.094-5.286,18.057-8.166,26.995-3.451,10.708-7,21.391-10.853,31.963-.81,2.224-1.635,4.443-2.5,6.646q-.524,1.332-1.073,2.654c-.16.386.187-.426-.032.072-.078.178-.153.357-.232.535q-.222.507-.456,1.008l2.072-1.188h-1.368l2.073,1.188c-.272-.579-.527-1.165-.78-1.752-.167-.385.175.428-.037-.088l-.225-.545q-.24-.585-.473-1.17c-.758-1.9-1.482-3.819-2.192-5.739-1.814-4.907-3.539-9.847-5.231-14.8q-5.551-16.239-10.608-32.646c-1.336-4.357-2.665-8.723-3.811-13.136-.775-2.987-5.406-1.721-4.628,1.276,2.374,9.145,5.326,18.157,8.229,27.144,3.481,10.777,7.062,21.53,10.955,32.167,1.44,3.936,2.876,7.909,4.656,11.708a2.366,2.366,0,0,0,2.072,1.189h1.368a2.365,2.365,0,0,0,2.072-1.189c3.726-7.968,6.417-16.5,9.257-24.805q5.6-16.391,10.7-32.951c1.347-4.4,2.688-8.809,3.842-13.264.776-2.992-3.853-4.269-4.628-1.276Z"/><path class="d" d="M289.482,186.6c-4.709-8.164-9.378-16.352-13.929-24.605q-3.393-6.153-6.684-12.36-1.6-3.027-3.167-6.071c-.16-.31-.591-1.666-.513-.493q-.366.51.165-.117.315-.337.634-.672c.856-.9,1.734-1.768,2.621-2.633,2.216-2.159-1.18-5.552-3.394-3.394a26.528,26.528,0,0,0-4.143,4.381c-1.154,1.84-.413,3.6.485,5.351q2.68,5.212,5.462,10.374,5.7,10.593,11.661,21.038,3.306,5.825,6.657,11.623c1.544,2.675,5.693.261,4.145-2.422Z"/><path class="d" d="M333.734,158.533c1.844-3.371,3.663-6.756,5.431-10.168q.633-1.222,1.261-2.448a16.042,16.042,0,0,0,1.418-3.028c.7-2.64-1.613-4.516-3.26-6.18-2.177-2.2-5.571,1.2-3.395,3.394.653.659,1.305,1.321,1.931,2.006s-.232-.371.078-.4a7.431,7.431,0,0,0-.539,1.047q-1.143,2.229-2.3,4.452c-1.557,2.985-3.156,5.946-4.772,8.9-1.483,2.712,2.66,5.137,4.145,2.423Z"/><path class="d" d="M316.573,189.025c2.677-4.64,5.327-9.3,7.9-13.994a2.4,2.4,0,1,0-4.144-2.423c-2.574,4.7-5.224,9.354-7.9,14a2.4,2.4,0,1,0,4.144,2.422Z"/><path class="e" d="M319.634,130.907c-5.567,3.635-12.477,4.727-18.1,4.727-7.413,0-13.118-1.9-16.274-4.242-2.832-2.1-3.921-7.378-3.1-15.375l.1-1,3.491.966a56.575,56.575,0,0,0,16.563,1.75c5.479-.345,8.914-1.5,14.864-2.534a3.672,3.672,0,0,1,3.168.859,10.377,10.377,0,0,1,2.545,7.562c-.118,1.566.273,4.618-1.608,6.1Q320.481,130.357,319.634,130.907Z"/><path class="f" d="M341.765,155.91H324.094a1.244,1.244,0,0,0-1.244,1.243v5.382a1.241,1.241,0,0,0,1.24,1.244h17.671A1.244,1.244,0,0,0,343,162.535v-5.382A1.24,1.24,0,0,0,341.765,155.91Z"/><path class="d" d="M318.423,128.835c-6.245,4-14.122,4.975-21.383,4.154a24.247,24.247,0,0,1-8.868-2.589,13.265,13.265,0,0,1-1.5-.932c.277.205-.121-.1-.2-.177s-.6-.657-.347-.332a6.729,6.729,0,0,1-1.308-2.943c-.9-3.567-.532-7.387-.162-11l-3.038,2.314c6.75,1.868,13.642,3.233,20.692,2.8a74.195,74.195,0,0,0,10.743-1.689c.9-.189,1.793-.375,2.693-.549a6.6,6.6,0,0,1,2.452-.336c1.142.271,1.7,2.064,1.965,3.06a16.6,16.6,0,0,1,.27,5,4.775,4.775,0,0,1-.263,1.674c-.308.7-1.113,1.12-1.748,1.543-2.56,1.7-.159,5.863,2.422,4.145,1.806-1.2,3.338-2.41,3.989-4.564a17.626,17.626,0,0,0,.448-4.686c.088-3.879-1.283-9.329-5.455-10.694-2.14-.7-4.512.051-6.635.484-1.977.4-3.945.853-5.93,1.209a45.6,45.6,0,0,1-12.192.452A68.349,68.349,0,0,1,282.9,112.7a2.437,2.437,0,0,0-3.038,2.315c-.633,6.185-1.253,14.741,4.607,18.744,6.254,4.273,15.081,4.855,22.367,3.945a33.443,33.443,0,0,0,14.014-4.725C323.439,131.319,321.035,127.163,318.423,128.835Z"/><path class="d" d="M341.765,153.51H326.88c-1.5,0-3.359-.3-4.693.54a3.794,3.794,0,0,0-1.737,3.185c-.048,1.337,0,2.683,0,4.02,0,.413-.018.83,0,1.243a3.72,3.72,0,0,0,2.518,3.5,9.386,9.386,0,0,0,2.827.184h12c1.392,0,2.826.095,4.214-.026a3.687,3.687,0,0,0,3.393-3.618c.057-1.3,0-2.623,0-3.928,0-.483.021-.971,0-1.454a3.743,3.743,0,0,0-3.639-3.643,2.416,2.416,0,0,0-2.4,2.4,2.454,2.454,0,0,0,2.4,2.4c-.63-.064-1.221-.836-1.161-1.075a2.079,2.079,0,0,0,0,.453v3.393a4.743,4.743,0,0,0,0,1.341c.124.327.252-.59.339-.7l.818-.338H324.5a1.437,1.437,0,0,0-.409,0c.973-.363.977,1.214,1.16,1.156a2.017,2.017,0,0,0,0-.22,8.559,8.559,0,0,0,0-1.414c0-1.13.1-2.309,0-3.436-.006-.07.031-.225,0-.289-.106-.223,4.342-3.886-.338.8-.769.769-1.111.223-.418.339a26.458,26.458,0,0,0,4.147,0h13.124C344.853,158.31,344.858,153.51,341.765,153.51Z"/><path class="a" d="M321.459,218.486l-2.413-.049c-2.988-.062-7.141-.008-11.047.015-2.522.014-6.951,1.54-9.208,2.7l-2.25,1.153-.9-.578c-3-1.925-9.3-2.246-14.136-3.02l-.3-.033c-2.533,4.77-6.573,12.354-9.705,18.5,3.094,2.132,6.231,4.16,9.157,6.476a3.013,3.013,0,0,0,.448,1.29c.852,1.268,2.363,2.857,4.28,2.519-.053.087-1.608,3,.809,4.65,1.417.965,3.715.911,6.11.548a4.045,4.045,0,0,0,4.16,3.489,16.08,16.08,0,0,0,4.454-.856c2.525-.892,7.368-2.778,13.693-5.66a33.033,33.033,0,0,0,5.427-3.516c3.71-2.8,7.62-6.247,9.088-7.355l2.129-1.608C328.079,230.924,323.982,223.237,321.459,218.486Z"/><path class="d" d="M280.865,221.018c1.371.216,2.749.393,4.125.569l1.017.131.453.059.247.033.357.05.449.065c.332.049.665.1,1,.153a32.5,32.5,0,0,1,3.508.731c.511.142,1.012.31,1.509.5.285.107.048.035-.094-.04.1.052.2.093.3.143.238.117.467.248.692.388a2.422,2.422,0,0,0,3.283-.861,2.448,2.448,0,0,0-.861-3.283,18.584,18.584,0,0,0-6.845-2.166c-1.44-.238-2.89-.424-4.338-.611q-.952-.121-1.906-.246c-.288-.038.331.047-.131-.018l-.432-.061q-.529-.077-1.056-.16a2.464,2.464,0,0,0-2.953,1.676,2.429,2.429,0,0,0,1.676,2.953Z"/><path class="d" d="M281.139,241c-2.726-2.088-5.605-3.961-8.43-5.91a2.415,2.415,0,0,0-3.284.861,2.461,2.461,0,0,0,.861,3.284c2.825,1.948,5.7,3.821,8.43,5.91a2.4,2.4,0,0,0,1.849.242,2.4,2.4,0,0,0,1.677-2.952,2.843,2.843,0,0,0-1.1-1.435Z"/><path class="d" d="M298.66,226.73a2.347,2.347,0,0,1-.4-2.035,1.715,1.715,0,0,1,1.22-1.516c.217-.1.452-.194.907-.367.478-.182.96-.352,1.445-.516,1.022-.344,2.057-.654,3.1-.918a21.786,21.786,0,0,1,5.909-.546c2.734-.02,5.469-.047,8.2,0,3.09.059,3.09-4.741,0-4.8-3.318-.063-6.638-.015-9.957.008a25.862,25.862,0,0,0-7.613,1.324c-2.346.734-5.291,1.489-6.77,3.595a7.445,7.445,0,0,0,.56,9.16c2.182,2.192,5.577-1.2,3.394-3.394Z"/><path class="d" d="M302.909,223.892c-6.233,3.766-12.861,6.861-18.816,11.068-2.725,1.925-5.436,3.7-5.834,7.319-.42,3.819,3.114,8.022,7.122,7.571l-2.072-3.612a6.18,6.18,0,0,0,.053,6.373c2.155,3.124,6.279,2.824,9.577,2.351l-3.038-2.314a6.46,6.46,0,0,0,7,5.851,31.605,31.605,0,0,0,9.105-2.6,100.724,100.724,0,0,0,10.611-4.611,51.736,51.736,0,0,0,7.407-5.277c1.294-1.034,2.57-2.091,3.842-3.151.546-.455,1.091-.912,1.64-1.364.208-.172.417-.344.627-.513.153-.124.8-.619.2-.162a2.48,2.48,0,0,0,.861-3.284,2.417,2.417,0,0,0-3.284-.861c-3.861,2.945-7.4,6.3-11.417,9.039a45.686,45.686,0,0,1-7.942,3.976c-2.5,1.073-5.034,2.1-7.595,3.03a12.21,12.21,0,0,1-4.837,1.027,1.5,1.5,0,0,1-.979-.494,1.715,1.715,0,0,1-.4-.593c.169.349-.1-.719-.038-.014a2.453,2.453,0,0,0-3.038-2.314c-1.134.162-3.42.595-4.33-.4-.135-.147-.094-.56-.062-.692.062-.254.151-.493.233-.74-.2.611-.138.316-.05.157.8-1.442-.173-3.825-2.073-3.611a1.609,1.609,0,0,1-1.521-.525,4.381,4.381,0,0,1-.508-.548s-.376-.673-.247-.339a2.485,2.485,0,0,1,.775-2.567c.113-.107.239-.2.357-.3.37-.316-.238.175.174-.138.5-.376,1-.741,1.506-1.1q1.463-1.047,2.953-2.053c2-1.351,4.129-2.47,6.243-3.63,3.436-1.885,6.864-3.783,10.219-5.81,2.64-1.6.231-5.748-2.423-4.145Z"/><path class="d" d="M304.732,231.987c-2.56,1.2-5.022,2.638-7.5,4-2.827,1.563-5.642,3.148-8.472,4.705a2.4,2.4,0,0,0,2.422,4.145c2.83-1.558,5.646-3.142,8.473-4.705,2.473-1.367,4.935-2.805,7.495-4a2.421,2.421,0,0,0,.861-3.284,2.453,2.453,0,0,0-3.284-.861Z"/><path class="d" d="M352.051,194.42c-9.516,5.087-19.009,10.216-28.53,15.294l-3.467,1.847c-1.322.7-2.466,1.539-2.609,3.157-.138,1.571.9,3.01,1.61,4.353q2.428,4.581,4.856,9.162c1.866,3.536,3.721,7.078,5.533,10.641.756,1.486,1.5,2.976,2.232,4.476A6.984,6.984,0,0,0,333,245.521c1.287,1.23,2.845,1.052,4.331.38a312.754,312.754,0,0,0,28.373-14.25c4.427-2.57,8.936-5.006,12.362-8.9a25.3,25.3,0,0,0,6.037-11.542,31.106,31.106,0,0,0-.192-13.578c-.834-3.569-1.994-7.085-3.087-10.581-4.1-13.1-8.543-26.144-13.415-38.981a47.853,47.853,0,0,0-9.605-16.108,37.5,37.5,0,0,0-9.51-6.628,129.72,129.72,0,0,0-13.047-6.038c-1.924-.773-3.867-1.5-5.84-2.136-2.946-.953-4.208,3.681-1.276,4.628a108.209,108.209,0,0,1,17.074,7.337,54.167,54.167,0,0,1,6.5,3.942,23.827,23.827,0,0,1,4.952,5.013,44.469,44.469,0,0,1,4.3,7.1,19.93,19.93,0,0,0,1.185,2.514c.269.386-.206-.534-.1-.252.145.4.319.8.474,1.2,1.186,3.077,2.3,6.185,3.41,9.29,3.512,9.814,6.9,19.678,10.031,29.621,1.581,5.027,3.64,10.34,3.979,15.626a21.734,21.734,0,0,1-4.346,15.084,28.545,28.545,0,0,1-8.251,6.843c-3.672,2.2-7.381,4.344-11.152,6.371-3.717,2-7.515,3.829-11.329,5.635q-2.615,1.239-5.239,2.457-1.305.607-2.612,1.212l-1.065.492-.691.32q-.782.323.218.016l1.059.617a5.814,5.814,0,0,1-.926-1.767q-.584-1.193-1.18-2.378-1.33-2.649-2.7-5.279-2.87-5.541-5.805-11.049-1.188-2.239-2.378-4.479-.471-.888-.942-1.777a3.674,3.674,0,0,0-.393-.743c-.286-.3.074-.88-.358.593-.408,1.388.105.634.853.235q7.694-4.095,15.372-8.214,8.207-4.4,16.406-8.811c2.726-1.456.3-5.6-2.422-4.144Z"/><path class="d" d="M248.285,198.564c9.947,5.318,19.869,10.679,29.823,15.984l1.737.925a5.551,5.551,0,0,0,1.093.582l.219.116q-.1-2.428-.52-1.561a8.622,8.622,0,0,0-.866,1.639q-1.14,2.149-2.282,4.3-2.849,5.365-5.663,10.749-1.59,3.053-3.146,6.122-.648,1.282-1.284,2.573a7.7,7.7,0,0,1-1.16,2.242l1.059-.617.558.14-.683-.315-1.054-.487q-1.1-.512-2.207-1.023-2.589-1.2-5.169-2.418c-3.373-1.592-6.749-3.184-10.056-4.911-3.389-1.77-6.725-3.643-10.025-5.574-2.878-1.683-5.973-3.244-8.449-5.5a21.642,21.642,0,0,1-7.323-14.11c-.529-5.632,1.179-10.914,2.8-16.228,3.071-10.089,6.489-20.076,10-30.018,1.293-3.654,2.6-7.305,3.959-10.935.348-.931.738-1.849,1.074-2.784.077-.212-.359.638-.1.252a23.389,23.389,0,0,0,1.185-2.514c.724-1.463,1.5-2.9,2.365-4.287a29.019,29.019,0,0,1,4.882-6.219,35.777,35.777,0,0,1,6.87-4.671,106.561,106.561,0,0,1,18.71-8.22c2.928-.946,1.675-5.582-1.276-4.628a113.558,113.558,0,0,0-12.691,5.095,77.125,77.125,0,0,0-10.923,5.892,27.771,27.771,0,0,0-4.886,3.926,44.442,44.442,0,0,0-3.429,4.307,48.259,48.259,0,0,0-5.359,9.859c-1.794,4.391-3.324,8.9-4.906,13.372q-3.867,10.92-7.467,21.933c-1.165,3.59-2.3,7.19-3.373,10.81-1.251,4.233-2.4,8.478-2.347,12.934a26.634,26.634,0,0,0,2.647,11.62,28.216,28.216,0,0,0,9.558,10.627c9.2,5.959,19.072,10.824,28.982,15.454,2.142,1,4.28,2.016,6.437,2.986a3.556,3.556,0,0,0,4.033-.35,6.6,6.6,0,0,0,1.452-2.278c1.6-3.291,3.278-6.54,4.968-9.784q2.731-5.246,5.514-10.465,1.1-2.066,2.193-4.131c.736-1.386,1.87-2.933,1.513-4.571a4.028,4.028,0,0,0-2.348-2.722l-4.114-2.192q-3.588-1.914-7.174-3.834-7.14-3.82-14.273-7.655c-2.219-1.191-4.433-2.389-6.653-3.576-2.724-1.456-5.151,2.686-2.423,4.144Z"/><path class="e" d="M275.069,132.088a25.458,25.458,0,0,0,6.2-5.894,8.4,8.4,0,0,1-.56-1.791,9.232,9.232,0,0,1,.378-5.1c-1.725-6.917-8.366-10.559-12.2-11.23-6.544-1.177-12.94-3.211-19.041-4.793a.674.674,0,0,0-.734.607c-.367,3.608-.907,7.059.473,9.515.906,1.614.909,1.866,3.89,3.981a79.907,79.907,0,0,1-9.553,2.823,2.49,2.49,0,0,0-1.574,3.651c3.315,5.547,10.531,10.06,16.477,11.227A21.565,21.565,0,0,0,275.069,132.088Z"/><path class="d" d="M269.743,113.894a22.538,22.538,0,0,0-14.963.419,98.658,98.658,0,0,1-9.483,3.067c-1.472.377-3.035.615-4.171,1.721a4.968,4.968,0,0,0-1.5,3.872c.194,2.73,2.872,5.348,4.772,7.1a31.1,31.1,0,0,0,6.972,4.855,26,26,0,0,0,14.187,2.905,24.607,24.607,0,0,0,16.187-8.458c2.042-2.306-1.341-5.713-3.394-3.394a20.326,20.326,0,0,1-11.385,6.842,19.9,19.9,0,0,1-10.679-.949,24.506,24.506,0,0,1-10.877-7.746,11.231,11.231,0,0,1-.813-1.184s-.211-.48-.249-.219c.073-.5,2-.662,2.445-.777a72.107,72.107,0,0,0,8.383-2.676,21.6,21.6,0,0,1,7.521-1.76,17.743,17.743,0,0,1,5.766,1.008c2.955.926,4.219-3.707,1.276-4.629Z"/><path class="g" d="M102.1,2.714c-1.894-.186-3.858-.272-5.91-.272-9.9,0-21.006,2.141-26.841,10.337-1.007.85-2.179,2.2-2.951,2.8a34.771,34.771,0,0,1-3.45,2.563C55.123,23.824,52.521,31.062,51.905,45.65a46.2,46.2,0,0,0,1.727,14.282,6.452,6.452,0,0,1,2.276-.465,5.624,5.624,0,0,1,4.065,1.488L62.418,63.3l.394-1.034c.973-2.553,1.124-5.913,2.432-9.256,1.076-2.751,2.257-5.279,5.939-7.467A17,17,0,0,1,81.036,43c3.885.159,8.219-.433,11.036-1.9,7.307-4.221,19.646-2.746,26.034,1.91,6.823,4.972,8.559,18.044,12.162,21.511a5.378,5.378,0,0,1,5.7-5.053,6.36,6.36,0,0,1,2.385.512c2.107-8.895,7.121-15.494,1.349-25.769-3.744-6.663-8.887-17.711-16.714-23.464A40.248,40.248,0,0,0,102.1,2.714Z"/><path class="c" d="M92.742,172.857c-7.026-17.939-20.193-58.019-23.817-71.777l-2.722.964c-7.864,2.785-15.338,5.7-22.467,9.985-6.709,4.034-12.412,7.14-16.888,13.681-5.413,7.912-9.31,18.035-12.681,26.929-3.315,8.745-5.907,16.666-8.41,25.769-.855,3.112-1.8,6-2.508,9.145A39.843,39.843,0,0,0,3.3,204.219c1.046,5.24,6.14,12.728,11.2,15.788,6.816,4.152,14.383,8.531,21.723,12.13l17.5,7.888a2.173,2.173,0,0,0,2.694-.8c1.751-3.717,4.641-9.32,7.534-14.828h64.385c3.009,5.738,6.033,11.606,7.817,15.392a1.207,1.207,0,0,0,1.587.624c4.846-2.239,10.9-5.031,17.288-8.134a3.179,3.179,0,0,0,.312-.142c7.34-3.6,14.907-7.978,21.723-12.13,5.059-3.06,10.153-10.548,11.2-15.788a39.845,39.845,0,0,0,.052-16.666c-.708-3.149-1.652-6.033-2.507-9.145-2.5-9.1-5.095-17.024-8.41-25.769-3.371-8.894-7.268-19.017-12.682-26.929-4.475-6.541-10.178-9.647-16.887-13.681-7.723-4.642-15.851-7.676-24.441-10.682-4.268,16.143-20.9,66.479-26.375,78H95.473C94.743,177.816,93.814,175.594,92.742,172.857Z"/><path class="d" d="M90.654,109.878c-3.276,3.7-5.956,7.879-8.912,11.829a2.408,2.408,0,0,0,.861,3.284,2.472,2.472,0,0,0,3.284-.861c1.263-1.688,2.459-3.426,3.7-5.13.8-1.093,1.558-2.258,2.445-3.279-.229.263-.184.237.014-.016q.142-.184.288-.367.28-.355.565-.706.563-.691,1.15-1.36a2.4,2.4,0,0,0-3.394-3.394Z"/><path class="d" d="M110.677,121.618c-3.046-4.071-5.8-8.377-9.18-12.194a2.415,2.415,0,0,0-3.394,0,2.457,2.457,0,0,0,0,3.394c.4.457.8.923,1.181,1.395q.3.37.6.746l.3.387.153.2-.119-.154q1.278,1.668,2.51,3.369c1.274,1.755,2.5,3.546,3.8,5.283a2.461,2.461,0,0,0,3.283.861,2.425,2.425,0,0,0,.861-3.284Z"/><path class="d" d="M83.231,176C75.02,161.765,66.9,147.47,59.256,132.925q-.8-1.524-1.6-3.053a29.1,29.1,0,0,0-1.561-3.027l-.1-.2q-.132-.388-.118-.031c.254.194-.522.429.057.112a6.718,6.718,0,0,0,1.145-1.213c.886-.921,1.793-1.821,2.709-2.712,2.216-2.159-1.18-5.552-3.4-3.394a29.994,29.994,0,0,0-4.614,4.868c-1.361,2.15-.234,4.206.794,6.2q3.02,5.859,6.149,11.659c4.23,7.856,8.579,15.649,12.985,23.408Q75.373,172,79.086,178.42c1.543,2.675,5.692.261,4.145-2.422Z"/><path class="d" d="M101.874,124.756c-3.579,0-7.159-.075-10.738-.076a2.4,2.4,0,0,0,0,4.8c3.579,0,7.159.075,10.738.076a2.4,2.4,0,0,0,0-4.8Z"/><path class="d" d="M107.517,157.416c-.861-7.354-1.776-14.7-2.691-22.049-.253-2.033-.521-4.065-.749-6.1a2.6,2.6,0,0,0-.054-.5c-.11-.332-.17.656-.01.054.257-.961.5-1.926.767-2.885.743-2.623,1.559-5.227,2.262-7.861.8-2.988-3.833-4.263-4.629-1.276-.618,2.316-1.329,4.609-1.991,6.913-.458,1.594-1.241,3.448-1.191,5.135.05,1.669.4,3.38.61,5.034q.624,5.022,1.248,10.043.831,6.744,1.628,13.493a2.474,2.474,0,0,0,2.4,2.4,2.415,2.415,0,0,0,2.4-2.4Z"/><path class="d" d="M121.175,100.319c-2.638,10.087-5.919,20.025-9.144,29.935-3.885,11.94-7.885,23.852-12.221,35.636-.92,2.5-1.858,5-2.843,7.48q-.294.741-.595,1.48-.148.364-.3.728c-.056.136-.387.913-.109.264-.33.771-.665,1.539-1.023,2.3l2.072-1.189H95.473l2.072,1.189c-.314-.664-.611-1.335-.9-2.009-.044-.1-.266-.623-.129-.3.146.346-.14-.334-.171-.411q-.278-.666-.547-1.337c-.848-2.1-1.657-4.22-2.451-6.343-2.028-5.419-3.956-10.875-5.849-16.343q-6.267-18.105-11.975-36.4c-1.513-4.873-3.018-9.755-4.315-14.691-.784-2.985-5.416-1.719-4.629,1.276,2.677,10.189,6.007,20.227,9.279,30.237,3.924,12,7.96,23.977,12.346,35.819,1.61,4.346,3.212,8.736,5.2,12.927a2.366,2.366,0,0,0,2.072,1.189h1.539a2.365,2.365,0,0,0,2.072-1.188c1.7-3.605,3.1-7.364,4.5-11.1,2.047-5.47,3.989-10.979,5.894-16.5q6.3-18.243,12.027-36.682c1.507-4.872,3.006-9.754,4.3-14.689.782-2.99-3.846-4.266-4.629-1.276Z"/><path class="d" d="M132.428,144.643q2.714-4.914,5.309-9.892c1.238-2.372,2.574-4.729,3.683-7.163a4.452,4.452,0,0,0-.128-4.292,19.483,19.483,0,0,0-3.078-3.383c-2.176-2.2-5.57,1.2-3.394,3.394.807.815,1.708,1.749,2.407,2.537-.3-.337.021-.6-.376.171q-.462.9-.927,1.807-1.506,2.93-3.034,5.848-2.256,4.3-4.607,8.55c-1.495,2.706,2.649,5.13,4.145,2.423Z"/><path class="d" d="M113.4,178.42q5.226-9.058,10.328-18.188c1.5-2.7-2.642-5.125-4.145-2.422Q114.5,166.95,109.254,176c-1.546,2.68,2.6,5.1,4.145,2.422Z"/><path class="d" d="M38.005,142.83c1.11,14.905,2.117,29.828,2.392,44.776.057,3.085,4.857,3.095,4.8,0-.275-14.948-1.282-29.871-2.392-44.776a2.459,2.459,0,0,0-2.4-2.4,2.419,2.419,0,0,0-2.4,2.4Z"/><path class="f" d="M141.247,142.192H123.576a1.243,1.243,0,0,0-1.244,1.243v5.382a1.24,1.24,0,0,0,1.24,1.243h17.671a1.243,1.243,0,0,0,1.243-1.243v-5.382A1.24,1.24,0,0,0,141.247,142.192Z"/><path class="d" d="M152.035,191.367c.155-16.2,1.249-32.376,2.443-48.529a2.4,2.4,0,0,0-4.8,0c-1.194,16.153-2.288,32.327-2.443,48.529-.03,3.09,4.77,3.092,4.8,0Z"/><path class="d" d="M141.247,139.792H126.362c-1.5,0-3.359-.3-4.693.54a3.794,3.794,0,0,0-1.737,3.185c-.048,1.336,0,2.683,0,4.02,0,.413-.018.83,0,1.243a3.72,3.72,0,0,0,2.518,3.5,9.385,9.385,0,0,0,2.827.183h12c1.392,0,2.826.1,4.214-.025a3.687,3.687,0,0,0,3.393-3.618c.057-1.3,0-2.623,0-3.928,0-.483.021-.971,0-1.454a3.742,3.742,0,0,0-3.639-3.643,2.415,2.415,0,0,0-2.4,2.4,2.454,2.454,0,0,0,2.4,2.4c-.63-.064-1.221-.836-1.161-1.075a2.079,2.079,0,0,0,0,.453v3.393a4.743,4.743,0,0,0,0,1.341c.124.327.252-.59.339-.705l.818-.339H123.981a1.474,1.474,0,0,0-.409,0c.973-.362.977,1.215,1.16,1.157a2.017,2.017,0,0,0,0-.22,8.559,8.559,0,0,0,0-1.414c0-1.13.1-2.309,0-3.436-.006-.07.031-.225,0-.289-.106-.224,4.342-3.886-.338.795-.769.768-1.111.222-.418.339a26.458,26.458,0,0,0,4.147,0h13.124C144.335,144.592,144.34,139.792,141.247,139.792Z"/><path class="d" d="M89.549,97.346a24.585,24.585,0,0,0,6.658.824,17.477,17.477,0,0,0,6.578-.921,2.645,2.645,0,0,0,1.434-1.1,2.456,2.456,0,0,0,.242-1.85c-.36-1.11-1.711-2.192-2.952-1.676a9.178,9.178,0,0,1-1.9.524c-.111.02-.223.039-.335.057l-.215.032q-.276.04.26-.035c-.094-.072-.71.074-.842.085-.755.061-1.514.086-2.272.086-.727,0-1.455-.022-2.18-.074-.311-.023-.621-.051-.931-.086-.093-.011-.557-.063-.13-.014s0,0-.1-.018a17.863,17.863,0,0,1-2.044-.461,2.4,2.4,0,0,0-1.276,4.629Z"/><path class="d" d="M94.842,79.857a33.182,33.182,0,0,1,.78,3.566l-.086-.638a2.14,2.14,0,0,1,.013.493l.086-.638a1.208,1.208,0,0,1-.054.221l.242-.573a.981.981,0,0,1-.078.142l.375-.486a.748.748,0,0,1-.117.115l.486-.375a2.17,2.17,0,0,1-.282.149l.573-.241a2.077,2.077,0,0,1-.476.138l.638-.085a1.965,1.965,0,0,1-.447,0l.638.086c-.168-.024-.334-.065-.5-.088a1.812,1.812,0,0,0-.957-.042,1.786,1.786,0,0,0-.893.284,2.4,2.4,0,0,0-.861,3.284,2.3,2.3,0,0,0,1.435,1.1c.434.058.855.167,1.3.187a4.235,4.235,0,0,0,1.977-.48,2.978,2.978,0,0,0,1.614-1.948A4.654,4.654,0,0,0,100.226,82c-.194-1.149-.46-2.288-.755-3.415a2.4,2.4,0,0,0-2.953-1.676,2.425,2.425,0,0,0-1.434,1.1,2.522,2.522,0,0,0-.242,1.849Z"/><path class="d" d="M133.6,62.652a3.475,3.475,0,0,1,2.994-.717,2.915,2.915,0,0,1,1.4.6c-.3-.223.7.893.33.34,1.223,1.818,1.284,4.393,1.094,6.617a16.652,16.652,0,0,1-2.034,6.332c-1.25,2.307-3.152,4.69-6.037,4.316a2.412,2.412,0,0,0-2.4,2.4,2.461,2.461,0,0,0,2.4,2.4c6.535.848,10.537-6.224,12.169-11.5,1.46-4.722,1.42-12.087-3.2-15.116a8.481,8.481,0,0,0-10.1.94,2.4,2.4,0,0,0,3.394,3.394Z"/><path class="d" d="M61.67,59.258a8.527,8.527,0,0,0-9.277-1.387,8.1,8.1,0,0,0-4.247,5.464,20.531,20.531,0,0,0,2.984,16.2c2.094,3.115,5.394,5.919,9.4,5.4a2.479,2.479,0,0,0,2.4-2.4,2.414,2.414,0,0,0-2.4-2.4c-2.884.374-4.786-2.009-6.037-4.316A16.623,16.623,0,0,1,52.46,69.49c-.19-2.22-.13-4.8,1.094-6.617-.379.56.621-.558.33-.34a2.781,2.781,0,0,1,1.233-.563,3.518,3.518,0,0,1,3.159.682,2.456,2.456,0,0,0,3.394,0,2.423,2.423,0,0,0,0-3.394Z"/><path class="d" d="M81.036,40.6c-5.419.025-11.191,1.7-14.852,5.952a19.719,19.719,0,0,0-3.509,6.518c-.972,2.792-1.161,5.791-2.177,8.564a2.421,2.421,0,0,0,1.676,2.952,2.451,2.451,0,0,0,2.953-1.676c.89-2.432,1.124-5.048,1.848-7.529a15.254,15.254,0,0,1,2.432-5.231,10.269,10.269,0,0,1,2.4-2.161c.522-.341,1.064-.653,1.614-.945.246-.131.5-.258.748-.378.054-.026.681-.3.414-.193A15.891,15.891,0,0,1,81.036,45.4c3.088-.014,3.095-4.814,0-4.8Z"/><path class="d" d="M93.284,43.172c5.787-3.259,13.568-2.621,19.568-.3a13.7,13.7,0,0,1,6.579,4.956,40.971,40.971,0,0,1,4.208,8.554c1.122,2.875,2.075,6.043,3.89,8.577a2.469,2.469,0,0,0,3.284.861,2.42,2.42,0,0,0,.861-3.284c-1.683-2.348-2.416-4.9-3.464-7.578a45.1,45.1,0,0,0-4.724-9.681c-4.461-6.337-12.366-8.842-19.854-9.057a24.621,24.621,0,0,0-12.771,2.808c-2.692,1.516-.275,5.664,2.423,4.145Z"/><path class="d" d="M71.417,13.991c3.993-5.5,10.922-7.849,17.4-8.711A50.25,50.25,0,0,1,110.1,6.735a35.742,35.742,0,0,1,17.413,11.877c4.145,5.246,7.215,11.363,10.359,17.237a16.507,16.507,0,0,1,1.79,11.187c-.77,3.872-2.354,7.528-3.375,11.333-.8,2.987,3.827,4.261,4.628,1.276.963-3.585,2.417-7.032,3.232-10.657a21.231,21.231,0,0,0-.432-11.706c-1.23-3.538-3.307-6.827-5.107-10.1a91.1,91.1,0,0,0-5.965-9.678,39.688,39.688,0,0,0-8.152-8.615,44.268,44.268,0,0,0-10.812-5.981C106.248.063,97.868-.466,90.007.345c-8.738.9-17.392,3.865-22.734,11.223a2.418,2.418,0,0,0,.861,3.284,2.453,2.453,0,0,0,3.283-.861Z"/><path class="d" d="M55.8,58.7a54.564,54.564,0,0,1-.169-24.816c1.274-5.683,3.9-10.276,8.526-13.674a2.472,2.472,0,0,0,.861-3.284,2.419,2.419,0,0,0-3.284-.861,26.477,26.477,0,0,0-9.374,11.983c-2.256,5.841-2.771,12.491-2.886,18.7a51.776,51.776,0,0,0,1.7,13.232c.733,3,5.363,1.729,4.629-1.276Z"/><path class="d" d="M77.227,74.739a17.927,17.927,0,0,0,3.112.354,16.347,16.347,0,0,0,3.112-.318,2.424,2.424,0,0,0,1.435-1.1,2.4,2.4,0,0,0-.861-3.284,2.669,2.669,0,0,0-1.85-.242q-.391.078-.787.134l.638-.086a11.717,11.717,0,0,1-3.057.011l.638.086c-.369-.052-.736-.117-1.1-.181a2.6,2.6,0,0,0-1.849.242,2.4,2.4,0,0,0-.861,3.284,2.343,2.343,0,0,0,1.434,1.1Z"/><path class="d" d="M113.344,70.107c-.3.052-.606.1-.91.143l.638-.086a11.576,11.576,0,0,1-3.066.059l.638.085c-.315-.044-.628-.1-.94-.162a2.569,2.569,0,0,0-1.849.242,2.4,2.4,0,0,0-.861,3.284,2.378,2.378,0,0,0,1.434,1.1,13.311,13.311,0,0,0,3.119.322,24.249,24.249,0,0,0,3.073-.361,2.411,2.411,0,0,0,1.434-1.1,2.4,2.4,0,0,0-.861-3.284l-.573-.242a2.423,2.423,0,0,0-1.276,0Z"/><path class="d" d="M57.893,80.33a47.361,47.361,0,0,0,8.544,17.742,35.746,35.746,0,0,0,16.851,11.764A51.263,51.263,0,0,0,94,111.824a32.185,32.185,0,0,0,11.693-1.152,38.768,38.768,0,0,0,16.968-10A44.477,44.477,0,0,0,133.883,80.33c.752-3-3.876-4.275-4.628-1.276-2.979,11.874-11.06,22.275-22.84,26.35a32.532,32.532,0,0,1-9.663,1.71,38.753,38.753,0,0,1-9.986-1.3A30.233,30.233,0,0,1,71.6,96.725c-4.635-5-7.338-11.152-9.073-17.671-.794-2.982-5.426-1.717-4.629,1.276Z"/><path class="d" d="M85.055,119.547c.786,1.678,1.557,3.456,2.209,5.044.432,1.052.858,2.11,1.222,3.188.128.378.2.786.345,1.155.158.41.092-.439-.009.008-.358,1.588-.357,2.93-.544,4.3q-.668,4.868-1.365,9.732-.959,6.764-1.92,13.528a2.481,2.481,0,0,0,1.676,2.952,2.418,2.418,0,0,0,2.953-1.676c1.076-7.6,2.176-15.206,3.223-22.814.267-1.938.675-3.923.765-5.881.078-1.688-.784-3.442-1.4-4.971-.941-2.352-1.939-4.689-3.014-6.984a2.421,2.421,0,0,0-3.284-.861,2.454,2.454,0,0,0-.861,3.284Z"/><path class="a" d="M101.094,253.443c-1.929.769-3.494,1.354-4.63,1.755a17.59,17.59,0,0,1-4.878.938,4.429,4.429,0,0,1-4.556-3.822c-2.624.4-5.14.457-6.693-.6-2.647-1.8-.944-5-.885-5.093-2.1.37-3.756-1.37-4.688-2.759a3.289,3.289,0,0,1-.491-1.412c-4.358-3.451-9.144-6.315-13.659-9.677l-.729-.543c.494-.967,1.008-1.965,1.534-2.981,2.6-5.027,5.5-10.479,7.776-14.748l.979.08,5.03.555c5.292.847,12.2,1.2,15.483,3.307l.987.633.114.077a3.041,3.041,0,0,1,1.13-1.074c2.472-1.266,8.544-3.2,11.306-3.219,4.278-.024,8.827-.084,12.1-.016l1.9-.032,5-.083c2.818,5.3,6.571,12.387,9.558,18.25l-1.755,1.344-3.668,2.769c-1.607,1.214-5.889,4.985-9.953,8.055A36.164,36.164,0,0,1,111.462,249C107.38,250.859,103.862,252.34,101.094,253.443Z"/><path class="d" d="M74.566,217.45c1.482.234,2.97.425,4.457.616l1.114.143.5.065.3.04c.4.055,1.376.2,2,.3a35.886,35.886,0,0,1,3.842.8c.56.155,1.109.338,1.653.542.258.1.126.068-.048-.021.108.056.222.1.332.156.26.129.511.272.757.426a2.423,2.423,0,0,0,3.284-.861,2.45,2.45,0,0,0-.861-3.284,20.214,20.214,0,0,0-7.443-2.348c-1.558-.258-3.124-.459-4.69-.661-.7-.09-1.392-.178-2.088-.27-.261-.035.226.033-.2-.028L77,213q-.579-.083-1.157-.175A2.462,2.462,0,0,0,72.89,214.5a2.428,2.428,0,0,0,1.676,2.953Z"/><path class="d" d="M74.693,239.761c-3.37-2.58-6.949-4.865-10.424-7.3a2.412,2.412,0,0,0-3.283.861,2.462,2.462,0,0,0,.861,3.284c3.474,2.433,7.054,4.718,10.423,7.3a2.407,2.407,0,0,0,1.85.241A2.4,2.4,0,0,0,75.8,241.2a2.831,2.831,0,0,0-1.1-1.434Z"/><path class="d" d="M93.834,224.088a3.086,3.086,0,0,1-.275-3.21,2.743,2.743,0,0,1,1.774-1.271,39.662,39.662,0,0,1,7.471-2.2,6.063,6.063,0,0,1,1.2-.139c.763-.034,1.533-.013,2.3-.019,1.745-.013,3.489-.027,5.233-.032,2.23-.006,4.459.036,6.688,0,3.086-.051,3.095-4.851,0-4.8-2.823.047-5.646-.006-8.47.01-3.555.021-6.965-.049-10.429.847a46.03,46.03,0,0,0-4.548,1.433,12.044,12.044,0,0,0-4.08,2.042,7.9,7.9,0,0,0-.255,10.738c2.182,2.192,5.577-1.2,3.394-3.394Z"/><path class="d" d="M98.765,221.016c-3.367,2.035-6.8,3.953-10.249,5.847-2.31,1.268-4.7,2.453-6.9,3.9-2,1.314-3.968,2.679-5.869,4.125-2.4,1.825-4.162,4.219-3.9,7.407.294,3.559,3.893,7.168,7.6,6.723l-2.073-3.612A6.56,6.56,0,0,0,77.4,252.1c2.239,3.389,6.775,3.033,10.271,2.531l-3.038-2.315a6.879,6.879,0,0,0,2.86,4.981c2.011,1.484,4.284,1.3,6.628.951,3.657-.551,7.261-2.314,10.65-3.728,3.971-1.658,8.049-3.2,11.6-5.664,3.186-2.21,6.183-4.7,9.161-7.174q.991-.827,1.983-1.651.4-.328.8-.653c.143-.115.873-.688.26-.212.972-.756,1.9-1.566,2.843-2.359a2.42,2.42,0,0,0,0-3.394,2.45,2.45,0,0,0-3.394,0c-.732.616-1.491,1.209-2.2,1.851-.045.041-.093.078-.139.117.206-.175.893-.7-.125.1q-.251.195-.5.392c-.436.35-.866.707-1.3,1.064-2.439,2.024-4.854,4.083-7.378,6a42.728,42.728,0,0,1-8.76,5.174c-3.414,1.512-6.862,2.955-10.362,4.256a19.727,19.727,0,0,1-5.452,1.355,2.086,2.086,0,0,1-2.253-1.17c-.029-.05-.229-.423-.052-.084-.077-.147-.124-.761-.075-.149A2.453,2.453,0,0,0,86.392,250c-1.323.19-4.064.684-5.02-.581a1.07,1.07,0,0,1-.055-.953c.034-.135.265-.863.141-.517s.015-.026.066-.117c.8-1.433-.174-3.839-2.072-3.611a2.911,2.911,0,0,1-2.712-1.7,3.024,3.024,0,0,1,.651-2.8,10.762,10.762,0,0,1,2.27-1.781q1.667-1.2,3.368-2.349c2.187-1.482,4.508-2.715,6.824-3.985,3.811-2.09,7.614-4.193,11.335-6.442,2.64-1.6.23-5.748-2.423-4.145Z"/><path class="d" d="M100.762,229.882c-2.8,1.315-5.5,2.89-8.21,4.387-3.1,1.712-6.18,3.447-9.279,5.153a2.4,2.4,0,0,0,2.422,4.145c3.1-1.706,6.184-3.441,9.28-5.153,2.709-1.5,5.405-3.072,8.209-4.387a2.42,2.42,0,0,0,.861-3.284,2.454,2.454,0,0,0-3.283-.861Z"/><path class="d" d="M124.722,104.358c4.532,1.608,9.047,3.282,13.418,5.293a120.138,120.138,0,0,1,12.08,6.613,47.092,47.092,0,0,1,9.282,6.881,44.017,44.017,0,0,1,7.289,10.744c4.3,8.2,7.527,17,10.614,25.716q2.383,6.729,4.413,13.575c1.426,4.811,2.932,9.654,4.074,14.541a35.893,35.893,0,0,1,.472,13.49,23.654,23.654,0,0,1-3.941,10.03,27.557,27.557,0,0,1-3.783,4.5,25.882,25.882,0,0,1-4.737,3.371c-4.241,2.555-8.525,5.04-12.883,7.392-4.432,2.392-8.966,4.571-13.519,6.723q-3.131,1.479-6.27,2.935-1.482.687-2.964,1.372a6.364,6.364,0,0,0-1.226.567c-.589.46,1.2.913,1.136.372a2.091,2.091,0,0,0-.247-.52c-2.879-6.029-6.023-11.935-9.139-17.843q-2.256-4.275-4.527-8.541-.854-1.608-1.706-3.216a3.6,3.6,0,0,0-.335-.636l-.039-.073q-.38-.784-.464,1.382c.138.011.533-.284.659-.351l3.7-1.972q12.926-6.891,25.826-13.833c2.2-1.184,4.406-2.375,6.614-3.555,2.725-1.457.3-5.6-2.423-4.145-9.251,4.945-18.48,9.933-27.732,14.876q-3.548,1.895-7.1,3.786c-1.186.632-2.573,1.159-3.308,2.357a3.825,3.825,0,0,0,0,3.733c1.154,2.393,2.5,4.712,3.743,7.059,3.493,6.58,6.991,13.161,10.326,19.823.645,1.29,1.253,2.6,1.9,3.886a3.841,3.841,0,0,0,2.557,2.134c1.336.316,2.5-.359,3.667-.9,4.487-2.073,8.97-4.158,13.427-6.3,4.826-2.314,9.569-4.764,14.23-7.4q3.489-1.97,6.926-4.025a48.589,48.589,0,0,0,5.943-3.876,29.758,29.758,0,0,0,10.807-22.285,45.959,45.959,0,0,0-2.062-15.72c-1.456-5.08-2.857-10.176-4.45-15.216a289.839,289.839,0,0,0-10.462-28.1,91.755,91.755,0,0,0-6.8-13.111,37.749,37.749,0,0,0-9.245-9.929,103.565,103.565,0,0,0-11.219-7.054,109,109,0,0,0-13.939-6.477c-2.42-.949-4.863-1.838-7.313-2.707a2.4,2.4,0,1,0-1.276,4.628Z"/><path class="d" d="M53.085,242.339a4.708,4.708,0,0,0,4.71-1.01,10.083,10.083,0,0,0,1.67-2.92c.976-2,1.981-3.976,3-5.952,2.34-4.556,4.733-9.084,7.136-13.607q1.56-2.937,3.125-5.873c.869-1.634,2.438-3.693,2.044-5.608s-1.954-2.587-3.515-3.418l-5.186-2.765q-4.617-2.465-9.23-4.937c-6.88-3.685-13.747-7.4-20.63-11.076-2.724-1.456-5.151,2.686-2.423,4.145,11.253,6.015,22.479,12.081,33.74,18.081l1.963,1.046c.187.1.928.634,1.1.584l-.428-1.451-.08.152a11.407,11.407,0,0,0-1.047,1.978q-1.269,2.391-2.543,4.779-3.251,6.108-6.457,12.239-1.737,3.341-3.436,6.7-.7,1.4-1.388,2.8c-.221.453-.45.9-.657,1.363a2.04,2.04,0,0,1-.2.425c.218-.2.368-.19.016-.3-2.948-.948-4.21,3.685-1.276,4.628Z"/><path class="d" d="M65.565,99.73a144.033,144.033,0,0,0-19.044,7.979,90.066,90.066,0,0,0-15.367,9.777c-4.8,3.964-8.114,9.267-10.927,14.754a177.1,177.1,0,0,0-7.633,17.81c-2.419,6.343-4.691,12.736-6.684,19.226-1.03,3.355-1.954,6.737-2.922,10.109A76.751,76.751,0,0,0,.414,189.8a40.636,40.636,0,0,0-.2,9.9,30.072,30.072,0,0,0,1.725,8.2,31.216,31.216,0,0,0,10.252,13.446,104.223,104.223,0,0,0,9.5,5.715c3.427,1.971,6.891,3.881,10.41,5.686,6.733,3.454,13.649,6.567,20.518,9.74a2.47,2.47,0,0,0,3.283-.861,2.42,2.42,0,0,0-.861-3.284c-11.912-5.5-23.693-11.1-34.99-17.8a37.565,37.565,0,0,1-7.121-4.8,28.676,28.676,0,0,1-4.808-6.123C5.41,205.049,4.675,199.839,4.8,194.58c.156-6.7,2.582-13.245,4.428-19.624q2.722-9.4,6.106-18.6c2.145-5.84,4.348-11.684,6.937-17.345,2.448-5.351,5.2-11,9.265-15.321,4.186-4.448,9.745-7.525,15-10.521a125.336,125.336,0,0,1,20.3-8.813,2.461,2.461,0,0,0,1.677-2.952,2.422,2.422,0,0,0-2.953-1.676Z"/><path class="d" d="M63.186,235.356Q68.894,223.616,74.853,212c1.407-2.743-2.733-5.175-4.145-2.422q-5.958,11.616-11.667,23.358a2.463,2.463,0,0,0,.861,3.283,2.421,2.421,0,0,0,3.284-.861Z"/><path class="d" d="M118.481,213.682c3.475,7.471,7.024,14.909,10.369,22.44a2.416,2.416,0,0,0,3.283.861,2.46,2.46,0,0,0,.861-3.284c-3.344-7.531-6.894-14.968-10.369-22.439a2.419,2.419,0,0,0-3.283-.861,2.454,2.454,0,0,0-.861,3.283Z"/><path class="d" d="M253.83,114.7a10.872,10.872,0,0,1-1.1-.905c-.121-.118-.239-.237-.351-.363-.184-.207.134.233-.09-.134a7.5,7.5,0,0,1-1.022-2.188,10.944,10.944,0,0,1-.143-3.062,15.79,15.79,0,0,1,.384-3.775l-.617,1.059-.088.036-1.211.328a8.677,8.677,0,0,1,2.247.6q1.335.363,2.666.734c1.806.5,3.61,1,5.423,1.475,1.833.479,3.673.932,5.525,1.329,1.351.29,2.741.464,4.067.857a14.213,14.213,0,0,1,5.285,2.957,12.586,12.586,0,0,1,3.969,6.3c.785,2.985,5.416,1.719,4.629-1.276a18.392,18.392,0,0,0-13.879-12.916c-4.79-.942-9.486-2.179-14.189-3.481q-1.659-.459-3.32-.908c-1.26-.338-2.521-.8-3.748-.085-2.038,1.186-1.809,4.484-1.932,6.551a12.713,12.713,0,0,0,1.176,6.777,12.248,12.248,0,0,0,3.9,4.228,2.416,2.416,0,0,0,3.284-.861,2.457,2.457,0,0,0-.861-3.283Z"/><path class="d" d="M281.558,115.152a6.478,6.478,0,0,0-2.355,2.5,10.776,10.776,0,0,0-1.06,4.039,12.934,12.934,0,0,0,1.723,7.106,2.422,2.422,0,0,0,3.284.861,2.452,2.452,0,0,0,.861-3.284c-.118-.219-.233-.438-.343-.662-.055-.112-.108-.225-.161-.338-.109-.248-.1-.227.019.061a3.994,3.994,0,0,1-.4-1.181c-.058-.224-.1-.449-.138-.676-.094-.512.024.443-.013-.118a13.915,13.915,0,0,1-.05-1.4,2.162,2.162,0,0,1,.043-.645c-.049.332-.052.362-.009.088.021-.121.045-.243.071-.364a5.064,5.064,0,0,1,.393-1.263c-.326.609.037-.022.107-.137l.078-.123q.217-.313-.123.145c.109-.042.3-.309.39-.4q.286-.24-.146.107c.083-.059.167-.116.253-.17a2.4,2.4,0,1,0-2.423-4.145Z"/><path class="a" d="M336.375,77.557A5.5,5.5,0,0,1,340.35,76.1a5.1,5.1,0,0,1,4.583,2.547c1.558,2.7,1.492,7.677.447,10.757-.741,2.18-1.954,5.517-4.877,7.909a5.911,5.911,0,0,1-5.2,1.229,39.671,39.671,0,0,1-8.059,14.482,33.826,33.826,0,0,1-26.094,12.043,54.253,54.253,0,0,1-8.095-1.08,31.532,31.532,0,0,1-18.163-10.734,39.685,39.685,0,0,1-7.873-14.7,5.906,5.906,0,0,1-5.117-1.244c-2.924-2.392-4.137-5.729-4.877-7.909-1.045-3.08-1.111-8.056.446-10.757a5.1,5.1,0,0,1,4.583-2.547,5.5,5.5,0,0,1,3.975,1.455S255.692,46.462,301.2,46.462,336.375,77.557,336.375,77.557Z"/><path class="g" d="M342.038,51.576a35.93,35.93,0,0,0-2.341-6.19,42.409,42.409,0,0,0-21.77-20.35,38.4,38.4,0,0,0-16.95-3c-19.39-1.08-37.9,13.52-41.65,31.91a51.906,51.906,0,0,0,.04,17.39s.65,2.81,1.22,4.97a6.858,6.858,0,0,1,1.469-.2,5.5,5.5,0,0,1,3.975,1.455l6.172,1.537c20.174-3.253,31.841-13.34,44.064-23.572,5.14,2.935,10.745,9.3,12.944,12.986a81.97,81.97,0,0,1,5.732,11.618A5.207,5.207,0,0,1,340.35,76.1a6,6,0,0,1,2.671.667c2.066-7.118.706-17.434-.414-22.823-.14-.72-.32-1.45-.51-2.15C342.078,51.722,342.058,51.649,342.038,51.576Z"/><path class="d" d="M294.94,113.2a24.044,24.044,0,0,0,6.524.808,26.77,26.77,0,0,0,4.4-.355,9.366,9.366,0,0,0,2.049-.547,2.643,2.643,0,0,0,1.434-1.1,2.448,2.448,0,0,0,.242-1.849c-.359-1.111-1.711-2.192-2.952-1.676a9.022,9.022,0,0,1-1.856.512c-.109.02-.218.039-.327.056l-.21.031q-.277.041.268-.036a3.115,3.115,0,0,0-.823.083c-.739.06-1.481.084-2.223.084-.711,0-1.422-.021-2.131-.073-.3-.022-.608-.049-.911-.084-.1-.01-.55-.063-.12-.012s.008,0-.087-.017a17.714,17.714,0,0,1-2-.45,2.4,2.4,0,1,0-1.276,4.628Z"/><path class="d" d="M300.079,96.056a32.453,32.453,0,0,1,.762,3.488l-.086-.638a2.037,2.037,0,0,1,.013.481l.086-.638a1.136,1.136,0,0,1-.053.216l.242-.573a.89.89,0,0,1-.076.139l.375-.485a.755.755,0,0,1-.114.112l.486-.375a2.439,2.439,0,0,1-.277.146l.574-.242a2.042,2.042,0,0,1-.466.136l.638-.086a1.879,1.879,0,0,1-.437,0l.638.086c-.165-.023-.326-.063-.491-.085a1.812,1.812,0,0,0-.957-.043,1.778,1.778,0,0,0-.893.285,2.4,2.4,0,0,0-.861,3.283,2.3,2.3,0,0,0,1.435,1.1c.429.058.846.166,1.283.185a4.2,4.2,0,0,0,1.96-.477,2.958,2.958,0,0,0,1.6-1.936,4.6,4.6,0,0,0-.016-2.018c-.19-1.124-.45-2.237-.739-3.339a2.4,2.4,0,0,0-2.952-1.676,2.422,2.422,0,0,0-1.434,1.1,2.517,2.517,0,0,0-.242,1.849Z"/><path class="d" d="M282.89,91.088a17.586,17.586,0,0,0,3.058.348,16.022,16.022,0,0,0,3.057-.313,2.422,2.422,0,0,0,1.434-1.1,2.4,2.4,0,0,0-.861-3.283,2.655,2.655,0,0,0-1.849-.242c-.256.05-.512.094-.77.13l.638-.086a11.459,11.459,0,0,1-2.989.011l.638.086c-.362-.051-.721-.114-1.08-.176a2.594,2.594,0,0,0-1.849.241,2.4,2.4,0,0,0-.861,3.284,2.341,2.341,0,0,0,1.434,1.1Z"/><path class="d" d="M318.208,86.456c-.3.051-.592.1-.889.14l.638-.086a11.283,11.283,0,0,1-3,.057l.638.086c-.308-.043-.613-.1-.918-.158a2.567,2.567,0,0,0-1.85.242,2.4,2.4,0,0,0-.861,3.283,2.376,2.376,0,0,0,1.435,1.1,13.049,13.049,0,0,0,3.063.317,23.9,23.9,0,0,0,3.019-.355,2.41,2.41,0,0,0,1.435-1.1,2.4,2.4,0,0,0-.861-3.284l-.574-.242a2.423,2.423,0,0,0-1.276,0Z"/><path class="d" d="M262.9,75.668a48.71,48.71,0,0,1-1.877-11.909,38.943,38.943,0,0,1,1.92-13.879,39.132,39.132,0,0,1,17.717-20.549A38.383,38.383,0,0,1,294.1,24.7a47.106,47.106,0,0,1,6.873-.265,43.969,43.969,0,0,1,9.38.725A40.153,40.153,0,0,1,335.6,42.921a40.745,40.745,0,0,1,5.522,16.5c.726,5.461,1.09,11.353-.418,16.714-.838,2.978,3.792,4.25,4.629,1.276,1.527-5.431,1.358-11.3.726-16.857a50,50,0,0,0-4.288-16.383A44.89,44.89,0,0,0,316.443,21.9c-6.127-2.172-12.619-2.569-19.065-2.291a42.692,42.692,0,0,0-15.333,3.666,44.387,44.387,0,0,0-22.027,21.207,40.751,40.751,0,0,0-3.794,17.033,53.909,53.909,0,0,0,.5,8.63,62.54,62.54,0,0,0,1.551,6.8c.781,2.986,5.412,1.72,4.629-1.276Z"/><path class="d" d="M316.26,58.336c7.575,5.09,12.745,13.231,16.057,21.591a2.473,2.473,0,0,0,2.952,1.677,2.418,2.418,0,0,0,1.677-2.953c-3.805-9.6-9.557-18.61-18.263-24.46a2.4,2.4,0,0,0-2.423,4.145Z"/><path class="d" d="M313.8,54.473c-9.277,7.773-18.8,15.346-30.387,19.355a71.818,71.818,0,0,1-11.843,2.952,2.419,2.419,0,0,0-1.677,2.952,2.458,2.458,0,0,0,2.953,1.676,71.7,71.7,0,0,0,20.34-6.522,93.646,93.646,0,0,0,15.881-10.361c2.758-2.159,5.443-4.409,8.127-6.658a2.418,2.418,0,0,0,0-3.394,2.452,2.452,0,0,0-3.394,0Z"/><path class="d" d="M338.072,79.254a3.341,3.341,0,0,1,2.877-.687,2.73,2.73,0,0,1,1.354.579c-.324-.241.687.888.3.314,1.172,1.756,1.25,4.257,1.062,6.444a16.22,16.22,0,0,1-1.981,6.166c-1.215,2.241-3.055,4.557-5.858,4.194a2.411,2.411,0,0,0-2.4,2.4,2.461,2.461,0,0,0,2.4,2.4c6.415.832,10.349-6.1,11.951-11.289,1.435-4.643,1.386-11.867-3.158-14.842a8.348,8.348,0,0,0-9.945.927,2.4,2.4,0,0,0,3.394,3.394Z"/><path class="d" d="M267.728,75.86a8.393,8.393,0,0,0-9.136-1.364,7.979,7.979,0,0,0-4.178,5.375,20.127,20.127,0,0,0,2.924,15.886c2.057,3.061,5.3,5.817,9.239,5.307a2.479,2.479,0,0,0,2.4-2.4,2.413,2.413,0,0,0-2.4-2.4c-2.8.363-4.643-1.953-5.858-4.194a16.192,16.192,0,0,1-1.982-6.166c-.187-2.183-.11-4.694,1.063-6.444-.391.583.624-.552.3-.314A2.6,2.6,0,0,1,261.3,78.6a3.375,3.375,0,0,1,3.037.652,2.454,2.454,0,0,0,3.394,0,2.423,2.423,0,0,0,0-3.394Z"/><path class="d" d="M263.946,96.519a46.284,46.284,0,0,0,8.5,17.532,34.858,34.858,0,0,0,16.67,11.452,51.452,51.452,0,0,0,10.191,1.853,31.622,31.622,0,0,0,11.636-1.184,37.917,37.917,0,0,0,16.547-9.856,43.591,43.591,0,0,0,10.871-19.8c.752-3-3.876-4.275-4.628-1.276-2.906,11.576-10.775,21.731-22.259,25.716a31.663,31.663,0,0,1-9.43,1.682,37.8,37.8,0,0,1-9.823-1.272,29.505,29.505,0,0,1-14.769-8.852c-4.536-4.888-7.178-10.9-8.875-17.274-.794-2.982-5.426-1.717-4.629,1.276Z"/></svg>