<?xml version="1.0" encoding="iso-8859-1"?>
<!-- Uploaded to: SVG Repo, www.svgrepo.com, Generator: SVG Repo Mixer Tools -->
<svg height="800px" width="800px" version="1.1" id="Layer_1" xmlns="http://www.w3.org/2000/svg" xmlns:xlink="http://www.w3.org/1999/xlink" 
	 viewBox="0 0 512 512" xml:space="preserve">
<path style="fill:#9BC9FF;" d="M488.727,407.272H79.458l18.452-18.454c9.089-9.089,9.089-23.824,0-32.912
	c-9.087-9.089-23.824-9.089-32.912,0L6.819,414.085c-0.543,0.543-1.058,1.116-1.545,1.711c-0.217,0.264-0.41,0.548-0.614,0.821
	c-0.248,0.334-0.509,0.663-0.74,1.005c-0.222,0.331-0.416,0.681-0.621,1.022c-0.185,0.309-0.379,0.614-0.549,0.929
	c-0.186,0.349-0.348,0.712-0.515,1.071c-0.157,0.331-0.321,0.656-0.461,0.991c-0.146,0.348-0.262,0.709-0.391,1.066
	c-0.127,0.36-0.268,0.718-0.379,1.083c-0.107,0.357-0.188,0.725-0.279,1.088c-0.095,0.374-0.2,0.743-0.275,1.12
	c-0.084,0.42-0.135,0.85-0.195,1.277c-0.045,0.326-0.107,0.647-0.14,0.974C0.04,429.001,0,429.768,0,430.545s0.04,1.544,0.116,2.299
	c0.033,0.326,0.093,0.649,0.14,0.974c0.061,0.427,0.112,0.858,0.195,1.277c0.074,0.377,0.18,0.746,0.275,1.12
	c0.092,0.363,0.171,0.731,0.279,1.088c0.11,0.365,0.251,0.723,0.379,1.083c0.129,0.355,0.245,0.717,0.391,1.064
	c0.14,0.335,0.304,0.661,0.461,0.991c0.168,0.358,0.329,0.723,0.515,1.071c0.169,0.315,0.363,0.619,0.549,0.929
	c0.206,0.343,0.4,0.692,0.621,1.022c0.23,0.343,0.49,0.672,0.74,1.005c0.206,0.273,0.399,0.557,0.614,0.821
	c0.489,0.594,1.002,1.168,1.545,1.711l58.179,58.177c4.543,4.549,10.499,6.82,16.455,6.82s11.913-2.271,16.455-6.817
	c9.089-9.087,9.089-23.824,0-32.912l-18.452-18.452h409.27c12.853,0,23.273-10.42,23.273-23.273S501.58,407.272,488.727,407.272z"/>
<path style="fill:#57A4FF;" d="M511.747,78.205c-0.061-0.436-0.113-0.877-0.2-1.305c-0.073-0.366-0.175-0.728-0.267-1.091
	c-0.093-0.374-0.175-0.752-0.287-1.119c-0.107-0.354-0.244-0.701-0.368-1.05c-0.13-0.368-0.253-0.74-0.402-1.098
	c-0.133-0.321-0.293-0.635-0.441-0.951c-0.175-0.372-0.343-0.751-0.537-1.112c-0.16-0.296-0.344-0.583-0.517-0.873
	c-0.216-0.362-0.424-0.729-0.656-1.078c-0.209-0.313-0.447-0.613-0.673-0.917c-0.228-0.304-0.441-0.618-0.681-0.911
	c-0.424-0.515-0.877-1.01-1.351-1.496c-0.064-0.065-0.118-0.138-0.185-0.205L447.001,6.817c-9.087-9.089-23.824-9.089-32.912,0
	s-9.089,23.824,0,32.912l18.455,18.455H23.273C10.42,58.185,0,68.605,0,81.457s10.42,23.273,23.273,23.273h409.268l-18.451,18.452
	c-9.089,9.089-9.089,23.824,0,32.912c4.544,4.544,10.499,6.817,16.455,6.817s11.913-2.271,16.455-6.817l58.16-58.162l0.022-0.02
	c0.551-0.551,1.067-1.125,1.55-1.714c0.189-0.23,0.355-0.478,0.535-0.715c0.279-0.368,0.563-0.732,0.818-1.112
	c0.206-0.309,0.386-0.635,0.579-0.953c0.199-0.332,0.408-0.659,0.59-0.999c0.177-0.33,0.329-0.676,0.489-1.016
	c0.163-0.348,0.34-0.692,0.486-1.046c0.14-0.334,0.251-0.68,0.372-1.019c0.137-0.375,0.281-0.748,0.396-1.128
	c0.104-0.344,0.18-0.7,0.27-1.049c0.098-0.386,0.205-0.768,0.284-1.157c0.081-0.41,0.13-0.829,0.189-1.244
	c0.047-0.335,0.11-0.669,0.144-1.004c0.076-0.756,0.116-1.522,0.116-2.298c0-0.777-0.04-1.545-0.116-2.302
	C511.853,78.835,511.791,78.522,511.747,78.205z"/>
<path style="fill:#64C37D;" d="M221.687,307.966c-3.187-3.314-6.197-6.445-10.709-6.445c-7.64,0-13.791,8.513-13.791,15.56
	c0,12.667,19.503,30.872,50.578,33.258v7.942c0,6.066,5.396,11.002,12.026,11.002c5.688,0,12.024-4.518,12.024-11.002v-9.385
	c27.415-5.59,43-25.311,43-54.837c0-38.415-26.036-50.831-43-57.2v-51.478c7.368,1.264,12.251,3.753,16.033,5.682
	c3.126,1.593,5.826,2.97,8.87,2.97c8.392,0,13.545-9.069,13.545-15.569c0-12.964-21.203-19.433-38.448-21.194v-6.333
	c0-6.495-6.336-11.02-12.024-11.02c-6.63,0-12.026,4.943-12.026,11.02v6.999c-29.345,3.91-46.029,21.568-46.029,49.116
	c0,34.596,24.869,44.707,46.029,52.201v62.526C233.118,319.857,226.352,312.819,221.687,307.966z M271.061,268.764
	c9.712,5.562,15.157,12.899,15.157,26.816c0,12.629-4.974,20.683-15.157,24.436V268.764z M230.077,205.54
	c0-4.155,0-15.954,18.202-19.703v42.543C235.762,223.075,230.077,217.424,230.077,205.54z"/>
</svg>