<?xml version="1.0" encoding="iso-8859-1"?>
<!-- Uploaded to: SVG Repo, www.svgrepo.com, Generator: SVG Repo Mixer Tools -->
<svg height="800px" width="800px" version="1.1" id="Layer_1" xmlns="http://www.w3.org/2000/svg" xmlns:xlink="http://www.w3.org/1999/xlink" 
	 viewBox="0 0 512 512" xml:space="preserve">
<path style="fill:#4DC3FF;" d="M461.913,439.652H50.087C22.468,439.652,0,417.184,0,389.565v-267.13
	c0-27.619,22.468-50.087,50.087-50.087h411.826c27.619,0,50.087,22.468,50.087,50.087v267.13
	C512,417.184,489.532,439.652,461.913,439.652z"/>
<g>
	<path style="fill:#3AACE6;" d="M461.913,72.348H256v367.304h205.913c27.619,0,50.087-22.468,50.087-50.087v-267.13
		C512,94.816,489.532,72.348,461.913,72.348z"/>
	<path style="fill:#3AACE6;" d="M50.087,406.261c-9.206,0-16.696-7.49-16.696-16.696v-267.13c0-9.206,7.49-16.696,16.696-16.696
		h411.826c9.206,0,16.696,7.49,16.696,16.696v267.13c0,9.206-7.49,16.696-16.696,16.696H50.087z"/>
</g>
<path style="fill:#2B9FD9;" d="M461.913,105.739H256v300.522h205.913c9.206,0,16.696-7.49,16.696-16.696v-267.13
	C478.609,113.229,471.119,105.739,461.913,105.739z"/>
<g>
	<path style="fill:#D7EBFF;" d="M122.435,372.87H89.043c-9.223,0-16.696-7.473-16.696-16.696s7.473-16.696,16.696-16.696h33.391
		c9.223,0,16.696,7.473,16.696,16.696S131.657,372.87,122.435,372.87z"/>
	<path style="fill:#D7EBFF;" d="M222.609,372.87h-33.391c-9.223,0-16.696-7.473-16.696-16.696s7.473-16.696,16.696-16.696h33.391
		c9.223,0,16.696,7.473,16.696,16.696S231.831,372.87,222.609,372.87z"/>
</g>
<g>
	<path style="fill:#BDDEFF;" d="M322.783,372.87h-33.391c-9.223,0-16.696-7.473-16.696-16.696s7.473-16.696,16.696-16.696h33.391
		c9.223,0,16.696,7.473,16.696,16.696S332.005,372.87,322.783,372.87z"/>
	<path style="fill:#BDDEFF;" d="M422.957,372.87h-33.391c-9.223,0-16.696-7.473-16.696-16.696s7.473-16.696,16.696-16.696h33.391
		c9.223,0,16.696,7.473,16.696,16.696S432.179,372.87,422.957,372.87z"/>
</g>
<path style="fill:#FFCC99;" d="M422.957,239.304H322.783c-9.223,0-16.696-7.473-16.696-16.696v-66.783
	c0-9.223,7.473-16.696,16.696-16.696h100.174c9.223,0,16.696,7.473,16.696,16.696v66.783
	C439.652,231.831,432.179,239.304,422.957,239.304z"/>
<path style="fill:#D7EBFF;" d="M256,306.087H89.043c-9.223,0-16.696-7.473-16.696-16.696s7.473-16.696,16.696-16.696H256
	c9.223,0,16.696,7.473,16.696,16.696S265.223,306.087,256,306.087z"/>
<g>
	<path style="fill:#BDDEFF;" d="M272.696,289.391c0-9.223-7.473-16.696-16.696-16.696v33.391
		C265.223,306.087,272.696,298.614,272.696,289.391z"/>
	<path style="fill:#BDDEFF;" d="M422.957,306.087H322.783c-9.223,0-16.696-7.473-16.696-16.696s7.473-16.696,16.696-16.696h100.174
		c9.223,0,16.696,7.473,16.696,16.696S432.179,306.087,422.957,306.087z"/>
</g>
<path style="fill:#E6563A;" d="M122.435,239.304c-27.619,0-50.087-22.468-50.087-50.087s22.468-50.087,50.087-50.087
	s50.087,22.468,50.087,50.087S150.054,239.304,122.435,239.304z"/>
<path style="fill:#FFE14D;" d="M172.522,239.304c-27.619,0-50.087-22.468-50.087-50.087s22.468-50.087,50.087-50.087
	s50.087,22.468,50.087,50.087S200.141,239.304,172.522,239.304z"/>
</svg>