<?xml version="1.0" encoding="iso-8859-1"?>
<!-- Uploaded to: SVG Repo, www.svgrepo.com, Generator: SVG Repo Mixer Tools -->
<svg height="800px" width="800px" version="1.1" id="Layer_1" xmlns="http://www.w3.org/2000/svg" xmlns:xlink="http://www.w3.org/1999/xlink" 
	 viewBox="0 0 512 512" xml:space="preserve">
<path style="fill:#0055B8;" d="M256.001,113.647c62.767,0,105.048-94.439,105.048-94.439C365.778,8.645,360.177,0,348.602,0H163.399
	c-11.574,0-17.175,8.644-12.446,19.208C150.954,19.208,193.236,113.647,256.001,113.647z"/>
<path style="opacity:0.2;enable-background:new    ;" d="M255.99,115.819c-1.358,0-2.734-0.335-4.006-1.04
	c-11.917-6.621-23.852-20.799-35.475-42.144c-8.408-15.441-14.342-30.543-15.513-34.84c-1.2-4.403,1.396-8.947,5.8-10.148
	c4.407-1.196,8.947,1.397,10.148,5.801c2.047,7.51,21.871,55.106,43.068,66.881c3.99,2.217,5.428,7.249,3.212,11.239
	C261.711,114.285,258.894,115.819,255.99,115.819z"/>
<path style="opacity:0.2;enable-background:new    ;" d="M256.011,115.819c-2.905,0-5.721-1.534-7.232-4.251
	c-2.217-3.99-0.779-9.023,3.211-11.239c21.192-11.772,41.022-59.371,43.07-66.882c1.201-4.403,5.75-7,10.148-5.799
	c4.403,1.201,7,5.745,5.798,10.148c-1.172,4.298-7.108,19.401-15.514,34.838c-11.623,21.345-23.559,35.524-35.475,42.144
	C258.746,115.484,257.37,115.819,256.011,115.819z"/>
<path style="fill:#0071CE;" d="M499.948,326.411c0-134.731-109.22-243.951-243.948-243.951S12.052,191.68,12.052,326.411
	C12.052,461.141,91.42,512,256,512S499.948,461.141,499.948,326.411z"/>
<path style="fill:#FF9E16;" d="M490.574,259.219H21.427c-6.103,21.344-9.375,43.885-9.375,67.192c0,6.954,0.224,13.672,0.647,20.182
	h486.602c0.424-6.51,0.648-13.229,0.648-20.182C499.948,303.106,496.677,280.564,490.574,259.219z"/>
<circle style="fill:#FFFFFF;" cx="255.997" cy="300.041" r="148.665"/>
<path style="fill:#00A8E1;" d="M258.627,180.074c8.015,0,14.378,6.351,14.378,14.372v3.866c14.923,2.215,28.198,6.638,40.084,13.275
	c5.25,3.039,9.946,8.287,9.946,16.583c0,10.503-8.292,18.52-18.801,18.52c-3.319,0-6.63-0.829-9.672-2.489
	c-7.74-4.144-15.478-7.459-22.941-9.395v42.017c42.011,11.33,59.984,28.476,59.984,59.429c0,30.96-23.775,50.863-58.601,54.737
	v14.648c0,8.018-6.363,14.375-14.378,14.375c-8.018,0-14.373-6.357-14.373-14.375v-14.925c-19.627-2.49-38.15-9.399-54.454-19.352
	c-5.808-3.596-9.405-9.121-9.405-16.586c0-10.78,8.296-18.799,19.078-18.799c3.598,0,7.467,1.385,10.784,3.596
	c11.609,7.464,22.67,12.716,35.383,15.48V311.1c-39.81-10.782-59.435-25.983-59.435-58.882c0-30.407,23.219-50.861,58.051-54.459
	v-3.312C244.254,186.425,250.609,180.074,258.627,180.074z M245.638,269.633v-37.318c-13.27,1.936-19.075,8.569-19.075,17.413
	C226.564,258.297,230.432,264.104,245.638,269.633z M271.622,318.011v38.421c12.986-1.934,19.625-8.02,19.625-17.97
	C291.247,329.343,286.546,323.262,271.622,318.011z"/>
</svg>