<?xml version="1.0" encoding="iso-8859-1"?>
<!-- Uploaded to: SVG Repo, www.svgrepo.com, Generator: SVG Repo Mixer Tools -->
<svg height="800px" width="800px" version="1.1" id="Layer_1" xmlns="http://www.w3.org/2000/svg" xmlns:xlink="http://www.w3.org/1999/xlink" 
	 viewBox="0 0 504 504" xml:space="preserve">
<path style="fill:#54B265;" d="M6,178.2v268h496v-268H6z"/>
<path style="fill:#61C2AB;" d="M470,253c-20-7.6-28-18.8-37.6-34.8H85.6C74.8,226.2,66,239.4,42,253v115.2
	c28,18.4,38,34.4,43.6,46.4h346.8c1.6-28,21.6-40.8,37.6-46.4L470,253L470,253z"/>
<g>
	<circle style="fill:#E8E3E3;" cx="117.2" cy="310.6" r="21.2"/>
	<circle style="fill:#E8E3E3;" cx="395.6" cy="310.6" r="21.2"/>
</g>
<path style="fill:#4BB19B;" d="M202.4,356.2c-4.4-13.6-7.6-28.8-7.6-45.2c0-52.4,28.4-95.2,63.2-95.2s63.2,42.4,63.2,95.2
	c0,52.4-28.4,95.2-63.2,95.2c-15.6,0-30-8.8-41.2-23.2C216.8,383,205.6,366.6,202.4,356.2z"/>
<path style="fill:#AEB1B4;" d="M308.4,356.2c-2-15.2-20.8-19.6-40.8-21.6v-13.2c8-6.8,13.2-20.4,13.2-34c0-23.6-10.8-30-26-30
	s-28.4,6.4-28.4,30c0,13.6,5.6,27.6,9.6,34v13.2c-16,2.4-36,6.4-36,22.8v0.4c4,10.4,14.4,25.2,14.4,25.2
	c11.2,14.4,25.6,23.2,41.6,23.2c23.6,0,43.2-19.2,54-48L308.4,356.2z"/>
<polygon style="fill:#DF5C4E;" points="254.4,55.8 167.6,162.2 202,162.2 202,258.2 306,258.2 306,162.2 341.6,162.2 "/>
<path d="M500,452.2H4c-2.4,0-4-1.6-4-4v-268c0-2.4,1.6-4,4-4h198c2.4,0,4,1.6,4,4s-1.6,4-4,4H8v260h488v-260H306c-2.4,0-4-1.6-4-4
	s1.6-4,4-4h194c2.4,0,4,1.6,4,4v268C504,450.6,502.4,452.2,500,452.2z"/>
<path d="M432.4,416.2H78.8c-2.4,0-4-1.6-4-4c0-18-17.2-36-34.8-36c-2.4,0-4-1.6-4-4V247.8c0-2.4,1.6-4,4-4
	c17.2,0,34.8-9.6,34.8-27.6c0-2.4,1.6-4,4-4H202c2.4,0,4,1.6,4,4s-1.6,4-4,4H82.4c-2,19.2-20,30-38.4,31.6v116.8
	c19.2,2.4,36.4,20,38.4,39.6h346c1.2-18.8,12.8-38,35.6-40V251.4c-21.6-1.2-34-12.4-35.6-31.6H306c-2.4,0-4-1.6-4-4s1.6-4,4-4h126.4
	c2.4,0,4,1.6,4,4c0,18.4,10.8,27.6,31.6,27.6c2.4,0,4,1.6,4,4v124.4c0,2.4-1.6,4-4,4c-22,0-31.6,18-31.6,36
	C436.4,414.6,434.8,416.2,432.4,416.2z"/>
<path d="M255.6,413.4C216,413.4,184,367,184,310.2c0-24,5.6-47.2,16-65.6c1.2-2,3.6-2.4,5.6-1.6c2,1.2,2.4,3.6,1.6,5.6
	c-9.6,17.2-15.2,39.2-15.2,61.6c0,52.4,28.4,95.2,63.6,95.2c34.8,0,63.6-42.8,63.6-95.2c0-13.6-2-26.8-5.6-38.8
	c-0.8-2,0.4-4.4,2.8-4.8c2-0.8,4.4,0.4,4.8,2.8c4,13.2,6,26.8,6,41.2C327.2,367,294.8,413.4,255.6,413.4z"/>
<path d="M116.8,338.2c-15.6,0-28-12.8-28-28c0-15.6,12.8-28,28-28c2.4,0,4,1.6,4,4s-1.6,4-4,4c-11.2,0-20,9.2-20,20s9.2,20,20,20
	c11.2,0,20-9.2,20-20c0-2.4,1.6-4,4-4s4,1.6,4,4C144.8,325.8,132.4,338.2,116.8,338.2z"/>
<path d="M197.6,365.8c-2.4,0-4-1.6-4-4c0-10.8,6.8-24.4,38.4-30v-9.2c-2.4-4.8-10.4-20-10.4-36.8c0-11.2,5.2-20.8,15.2-28.8
	c1.6-1.2,4.4-1.2,5.6,0.8c1.2,1.6,1.2,4.4-0.8,5.6c-8,6.4-12,14-12,22.8c0,12.4,5.2,26,9.6,33.6c0.4,0.8,0.4,1.2,0.4,2v13.6
	c0,2-1.6,3.6-3.6,4c-16,2.4-34.8,8-34.8,22.4C201.6,363.8,200,365.8,197.6,365.8z"/>
<path d="M309.6,365.8c-2.4,0-4-1.6-4-4c0-14.8-24-20.4-38-22.4c-2-0.4-3.6-2-3.6-4v-13.6c0-1.2,0.4-2.4,1.2-3.2
	c7.2-6.4,12.4-19.6,12.4-32.4c0-13.2-3.6-16.4-9.2-20c-2-1.2-2.4-3.6-1.2-5.6s3.6-2.4,5.6-1.2c8.4,5.2,13.2,11.2,13.2,26.8
	c0,14.4-5.6,29.2-14,37.2v8.4c34,6,41.6,19.6,41.6,30C313.6,363.8,311.6,365.8,309.6,365.8z"/>
<path d="M394.8,338.2c-15.6,0-28-12.8-28-28c0-15.6,12.8-28,28-28c2.4,0,4,1.6,4,4s-1.6,4-4,4c-11.2,0-20,9.2-20,20s9.2,20,20,20
	c11.2,0,20-9.2,20-20c0-2.4,1.6-4,4-4s4,1.6,4,4C422.8,325.8,410.4,338.2,394.8,338.2z"/>
<path d="M304,264.2H204c-2.4,0-4-1.6-4-4v-92h-32c-1.6,0-2.8-0.8-3.6-2.4s-0.4-3.2,0.4-4.4l56.4-71.2l31.2-36.8
	c0.8-0.8,2-1.2,3.2-1.6c1.2,0,2.4,0.4,3.2,1.6l87.6,108c0.8,1.2,1.2,2.8,0.4,4.4c-0.8,1.2-2,2.4-3.6,2.4h-34.8v92
	C308,262.6,306.4,264.2,304,264.2z M208,256.2h92v-92c0-2.4,1.6-4,4-4h30.4l-79.2-97.6l-28,33.2L176,160.6h27.6c2.4,0,4,1.6,4,4
	v91.6H208z"/>
</svg>