<?xml version="1.0" encoding="iso-8859-1"?>
<!-- Uploaded to: SVG Repo, www.svgrepo.com, Generator: SVG Repo Mixer Tools -->
<svg version="1.1" id="Layer_1" xmlns="http://www.w3.org/2000/svg" xmlns:xlink="http://www.w3.org/1999/xlink" 
	 viewBox="0 0 480 480" xml:space="preserve">
<path style="fill:#4A88DB;" d="M472,312h-88c-8.84,0-16,7.16-16,16v128c0,8.84,7.16,16,16,16h88V312z"/>
<path style="fill:#B88B35;" d="M358.808,388.672c0-63.88-53.576-115.168-119.672-115.168c-66.088,0-119.672,51.04-119.672,114.92
	c0,1.464,0.168,3.584,0.224,3.584h238.888C358.632,392,358.808,390.128,358.808,388.672z"/>
<path d="M358.576,400h-238.88c-8.224,0-8.224-8.712-8.224-11.576c0-67.784,57.272-122.92,127.672-122.92
	c70.392,0,127.664,55.256,127.664,123.168C366.808,396.184,364.04,400,358.576,400z M127.56,384h223.144
	c-2.56-56.936-51.624-102.496-111.56-102.496C179.112,281.504,129.992,327.088,127.56,384z"/>
<rect x="320" y="336" style="fill:#F8F8FA;" width="48" height="120"/>
<path style="fill:#F1998A;" d="M241.424,392h-59.68c-11.224,0-20.32-8.968-20.32-20.184v-0.032c0-8.256,4.992-15.688,12.632-18.808
	l62.64-25.608c3.072-1.256,6.464-1.528,9.696-0.768l75.032,17.536l-0.536,109.224l-75.792,17.912c-2.416,0.568-4.928,0.568-7.344,0
	l-132.328-31.136L16.552,380.88c-4.448-2.968-7.128-7.96-7.128-13.312v-17.88c0-10.736,10.36-18.424,20.632-15.312l131.368,39.688"
	/>
<path d="M472,304h-88c-13.232,0-24,10.768-24,24h-40c-3.648,0-6.592,2.48-7.56,5.816L248.224,318.8
	c-4.896-1.144-9.904-0.744-14.552,1.152l-62.64,25.608c-8.088,3.312-14.008,10.008-16.416,18.088L32.384,326.72
	c-7.376-2.216-15.816-0.864-21.976,3.696C4.248,334.992,0,342.016,0,349.688v17.88c0,8.04,4.704,15.504,11.4,19.968l89.232,59.248
	c0.8,0.528,1.856,0.912,2.784,1.136l132.416,31.136c1.8,0.424,3.704,0.632,5.552,0.632c1.848,0,3.736-0.208,5.536-0.632
	l69.016-16.312c1.208,0.728,2.552,1.256,4.064,1.256h41.472c3.312,9.288,12.112,16,22.528,16h88c4.424,0,8-3.576,8-8V312
	C480,307.576,476.424,304,472,304z M329.4,344H360v104h-31.08l0.512-103.832C329.432,344.112,329.4,344.056,329.4,344z
	 M243.264,463.48c-1.2,0.296-2.472,0.28-3.672,0l-130.928-30.8L20.28,374.224c-2.24-1.48-4.28-3.976-4.28-6.656v-17.88
	c0-2.552,1.896-4.896,3.952-6.424c2.048-1.528,5-1.968,7.44-1.232l127.2,38.376c3.664,11.352,14.56,19.592,27.16,19.592h59.68
	c4.424,0,8-3.576,8-8s-3.576-8-8-8h-59.68c-6.8,0-12.32-5.472-12.32-12.216c0-5.024,3.008-9.504,7.664-11.408l62.624-25.608
	c1.544-0.624,3.208-0.768,4.856-0.384L312,350.144v97.088L243.264,463.48z M464,464h-80c-4.416,0-8-3.584-8-8V336v-8
	c0-4.416,3.584-8,8-8h80V464z"/>
<path d="M433.432,448h-24c-4.424,0-8-3.576-8-8s3.576-8,8-8h24c4.424,0,8,3.576,8,8S437.848,448,433.432,448z"/>
<ellipse transform="matrix(-0.0065 -1 1 -0.0065 136.7794 345.4773)" style="fill:#F5BA46;" cx="240.009" cy="104.792" rx="95.202" ry="96.002"/>
<path d="M272.36,119.752C272.28,106.568,261.528,96,248.36,96c-0.056,0-0.104,0-0.16,0h-15.992c-0.024,0-0.04,0-0.056,0
	c-4.392,0-7.976-3.608-8-8l-0.056-8.016c-0.032-4.416,3.536-8.04,7.944-8.064l7.32-0.056c0.256,0.016,0.48,0.136,0.744,0.136
	c0.016,0,0.032,0,0.048,0c0.272,0,0.496-0.128,0.752-0.16l23.144-0.144c4.424-0.032,7.984-3.48,7.952-7.896
	c-0.032-4.408-3.6-7.8-8-7.8c-0.016,0-0.032,0-0.048,0l-15.904-0.048L248,48.024c-0.032-4.4-3.6-8.024-8-8.024
	c-0.016,0-0.032,0-0.056,0c-4.416,0.032-7.976,3.68-7.944,8.104L232.048,56h-0.096c-13.232,0-23.928,10.864-23.848,24.104
	l0.056,7.968c0.08,13.24,10.568,23.944,24.16,23.944L248.304,112c0.024,0,0.04,0,0.056,0c2.12,0,4.112,0.72,5.624,2.2
	c1.512,1.504,2.36,3.456,2.376,5.592l0.048,7.984c0.016,2.144-0.808,4.136-2.304,5.656c-1.504,1.512-3.504,2.352-5.648,2.368
	l-31.984,0.2c-4.424,0.032-7.984,3.632-7.952,8.056c0.032,4.4,3.6,7.944,8,7.944c0.016,0,0.032,0,0.056,0l15.48-0.096l0.048,8.152
	c0.032,4.4,3.6,7.944,8,7.944c0.016,0,0.032,0,0.048,0c4.424-0.032,7.984-3.536,7.952-7.952L248.048,152h0.504
	c6.416,0,12.432-2.68,16.936-7.24c4.496-4.56,6.96-10.6,6.912-17.008L272.36,119.752z"/>
<g>
	
		<ellipse transform="matrix(-0.7071 -0.7071 0.7071 -0.7071 187.9076 589.6729)" style="fill:#34B095;" cx="216.079" cy="255.92" rx="27.248" ry="20"/>
	
		<ellipse transform="matrix(-0.7071 -0.7071 0.7071 -0.7071 272.4435 624.6097)" style="fill:#34B095;" cx="265.583" cy="255.88" rx="20" ry="27.248"/>
</g>
<path d="M344,103.336C343.632,46.656,297.048,0,240.008,0c-0.224,0-0.456,0-0.672,0c-27.768,0-53.808,11.872-73.32,31.472
	C146.488,51.088,135.824,77.48,136,105.064c0.352,54.016,42.72,98.312,96.08,102.336c-0.008,0.144-0.08,0.456-0.08,0.6v24.768
	c-13.56-10.816-30.72-11.904-40.832-1.792c-11.104,11.104-8.848,30.752,5.128,44.728c8.008,8.016,17.88,12.168,26.944,12.168
	c3.056,0,5.992-0.544,8.76-1.496V296c0,4.424,3.576,8,8,8c4.424,0,8-3.576,8-8v-10.304c3.184,1.352,6.704,2.112,10.44,2.112
	c1.536,0,3.12-0.128,4.712-0.368c7.984-1.224,15.864-5.392,22.208-11.736c13.976-13.976,16.224-33.624,5.128-44.728
	c-5.528-5.544-13.704-7.952-22.504-6.608c-7.096,1.088-14.048,4.608-19.976,9.808V208c0-0.144-0.072-0.256-0.08-0.4
	c25.024-1.864,48.264-12.792,66.064-30.672C333.52,157.312,344.176,130.912,344,103.336z M229.712,269.512
	c-4.016,4-14.088,2.896-22.104-5.128c-8.024-8.024-9.144-18.088-5.128-22.104c1.48-1.48,3.768-2.256,6.48-2.256
	c4.664,0,10.544,2.312,15.624,7.384C232.6,255.44,233.72,265.504,229.712,269.512z M257.08,247.416
	c3.896-3.888,8.752-6.528,13.32-7.232c0.648-0.096,1.456-0.184,2.352-0.184c2.08,0,4.592,0.464,6.424,2.288
	c4.016,4.016,2.896,14.08-5.128,22.104c-3.896,3.888-8.752,6.528-13.32,7.232c-2.16,0.32-6.168,0.496-8.776-2.112
	C247.936,265.504,249.056,255.44,257.08,247.416z M240.568,192c-0.192,0-0.384,0-0.576,0c-48.256,0-87.68-38.752-87.992-86.64
	c-0.152-23.272,8.848-46.024,25.352-62.6C193.864,26.168,215.912,16,239.432,16c0.192,0,0.384,0,0.576,0
	c48.256,0,87.68,39.552,87.992,87.44c0.16,23.272-8.848,45.624-25.352,62.2C286.136,182.232,264.088,191.848,240.568,192z"/>
<path d="M440,48h-16V32c0-4.424-3.576-8-8-8s-8,3.576-8,8v16h-16c-4.424,0-8,3.576-8,8s3.576,8,8,8h16v16c0,4.424,3.576,8,8,8
	s8-3.576,8-8V64h16c4.424,0,8-3.576,8-8S444.424,48,440,48z"/>
<path d="M401.432,232h-32c-4.424,0-8-3.576-8-8s3.576-8,8-8h32c4.424,0,8,3.576,8,8S405.848,232,401.432,232z"/>
<path d="M449.432,232h-16c-4.424,0-8-3.576-8-8s3.576-8,8-8h16c4.424,0,8,3.576,8,8S453.848,232,449.432,232z"/>
<path d="M64,195.2c-4.424,0-8-3.576-8-8V168c0-4.424,3.576-8,8-8s8,3.576,8,8v19.2C72,191.624,68.424,195.2,64,195.2z"/>
<path d="M64,272c-4.424,0-8-3.576-8-8v-19.2c0-4.424,3.576-8,8-8s8,3.576,8,8V264C72,268.424,68.424,272,64,272z"/>
<path d="M112,224H92.8c-4.424,0-8-3.576-8-8s3.576-8,8-8H112c4.424,0,8,3.576,8,8S116.424,224,112,224z"/>
<path d="M35.2,224H16c-4.424,0-8-3.576-8-8s3.576-8,8-8h19.2c4.424,0,8,3.576,8,8S39.624,224,35.2,224z"/>
<path d="M97.936,257.936c-2.048,0-4.096-0.784-5.656-2.344l-13.568-13.568c-3.128-3.128-3.128-8.184,0-11.312s8.184-3.128,11.312,0
	l13.568,13.568c3.128,3.128,3.128,8.184,0,11.312C102.032,257.16,99.984,257.936,97.936,257.936z"/>
<path d="M43.632,203.632c-2.048,0-4.096-0.784-5.656-2.344L24.408,187.72c-3.128-3.128-3.128-8.184,0-11.312s8.184-3.128,11.312,0
	l13.568,13.568c3.128,3.128,3.128,8.184,0,11.312C47.728,202.848,45.68,203.632,43.632,203.632z"/>
<path d="M30.064,257.936c-2.048,0-4.096-0.784-5.656-2.344c-3.128-3.128-3.128-8.184,0-11.312l13.568-13.568
	c3.128-3.128,8.184-3.128,11.312,0s3.128,8.184,0,11.312L35.72,255.592C34.16,257.16,32.112,257.936,30.064,257.936z"/>
<path d="M84.368,203.632c-2.048,0-4.096-0.784-5.656-2.344c-3.128-3.128-3.128-8.184,0-11.312l13.568-13.568
	c3.128-3.128,8.184-3.128,11.312,0s3.128,8.184,0,11.312l-13.568,13.568C88.464,202.848,86.416,203.632,84.368,203.632z"/>
<path d="M52,80c-15.44,0-28-12.56-28-28s12.56-28,28-28s28,12.56,28,28S67.44,80,52,80z M52,40c-6.616,0-12,5.384-12,12
	s5.384,12,12,12s12-5.384,12-12S58.616,40,52,40z"/>
<circle cx="184" cy="112" r="8"/>
<circle cx="296" cy="112" r="8"/>
</svg>